<svg id="botswana" xmlns="http://www.w3.org/2000/svg" viewBox="0 0 20 22"><title>botswana</title><g id="botswana-2" data-name="botswana"><path id="Botswana-3" data-name="Botswana" d="M435,525a1.75,1.75,0,0,1-1.47-1.47c0-.63-.84-1.16-.84-1.58s-1.37-1.16-2.11-1.47-.84-2.53-1.16-2.53-.89-.65-1.2-1.2a7.76,7.76,0,0,1-1.41.27,2.32,2.32,0,0,0-1.5.93c-.25.31-.75-.56-1.12-.81s-1.93.56-2.37.68a18.6,18.6,0,0,1-2,.25v7.22c0,.81-2.12.31-2.12.81v6.19c.46.16.89.39,1,.66a6.92,6.92,0,0,1,.68,2.36c-.12.38-.43.13-.43.5s-.25.93.37.93,1.68.37,2.12-.13,1.87-1.62,1.93-2.18.37-1.8,1.43-1.12a3.21,3.21,0,0,0,2.49.81c1.37,0,1.74-.06,2-.93s0-1.56.81-1.56,1.8-.75,1.8-1.31.37-1.43.87-1.43a2.16,2.16,0,0,0,1.68-1.25c.12-.62,1-.37,1.31-.75.15-.18.45-.62.72-1h0C436.53,525.47,436.39,524.91,435,525Z" transform="translate(-417 -516)" style="fill:#b1f4f4;stroke:#969696;stroke-miterlimit:10;stroke-width:0.25px"/><circle id="pivot_north_bots" cx="10" cy="1" r="1" style="fill:none"/><circle id="pivot_west_bots" cx="1" cy="11" r="1" style="fill:none"/><circle id="pivot_south_bots" cx="6" cy="21" r="1" style="fill:none"/><circle id="pivot_east_bots" cx="19" cy="10" r="1" style="fill:none"/><circle id="pivot_world_bots" cx="9" cy="10" r="1" style="fill:none"/></g></svg>