<svg id="kenya" xmlns="http://www.w3.org/2000/svg" viewBox="0 0 19 22"><title>kenya</title><g id="kenya-2" data-name="kenya"><path id="kenya-3" data-name="kenya" d="M461.61,472.61l1-1.51,1-1.47a6.31,6.31,0,0,0-1,.3.83.83,0,0,1-1-.42c-.14-.33-1.07,0-1.82.37s-1.12,1.31-1.4,1.12a9.4,9.4,0,0,0-2.43-.42,7.21,7.21,0,0,1-2.43-1.4c-.47-.42-1.82-.23-2.15-.42s-1-.33-1.21-.61-.79-.23-1.26-.14-1.59.75-1.68,1.12a.75.75,0,0,1-.27.34l1,.87.21,1.51.86.75a16.09,16.09,0,0,1-.11,1.72,5.16,5.16,0,0,1-1.4,2.48,5,5,0,0,0-.62,1.31c.82.21,1.44.52,1.39.77-.09.51-1.49.28-1.49,1.35,0,.07,0,.14,0,.21l8,4.22L454.5,486s1.79,1.31,3.53,2.51a45,45,0,0,1,2.06-4.58c.47-.72.93-.59,1.34-1.09s.53.25,1.15-.75c0-.08.11-.17.18-.26l-1-1.65Z" transform="translate(-446 -467)" style="fill:#b1f4f4;stroke:#969696;stroke-miterlimit:10;stroke-width:0.10000000149011612px"/><circle id="pivot_north_kenya" cx="4" cy="1" r="1" style="fill:none"/><circle id="pivot_west_kenya" cx="1" cy="7" r="1" style="fill:none"/><circle id="pivot_south_kenya" cx="11" cy="21" r="1" style="fill:none"/><circle id="pivot_east_kenya" cx="18" cy="11" r="1" style="fill:none"/><circle id="pivot_world_kenya" cx="9" cy="10" r="1" style="fill:none"/></g></svg>