<svg id="zimbabwe" xmlns="http://www.w3.org/2000/svg" viewBox="0 0 19 17"><title>zimbabwe</title><g id="zimbabwe-2" data-name="zimbabwe"><circle id="pivot_north_zim" cx="12" cy="1" r="1" style="fill:none"/><circle id="pivot_west_zim" cx="1" cy="6" r="1" style="fill:none"/><circle id="pivot_south_zim" cx="13" cy="16" r="1" style="fill:none"/><circle id="pivot_east_zim" cx="18" cy="9" r="1" style="fill:none"/><circle id="pivot_world_zim" cx="12" cy="8" r="1" style="fill:none"/><path id="zimbabwe-3" data-name="zimbabwe" d="M439.42,512.68l-.31-.68-1.81.06c-1.18.31-1.18.69-1.18,1.06s-1.12,1.24-1.93,1.49-1.68,2.12-2.18,2.36-2.18-.37-2.68-.43a3.87,3.87,0,0,0-1.07.16c.31.55,1,1.2,1.2,1.2s.42,2.21,1.16,2.53,2.11,1.05,2.11,1.47.84.95.84,1.58A1.75,1.75,0,0,0,435,525c1.35,0,1.49.52,1.49.89s1.77,0,2,.37,2,.21,2.39.45a29.75,29.75,0,0,0,2.14-2.13c.56-.74.09-1.77.56-2.05s1.5-1.49,1.12-1.59-.09-1-.65-1.59.65-.84.56-1.87.19-3.08-.09-3.27a12.59,12.59,0,0,1-2.43-.84A7,7,0,0,0,439.42,512.68Z" transform="translate(-427 -511)" style="fill:#b1f4f4;stroke:#969696;stroke-miterlimit:10;stroke-width:0.25px"/></g></svg>