<svg xmlns="http://www.w3.org/2000/svg" xmlns:xlink="http://www.w3.org/1999/xlink" viewBox="0 0 648.23 69.17"><defs><linearGradient id="linear-gradient" x1="318.19" y1="422.22" x2="318.19" y2="371.69" gradientTransform="translate(-2.01 0.79) rotate(-0.35)" gradientUnits="userSpaceOnUse"><stop offset="0" stop-color="#84b91f"/><stop offset="1" stop-color="#e0fb7a"/></linearGradient></defs><title>ground</title><g style="isolation:isolate"><g id="layer_3"><g id="ground"><g id="ground-2" data-name="ground"><path d="M90.47,400.79c4.71-2.88,184.35-52.8,281-34.18,6.48,1.25,14.43,2.36,19.85,6-15.15,4.06-34.66.37-50.22.15-34.61-.5-69.24.36-103.71,3.63C188.18,381,90.47,400.79,90.47,400.79Z" transform="translate(-16.69 -361.72)" style="fill:#8dcc18"/><path d="M543.35,418.46c-149.7-5.65-299.93-3.48-449.52,4C90.46,413,48,426.81,45.4,417.05c153.85-42.3,388.23-73.47,546.59-13.55C590.13,414.06,545.91,408.14,543.35,418.46Z" transform="translate(-16.69 -361.72)" style="fill:url(#linear-gradient)"/><path d="M79.76,403.07c58-10.2,115.42-23.88,172.44-35.66,77.37-16,149.63,6.17,226.71,12.2,38.11,3,71.48,11.78,118,24.85,22.36,6.21,43,11.64,62.78,23.62C488.73,419,243,415.19,72.19,425.75,76.18,414.16,77.94,421,79.76,403.07Z" transform="translate(-16.69 -361.72)" style="fill:#b6ea5a"/><path d="M599.86,411.22c-58.35-14.76-118.54-25.06-177.47-36.95C339,357.45,260.1,380.42,177.68,387c-39.59,3.18-81.26,3.24-116.76,23.63-20.51,8-30.82,12.18-44.22,18.83,181.74-6.9,466.44-5.58,648.23,0C644.13,421,615,415.52,599.86,411.22Z" transform="translate(-16.69 -361.72)" style="fill:#a3d842"/><path d="M85.19,405.66a62.84,62.84,0,0,1,27.23-12.14s-11.37,5.86-19.57,13.06c11.93-6.77,25.76-12.57,39.27-15.26-9.29,4.29-28,8.35-30.68,19.68,18.6-12.89,38.18-18.36,60.4-21.81-15,7.08-31.45,9.47-45.92,17.9C108.91,411.17,88.68,417.66,85.19,405.66Z" transform="translate(-16.69 -361.72)" style="fill:#b6ea5a;opacity:0.58"/><path d="M106.24,408.93s87.29-20.52,131.43-27.56c49.24-7.85,96.92-3.69,144.81,8.95,19.45,5.13,23.47,9.82,1.22,10.42-32.83.89-65.82-1.51-98.65-1.79C225.46,398.44,106.24,408.93,106.24,408.93Z" transform="translate(-16.69 -361.72)" style="fill:#8dcc18"/><path d="M191.55,396.58a4.1,4.1,0,0,1-.88-4.87,4.26,4.26,0,0,0-1.46,3.42,3.46,3.46,0,0,1-1.34-2.17,2.11,2.11,0,0,0-.12,1.41c-.79-1.26-3.93-1.9-3.93-1.9s3.66,1.53,2.74,3.69c-.76-1.26-3.34-1.17-3.34-1.17s2,.21,1.65,1.58a3.14,3.14,0,0,0-2.32-.75s2.52.55,1.76,2.06Z" transform="translate(-16.69 -361.72)" style="fill:#7bb314"/><path d="M196.52,396.64c1.11-2.81,5.13-4.74,5.13-4.74a16,16,0,0,0-5.21,2.81,5.29,5.29,0,0,1,1.57-2.38,7.74,7.74,0,0,0-1.79,1.3c.91-1.39-.77-2.85-.77-2.85s1,2.42-2.33,4.23c.94-1.37-1.18-2-1.18-2s1.35.73-.64,1.93a1,1,0,0,0-.89-1.31s1.31,1.17-1.15,2.4C192.15,396.28,193.61,396.4,196.52,396.64Z" transform="translate(-16.69 -361.72)" style="fill:#7bb314"/><path d="M198,396.74c1.13-2.81,5.17-4.75,5.17-4.75a16.12,16.12,0,0,0-5.24,2.81,5.33,5.33,0,0,1,1.59-2.39,7.81,7.81,0,0,0-1.8,1.3c.92-1.39-.75-2.85-.75-2.85s1,2.42-2.36,4.23c.94-1.38-1.18-2-1.18-2s1.35.73-.66,1.93a1,1,0,0,0-.88-1.31s1.31,1.17-1.17,2.4C193.62,396.37,195.08,396.49,198,396.74Z" transform="translate(-16.69 -361.72)" style="fill:#7bb314"/><path d="M203.95,394.8a4.35,4.35,0,0,1-.63-5.11,4.76,4.76,0,0,0-1.69,3.59,3.48,3.48,0,0,1-1.26-2.28,2.31,2.31,0,0,0-.2,1.48c-.74-1.33-3.94-2-3.94-2s3.68,1.62,2.62,3.89c-.72-1.32-3.36-1.24-3.36-1.24s2.08.23,1.61,1.67a3.06,3.06,0,0,0-2.34-.8s2.55.59,1.7,2.17Z" transform="translate(-16.69 -361.72)" style="fill:#7bb314"/><path d="M206.65,395.09c1.27-2.92,5.48-4.93,5.48-4.93a17.12,17.12,0,0,0-5.46,2.92,5.86,5.86,0,0,1,1.72-2.48,8.41,8.41,0,0,0-1.89,1.35c1-1.45-.65-3-.65-3s.94,2.53-2.58,4.4c1-1.43-1.12-2.05-1.12-2.05s1.34.76-.75,2a1,1,0,0,0-.85-1.37s1.28,1.22-1.28,2.5Z" transform="translate(-16.69 -361.72)" style="fill:#7bb314"/><path d="M121.71,404.81c-2.76-.78-3.21-2.43-1.09-4s6.22-2.51,9.68-2a9.2,9.2,0,0,1,5.82-.73c-.93-1.15-.18-2.66,1.94-3.79a12.61,12.61,0,0,1,7.75-1.09c2.56.48,4.08,1.76,3.81,3.12a2.41,2.41,0,0,1,1.63-.39c.61.06,1,.32.91.63a3.24,3.24,0,0,1,2.22-1.14,5.21,5.21,0,0,1,2.94.26c.72.35.92.88.51,1.37,3.21-.69,6.75-.11,7.9,1.25s-.51,2.95-3.66,3.6a8.3,8.3,0,0,1,5.15.36c1.19.63,1.1,1.58-.19,2.25q-18,1.61-35.89,3.55C127.33,406.69,125.44,406.07,121.71,404.81Z" transform="translate(-16.69 -361.72)" style="fill:#6da50e"/><path d="M316.5,379.35a6.06,6.06,0,0,0,1.38-5.18,4.6,4.6,0,0,1,.61,3.58,5.14,5.14,0,0,0,1.33-2.35,3,3,0,0,1-.11,1.5c.78-1.37,3.28-2.17,3.28-2.17s-3,1.75-2.62,4a3.35,3.35,0,0,1,2.73-1.36s-1.6.28-1.49,1.76a2.28,2.28,0,0,1,1.89-.88s-2,.66-1.64,2.27Z" transform="translate(-16.69 -361.72)" style="fill:#8dcc18"/><path d="M312.72,379.55a7.94,7.94,0,0,0-3.09-4.77,8.43,8.43,0,0,1,3.44,2.75,4.77,4.77,0,0,0-.8-2.44,4.65,4.65,0,0,1,1.14,1.29c-.47-1.43,1-3,1-3a3.7,3.7,0,0,0,1.11,4.36c-.5-1.42,1.19-2.12,1.19-2.12s-1.13.81.2,2a1.26,1.26,0,0,1,.87-1.42s-1.17,1.27.53,2.52Z" transform="translate(-16.69 -361.72)" style="fill:#8dcc18"/><path d="M311.59,379.69a7.93,7.93,0,0,0-3.1-4.76,8.43,8.43,0,0,1,3.45,2.74,4.75,4.75,0,0,0-.81-2.43,4.65,4.65,0,0,1,1.14,1.29c-.47-1.42,1-3,1-3a3.68,3.68,0,0,0,1.12,4.35c-.5-1.42,1.19-2.11,1.19-2.11s-1.13.81.21,2a1.26,1.26,0,0,1,.87-1.42s-1.17,1.27.53,2.51Z" transform="translate(-16.69 -361.72)" style="fill:#8dcc18"/><path d="M307.45,377.86a6.27,6.27,0,0,0,1.31-5.3,4.79,4.79,0,0,1,.66,3.65,5.26,5.26,0,0,0,1.3-2.42,3.13,3.13,0,0,1-.09,1.53c.77-1.41,3.25-2.25,3.25-2.25s-3,1.82-2.57,4.15a3.33,3.33,0,0,1,2.72-1.41,1.77,1.77,0,0,0-1.47,1.8,2.26,2.26,0,0,1,1.88-.92s-2,.7-1.61,2.33Z" transform="translate(-16.69 -361.72)" style="fill:#8dcc18"/><path d="M305.4,378.24a8.13,8.13,0,0,0-3.15-4.83,8.5,8.5,0,0,1,3.48,2.77,4.93,4.93,0,0,0-.83-2.48A4.73,4.73,0,0,1,306,375c-.49-1.45,1-3.08,1-3.08a3.82,3.82,0,0,0,1.16,4.43c-.52-1.44,1.17-2.17,1.17-2.17s-1.13.83.22,2.06a1.28,1.28,0,0,1,.85-1.45s-1.16,1.3.56,2.56Z" transform="translate(-16.69 -361.72)" style="fill:#8dcc18"/><path d="M306.24,380.69a5.88,5.88,0,0,0,1.3-5.1,4.48,4.48,0,0,1,.66,3.51,5,5,0,0,0,1.29-2.33,2.92,2.92,0,0,1-.09,1.47c.76-1.36,3.24-2.17,3.24-2.17s-3,1.75-2.55,4a3.35,3.35,0,0,1,2.7-1.37s-1.59.3-1.46,1.75a2.28,2.28,0,0,1,1.87-.89s-2,.67-1.6,2.26Z" transform="translate(-16.69 -361.72)" style="fill:#8dcc18"/><path d="M302.48,380.94a7.83,7.83,0,0,0-3.16-4.65,8.42,8.42,0,0,1,3.48,2.66,4.65,4.65,0,0,0-.84-2.38,4.61,4.61,0,0,1,1.15,1.25c-.49-1.4,1-3,1-3a3.59,3.59,0,0,0,1.18,4.26c-.52-1.39,1.15-2.09,1.15-2.09s-1.12.81.23,2a1.23,1.23,0,0,1,.84-1.4s-1.15,1.26.56,2.47Z" transform="translate(-16.69 -361.72)" style="fill:#8dcc18"/><path d="M301.36,381.09a7.81,7.81,0,0,0-3.16-4.63,8.42,8.42,0,0,1,3.48,2.65,4.63,4.63,0,0,0-.84-2.38A4.61,4.61,0,0,1,302,378c-.49-1.39,1-3,1-3a3.58,3.58,0,0,0,1.18,4.25c-.52-1.39,1.15-2.09,1.15-2.09s-1.12.81.24,2a1.23,1.23,0,0,1,.84-1.4s-1.15,1.26.57,2.46Z" transform="translate(-16.69 -361.72)" style="fill:#8dcc18"/><path d="M297.2,379.33a6,6,0,0,0,1.23-5.21,4.64,4.64,0,0,1,.71,3.56,5.1,5.1,0,0,0,1.26-2.38,3,3,0,0,1-.07,1.5c.74-1.39,3.21-2.24,3.21-2.24s-3,1.82-2.5,4.1a3.33,3.33,0,0,1,2.69-1.42s-1.59.32-1.44,1.79a2.26,2.26,0,0,1,1.86-.92s-2,.71-1.57,2.31Z" transform="translate(-16.69 -361.72)" style="fill:#8dcc18"/><path d="M295.16,379.73a8,8,0,0,0-3.21-4.69,8.48,8.48,0,0,1,3.51,2.67,4.78,4.78,0,0,0-.87-2.41,4.68,4.68,0,0,1,1.17,1.26c-.51-1.41.94-3,.94-3a3.69,3.69,0,0,0,1.23,4.32c-.54-1.41,1.13-2.14,1.13-2.14s-1.11.83.26,2a1.25,1.25,0,0,1,.83-1.43s-1.14,1.29.59,2.5Z" transform="translate(-16.69 -361.72)" style="fill:#8dcc18"/><path d="M113.51,405.57a2.8,2.8,0,0,1-1.25-3.52,2.9,2.9,0,0,0-.87,2.62,2.62,2.62,0,0,1-1.33-1.52,1.39,1.39,0,0,0,0,1.05c-.78-.88-3.45-1.18-3.45-1.18s3.2.94,2.6,2.55c-.75-.85-2.91-.64-2.91-.64s1.74,0,1.51,1a3.09,3.09,0,0,0-2-.39s2.18.25,1.64,1.35Z" transform="translate(-16.69 -361.72)" style="fill:#7bb314"/><path d="M117.75,405.34c.6-2.05,3.69-3.72,3.69-3.72a13.06,13.06,0,0,0-4,2.34,3.52,3.52,0,0,1,1-1.84,5.8,5.8,0,0,0-1.33,1.05c.59-1.07-1-2.1-1-2.1s1.19,1.78-1.45,3.27c.64-1-1.22-1.38-1.22-1.38s1.22.47-.33,1.46c.14-.85-.89-.91-.89-.91s1.24.78-.73,1.81C114,405.32,115.23,405.32,117.75,405.34Z" transform="translate(-16.69 -361.72)" style="fill:#7bb314"/><path d="M119,405.33c.6-2.05,3.7-3.71,3.7-3.71a13,13,0,0,0-4,2.33,3.49,3.49,0,0,1,1-1.83,5.79,5.79,0,0,0-1.34,1.05c.59-1.07-1-2.1-1-2.1s1.2,1.77-1.45,3.26c.64-1-1.22-1.38-1.22-1.38s1.23.47-.33,1.45c.14-.85-.89-.91-.89-.91s1.24.79-.73,1.81C115.24,405.3,116.5,405.31,119,405.33Z" transform="translate(-16.69 -361.72)" style="fill:#7bb314"/><path d="M123.82,403.64a3.11,3.11,0,0,1-1.32-3.78,3.07,3.07,0,0,0-.87,2.78,2.9,2.9,0,0,1-1.39-1.65,1.54,1.54,0,0,0,0,1.12c-.81-1-3.56-1.32-3.56-1.32s3.3,1.06,2.71,2.77c-.79-.93-3-.74-3-.74s1.78.07,1.57,1.14a3.1,3.1,0,0,0-2.07-.46s2.23.3,1.7,1.48Z" transform="translate(-16.69 -361.72)" style="fill:#7bb314"/><path d="M126.16,403.72c.6-2.16,3.75-3.88,3.75-3.88a12.86,12.86,0,0,0-4.07,2.42,3.65,3.65,0,0,1,1-1.93,5.78,5.78,0,0,0-1.36,1.1c.6-1.13-1-2.23-1-2.23s1.22,1.89-1.46,3.43c.64-1.1-1.25-1.48-1.25-1.48s1.25.51-.33,1.54c.14-.89-.91-1-.91-1s1.27.85-.73,1.91C122.32,403.65,123.59,403.67,126.16,403.72Z" transform="translate(-16.69 -361.72)" style="fill:#7bb314"/><path d="M101.69,406.69a3.22,3.22,0,0,1-1.34-4.06s-1.49,1.49-1,3.08A2.83,2.83,0,0,1,97.83,404a1.68,1.68,0,0,0,0,1.23c-.86-1-3.87-1.3-3.87-1.3s3.59,1.05,2.86,2.89c-.83-.95-3.27-.65-3.27-.65s2,0,1.68,1.14A3.43,3.43,0,0,0,93,406.9s2.46.23,1.8,1.47Z" transform="translate(-16.69 -361.72)" style="fill:#7bb314"/><path d="M106.53,406.33c.73-2.33,4.26-4.37,4.26-4.37a15.87,15.87,0,0,0-4.58,2.8,4.37,4.37,0,0,1,1.17-2.16,7,7,0,0,0-1.53,1.26c.69-1.26-1.11-2.46-1.11-2.46s1.33,2.09-1.7,3.87c.74-1.22-1.35-1.57-1.35-1.57s1.38.53-.41,1.7c.18-1-1-1-1-1s1.39.89-.87,2.1C102.24,406.39,103.66,406.37,106.53,406.33Z" transform="translate(-16.69 -361.72)" style="fill:#7bb314"/><path d="M108,406.29c.72-2.33,4.27-4.35,4.27-4.35a15.83,15.83,0,0,0-4.59,2.79,4.32,4.32,0,0,1,1.18-2.15,7,7,0,0,0-1.53,1.25c.69-1.26-1.12-2.45-1.12-2.45s1.34,2.09-1.7,3.85c.74-1.21-1.36-1.57-1.36-1.57s1.39.53-.41,1.69c.18-1-1-1-1-1s1.4.89-.87,2.1C103.67,406.34,105.1,406.32,108,406.29Z" transform="translate(-16.69 -361.72)" style="fill:#7bb314"/><path d="M113.48,404.27a3.68,3.68,0,0,1-1.48-4.42,3.84,3.84,0,0,0-1,3.31,3.27,3.27,0,0,1-1.56-1.92,1.89,1.89,0,0,0,0,1.33c-.91-1.11-4-1.51-4-1.51s3.74,1.23,3,3.21c-.88-1.05-3.4-.8-3.4-.8s2,.05,1.77,1.29a3.45,3.45,0,0,0-2.35-.49s2.54.31,1.91,1.66Z" transform="translate(-16.69 -361.72)" style="fill:#7bb314"/><path d="M116.16,404.32c.7-2.49,4.31-4.6,4.31-4.6a15.33,15.33,0,0,0-4.66,2.91,4.5,4.5,0,0,1,1.17-2.29,6.9,6.9,0,0,0-1.55,1.32c.69-1.34-1.17-2.65-1.17-2.65s1.39,2.26-1.68,4.1c.74-1.29-1.42-1.71-1.42-1.71s1.42.59-.39,1.81c.17-1-1-1.13-1-1.13s1.44,1-.85,2.24C111.77,404.31,113.22,404.31,116.16,404.32Z" transform="translate(-16.69 -361.72)" style="fill:#7bb314"/><path d="M583.69,413.25c-1.94,3.15-2.92,3-4.83,10.13-161.55-7.13-396-2.79-557.46,5.14,21.57-7.79,29.66-11.84,67.13-20.4,81.07-12.46,163.44-19.61,245-27.68,9.73-1,19.5-1.85,29.23-2.64,10.22-.83,20.52-1.5,30.77-1.9,7-.27,13.92-.42,20.74-.39,6.58,0,13.15.16,19.53.6,35.23,2.45,69.51,10.67,103.17,21.76,9.48,3.12,19,6.45,28.49,9.6C571.41,409.45,577.47,411.39,583.69,413.25Z" transform="translate(-16.69 -361.72)" style="fill:#7bb314"/><path d="M251.91,397c55.31-1.34,109.12,5.22,163,17.4,32.82,7.42,65.63,9.77,99.63,8.75,6.64-.2,82.35,7.56,70.34-3.95C474.2,410.79,363.1,383.62,251.91,397Z" transform="translate(-16.69 -361.72)" style="fill:#5f9e1f"/><g style="opacity:0.55;mix-blend-mode:multiply"><path d="M98.34,425.13q63.73-6,127.31-13.3c-8-.1-12.72,0-21.12.08,37.4-4.53,74.8-8.64,112.37-11.56q-35.29-.37-70.51.79c-75.14,6.78-150.4,15.11-225,26.54v2.15Q59.85,427.09,98.34,425.13Z" transform="translate(-16.69 -361.72)" style="fill:#93a6ae"/><path d="M21.4,427.51c74.33-12.77,149.82-20.46,225-26.36-75,8.67-150,18.39-225,27.38Z" transform="translate(-16.69 -361.72)" style="fill:#d3d7d2"/><path d="M41.3,428.45q72.87-6.83,145.56-15.26c-6.77-.07-10.14-.09-16.81-.08,44.73-4.78,89.36-9.82,134.25-12.87,5,0,7.55.05,12.59.13-37.57,2.92-75,7-112.37,11.56,8.41-.07,13.16-.19,21.12-.08q-63.59,7.33-127.31,13.3Q69.81,426.62,41.3,428.45Z" transform="translate(-16.69 -361.72)" style="fill:#889dab;opacity:0.30000000000000004;mix-blend-mode:multiply"/><path d="M40.16,424C71,418.73,102,414.56,133.1,410.91l-2.15-.15c-34.53,4.18-68.88,9.06-103.09,15.4C32.77,425.24,35.22,424.8,40.16,424Z" transform="translate(-16.69 -361.72)" style="fill:#5d7985"/><path d="M133.53,410.45l1.85.13c5.82-.67,8.76-1,14.73-1.67l-2.77,0C141.75,409.54,139,409.84,133.53,410.45Z" transform="translate(-16.69 -361.72)" style="fill:#5d7985"/><path d="M152.71,408.65c11.59-1.32,34.79-3.87,34.79-3.87s-25.22,2.5-37.83,3.83Z" transform="translate(-16.69 -361.72)" style="fill:#5d7985"/></g><path d="M583.22,414c-.52.8-.78,1.15-1.31,2-35.16-3.2-69.82-6.47-104.4-13.92-38.34-8.26-75.75-19.18-114.74-24.24,10.23-.85,20.51-1.51,30.77-1.9,6,1.54,11.83,3.32,17.55,5.32C466,400.45,526.2,403.6,583.22,414Z" transform="translate(-16.69 -361.72)" style="fill:#8dcc18;opacity:0.53"/><path d="M565.48,407.48l-.24.52c-51.76-6.69-100.86-18-150.94-32.49,6.58,0,13.08.22,19.53.6C468,384.51,502.56,390.8,537,397.88,546.5,401.05,556,404.32,565.48,407.48Z" transform="translate(-16.69 -361.72)" style="fill:#8dcc18;opacity:0.53"/><path d="M197.6,420.09c88.34-13.53,176.59-30.39,266.33-22.52,58.51,5.13,119.27,17,176.08,32.06C492.55,426.48,345.15,416.76,197.6,420.09Z" transform="translate(-16.69 -361.72)" style="fill:#337809"/><path d="M563.2,416.56c-1.07-2.91,3.19-3.94,3.19-3.94s-3.74.31-5.21,2a1.56,1.56,0,0,1,.12-2.08s-1.28.47-1.5,1c.07-1.24-3.83-2.74-3.83-2.74s3.87,2.15.34,3.92c.15-1.41-3.7-2.08-3.7-2.08s2.79.73.8,2c-.59-1.23-2.62-1.43-2.62-1.43s3.17,1.16.43,2.66C556,416.13,558.42,416.26,563.2,416.56Z" transform="translate(-16.69 -361.72)" style="fill:#337809"/><path d="M570.38,417.94c4.11-2.27,11.16-1.86,11.16-1.86a39.85,39.85,0,0,0-9.58.27,12.39,12.39,0,0,1,4.19-1.08,24.55,24.55,0,0,0-3.58.27c2.46-.65,1.27-1.9,1.27-1.9s-.42,1.55-6.89,2c2.59-.82.07-1.77.07-1.77s1.32.83-2.67,1.22c1.51-.82-.07-1.25-.07-1.25s.87,1.18-3.93,1.6C564.35,416.47,566.36,417,570.38,417.94Z" transform="translate(-16.69 -361.72)" style="fill:#337809"/><path d="M572.44,418.4c4.09-2.28,11.13-1.85,11.13-1.85a39.71,39.71,0,0,0-9.56.26,12.25,12.25,0,0,1,4.17-1.07,24.62,24.62,0,0,0-3.57.27c2.45-.64,1.24-1.86,1.24-1.86s-.4,1.5-6.86,2c2.58-.81.06-1.74.06-1.74s1.32.81-2.66,1.2c1.51-.82-.08-1.24-.08-1.24s.87,1.16-3.91,1.59C566.41,417,568.42,417.44,572.44,418.4Z" transform="translate(-16.69 -361.72)" style="fill:#337809"/><path d="M582.57,418.35c-1.23-2.27,2.83-2.77,2.83-2.77s-3.6,0-4.93,1.23c-.85-1,0-1.55,0-1.55s-1.21.29-1.4.7c0-.93-3.89-2.25-3.89-2.25s3.91,1.76.54,3c.07-1.09-3.73-1.75-3.73-1.75s2.77.65.88,1.58c-.64-1-2.64-1.22-2.64-1.22s3.17,1,.54,2.13C575.5,417.8,577.87,418,582.57,418.35Z" transform="translate(-16.69 -361.72)" style="fill:#337809"/><path d="M586.19,419.2c3.92-1.68,10.78-.94,10.78-.94a45.88,45.88,0,0,0-9.33-.25,13.32,13.32,0,0,1,4-.62,29.19,29.19,0,0,0-3.47,0c2.36-.38,1.09-1.35,1.09-1.35s-.27,1.08-6.59,1.21c2.5-.54,0-1.36,0-1.36s1.35.67-2.55.84c1.44-.59-.14-1-.14-1s.92.93-3.77,1.13C580.18,417.87,582.18,418.32,586.19,419.2Z" transform="translate(-16.69 -361.72)" style="fill:#337809"/><path d="M480.86,404.18c-1.08-4.65,3.47-7.59,3.47-7.59s-4,1.38-5.59,4.48a4.65,4.65,0,0,1,.11-3.82,5,5,0,0,0-1.6,2.09c.06-2.25-4.17-4.59-4.17-4.59s4.18,3.78.49,6.93c.12-2.32-4-3.2-4-3.2s3,1.1.92,3.24a3.49,3.49,0,0,0-2.83-2.15s3.39,1.81.57,4.16C473.3,403.88,475.83,404,480.86,404.18Z" transform="translate(-16.69 -361.72)" style="fill:#337809"/><path d="M488.38,406c4.47-3.91,12.12-4.74,12.12-4.74a31.79,31.79,0,0,0-10.35,1.87,13.09,13.09,0,0,1,4.59-2.7,18.24,18.24,0,0,0-3.88,1.09,3.3,3.3,0,0,0,1.5-4.22s-.62,3.61-7.52,5c2.78-1.69.13-3.32.13-3.32s1.37,1.53-2.88,2.59c1.62-1.6-.06-2.29-.06-2.29s.88,2.18-4.18,3.21C482.09,404,484.2,404.65,488.38,406Z" transform="translate(-16.69 -361.72)" style="fill:#337809"/><path d="M490.52,406.65c4.47-3.9,12.11-4.69,12.11-4.69a31.84,31.84,0,0,0-10.33,1.84,13,13,0,0,1,4.59-2.67A18.33,18.33,0,0,0,493,402.2a3.23,3.23,0,0,0,1.51-4.15s-.63,3.54-7.52,5c2.78-1.68.14-3.28.14-3.28s1.36,1.5-2.88,2.56c1.63-1.59-.05-2.27-.05-2.27s.88,2.15-4.19,3.18C484.25,404.61,486.35,405.3,490.52,406.65Z" transform="translate(-16.69 -361.72)" style="fill:#337809"/><path d="M501.26,405.87c-1-4.17,3.57-6.72,3.57-6.72s-4,1.15-5.6,3.9a3.86,3.86,0,0,1,.2-3.44,4.61,4.61,0,0,0-1.62,1.84c.11-2-4-4.25-4-4.25s4,3.52.31,6.28c.18-2.09-3.86-3-3.86-3s2.92,1.06.83,2.95a3.43,3.43,0,0,0-2.74-2s3.3,1.69.45,3.77C493.8,405.46,496.29,405.59,501.26,405.87Z" transform="translate(-16.69 -361.72)" style="fill:#337809"/><path d="M505,407.14c4.48-3.47,12-4,12-4a33.54,33.54,0,0,0-10.25,1.47,13.21,13.21,0,0,1,4.57-2.36,19.13,19.13,0,0,0-3.85.91A2.88,2.88,0,0,0,509,399.3s-.65,3.28-7.5,4.45c2.78-1.49.18-3,.18-3s1.33,1.42-2.89,2.31c1.63-1.43,0-2.1,0-2.1s.84,2-4.2,2.87C498.79,405.17,500.86,405.84,505,407.14Z" transform="translate(-16.69 -361.72)" style="fill:#337809"/><path d="M367.17,404.81c-4.56-6-2.86-11-2.86-11a8.88,8.88,0,0,0-1.48,7.44,11,11,0,0,1-2.89-5,5.93,5.93,0,0,0,.2,3.13c-1.7-2.92-7.25-4.45-7.25-4.45s6.68,3.36,5.73,8.6c-1.65-3.1-6-3-6-3s3.54.49,3.27,3.91c-2.05-2.36-4.17-2-4.17-2s4.45,1.32,3.59,5.29C360,406.59,362.4,406,367.17,404.81Z" transform="translate(-16.69 -361.72)" style="fill:#337809"/><path d="M375.5,405.18c1.08-6.7,7.17-10.13,7.17-10.13a17.44,17.44,0,0,0-7.83,5.65,9.23,9.23,0,0,1,1.93-5,9.81,9.81,0,0,0-2.6,2.63c1.12-3-2.1-6-2.1-6s2.44,5-2.69,8.92c1.18-3.1-2.55-4.45-2.55-4.45s2.48,1.6-.53,4.26a2.56,2.56,0,0,0-1.87-3s2.55,2.61-1.26,5.47C368.11,404.13,370.58,404.48,375.5,405.18Z" transform="translate(-16.69 -361.72)" style="fill:#337809"/><path d="M378,405.47c1.11-6.7,7.21-10.11,7.21-10.11a17.44,17.44,0,0,0-7.85,5.63,9.23,9.23,0,0,1,1.95-5,9.83,9.83,0,0,0-2.61,2.63c1.13-3-2.07-6-2.07-6s2.42,5-2.73,8.9c1.19-3.1-2.53-4.45-2.53-4.45s2.47,1.6-.55,4.26a2.55,2.55,0,0,0-1.86-3s2.53,2.61-1.28,5.47C370.6,404.41,373.07,404.76,378,405.47Z" transform="translate(-16.69 -361.72)" style="fill:#337809"/><path d="M387.29,401.34c-4.4-5.7-2.52-10.57-2.52-10.57a8.48,8.48,0,0,0-1.72,7.14,10,10,0,0,1-2.74-4.81,5.49,5.49,0,0,0,.1,3c-1.61-2.83-7.13-4.45-7.13-4.45s6.59,3.43,5.47,8.36c-1.56-3-6-2.92-6-2.92s3.54.55,3.16,3.77a4.89,4.89,0,0,0-4.12-1.92s4.43,1.34,3.45,5C380.06,402.88,382.47,402.35,387.29,401.34Z" transform="translate(-16.69 -361.72)" style="fill:#337809"/><path d="M391.79,402.13c1.24-6.29,7.43-9.55,7.43-9.55a18,18,0,0,0-8,5.3,8.9,8.9,0,0,1,2.06-4.82,9.9,9.9,0,0,0-2.68,2.5c1.2-2.83-1.95-5.92-1.95-5.92s2.32,4.91-2.93,8.6c1.26-2.94-2.44-4.32-2.44-4.32s2.44,1.6-.65,4.1a2.47,2.47,0,0,0-1.8-2.92s2.49,2.56-1.41,5.22C384.41,401,386.87,401.39,391.79,402.13Z" transform="translate(-16.69 -361.72)" style="fill:#337809"/><path d="M542.23,412.8c-1.13-3.85,4-5.63,4-5.63s-4.51.67-6.34,3a2.62,2.62,0,0,1,.25-3s-1.55.72-1.85,1.51c.15-1.76-4.47-3.9-4.47-3.9s4.53,3.16.25,5.58c.23-1.91-4.34-2.82-4.34-2.82s3.3,1,.88,2.72c-.66-1.66-3.08-1.93-3.08-1.93s3.73,1.58.43,3.57C533.72,412.26,536.56,412.42,542.23,412.8Z" transform="translate(-16.69 -361.72)" style="fill:#337809"/><path d="M550.68,414.58c5-3,13.47-2.69,13.47-2.69a43.77,43.77,0,0,0-11.48.55,14.89,14.89,0,0,1,5.1-1.62,26.38,26.38,0,0,0-4.3.47c3-1,1.67-2.89,1.67-2.89s-.65,2.41-8.4,3.12c3.14-1.15.2-2.5.2-2.5s1.52,1.19-3.27,1.77c1.85-1.15,0-1.76,0-1.76s1,1.67-4.77,2.28C543.61,412.67,546,413.32,550.68,414.58Z" transform="translate(-16.69 -361.72)" style="fill:#337809"/><path d="M553.1,415.18c5-3,13.42-2.65,13.42-2.65a43.74,43.74,0,0,0-11.45.53,14.74,14.74,0,0,1,5.08-1.57,26.57,26.57,0,0,0-4.29.45c3-.95,1.65-2.8,1.65-2.8s-.63,2.32-8.36,3c3.13-1.13.19-2.45.19-2.45s1.52,1.16-3.25,1.73c1.85-1.13,0-1.73,0-1.73s1,1.63-4.76,2.24C546,413.3,548.39,413.94,553.1,415.18Z" transform="translate(-16.69 -361.72)" style="fill:#337809"/><path d="M565.15,415.09c-1.25-3,3.71-4.15,3.71-4.15s-4.34.28-6.06,2a1.68,1.68,0,0,1,.14-2.3s-1.49.49-1.75,1.1c.09-1.37-4.46-3.3-4.46-3.3s4.51,2.69.38,4.46c.17-1.5-4.31-2.41-4.31-2.41s3.26.92.92,2.21c-.68-1.35-3.06-1.66-3.06-1.66s3.7,1.38.49,2.9C556.78,414.38,559.58,414.6,565.15,415.09Z" transform="translate(-16.69 -361.72)" style="fill:#337809"/><path d="M569.37,416.2c4.83-2.23,13-1.5,13-1.5a49.53,49.53,0,0,0-11.16-.12,15.72,15.72,0,0,1,4.9-1,30.33,30.33,0,0,0-4.17.17c2.88-.63,1.5-2.2,1.5-2.2s-.5,1.83-8.07,2.11c3-.8.11-2,.11-2s1.53,1-3.14,1.3c1.78-.86-.07-1.43-.07-1.43s1,1.37-4.62,1.68C562.35,414.45,564.68,415,569.37,416.2Z" transform="translate(-16.69 -361.72)" style="fill:#337809"/><path d="M318.78,384c-2-.62-1.32-2.66-.72-3.88a9.62,9.62,0,0,1,.51-.9s-3.2,3.09-2.54,4.34a1.66,1.66,0,0,1-.64-.63,3.48,3.48,0,0,0,.43-.47c1-1.26-.43-2,1.59-2.8a1.9,1.9,0,0,0-.56.12,1.59,1.59,0,0,0-1,1,4.31,4.31,0,0,1-.67,1.23,5.06,5.06,0,0,1,.61-2c.38-.76.2-1.13,0-1.31a1,1,0,0,0-.48-.16c1.38,1-1,2.06-1.23,3.72a1.83,1.83,0,0,0,0,.78,5.09,5.09,0,0,1-1.07.47c1.57-.95.88-3.29.88-3.29a4.13,4.13,0,0,1-.19.68,4.55,4.55,0,0,1-1.23,1.82,3.29,3.29,0,0,1,.39-1.45,6.25,6.25,0,0,1,.33-.59s-1.77,1.76-1.71,2.57a2.55,2.55,0,0,1-.24-.26l.17-.2c.64-.82-.29-1.32,1-1.82a1.25,1.25,0,0,0-.36.08,1,1,0,0,0-.64.63,2.8,2.8,0,0,1-.43.8,3.25,3.25,0,0,1,.39-1.31c.24-.49.13-.73,0-.84a.64.64,0,0,0-.31-.1c.61.45.11.9-.33,1.48a4.57,4.57,0,0,1,.18-1.85,6.57,6.57,0,0,1,.36-.94s-2.53,2.73-2.07,4.06l-.22.18a2.81,2.81,0,0,1-.49-.43,4.09,4.09,0,0,0,.69-1.05c1.15-2.28-1.09-3.85,1.68-5.18a2,2,0,0,0-.79.19,2.2,2.2,0,0,0-1.22,1.8,7.27,7.27,0,0,1-1,2.8,4.4,4.4,0,0,1,.2-1.72,1.09,1.09,0,0,0-.46-1.41,1.71,1.71,0,0,0-.65-.2c2,1.19-.57,2.16-.37,3.93a2.27,2.27,0,0,0,.15.67,5.31,5.31,0,0,1-1.3.76l0,0c1.89-1.66.4-6,.4-6a9.18,9.18,0,0,1-.11,1.29A7.26,7.26,0,0,1,304,382a5.48,5.48,0,0,1-.76-2,6.42,6.42,0,0,1-.09-.92s-.8,2.63-.12,3.82l-.3.19-.24-.17a1.69,1.69,0,0,0,.11-.49c.14-1.29-1.77-1.92-.29-2.82a1.3,1.3,0,0,0-.47.16.79.79,0,0,0-.33,1,3.11,3.11,0,0,1,.15,1.23,5.07,5.07,0,0,1-.74-2,1.5,1.5,0,0,0-.89-1.25,1.43,1.43,0,0,0-.57-.11c2,.87.39,2.05,1.23,3.67a2.87,2.87,0,0,0,.51.74,2.42,2.42,0,0,1-.74.54c.9-1-1.31-3.22-1.31-3.22a4.51,4.51,0,0,1,.26.67,2.25,2.25,0,0,1-1.53,3.09s.77-.05,1.41-.11c.14,0,.42,0,.93-.11a8,8,0,0,0,1-.2h0c.35,0,1.16.06,1.9.08H304c.58,0,.9,0,1,0,.7,0,1.51-.12,1.51-.12l-.21,0a5.1,5.1,0,0,0,1.16-.35,4.2,4.2,0,0,0,.59.21,3.72,3.72,0,0,1-.47.13h1c.32.07.69.12,1.11.17.71.08,1.11.11,1.29.12.89.06,1.92.09,1.92.09a4.56,4.56,0,0,1-.68-.26h1l-.16-.06.49-.07a5.56,5.56,0,0,0,.75-.18,2.2,2.2,0,0,0,.77.32,6.67,6.67,0,0,0,1.06.16c.56,0,.87.06,1,.05C317.95,384,318.78,384,318.78,384Z" transform="translate(-16.69 -361.72)" style="fill:#7bb314"/><path d="M247.34,391.32c-3.81-.81-3-4.35-2.11-6.56a16.56,16.56,0,0,1,.77-1.66s-5.31,5.78-3.83,7.81a3.19,3.19,0,0,1-1.31-1,5.67,5.67,0,0,0,.7-.85c1.58-2.26-1.22-3.39,2.38-5a3.69,3.69,0,0,0-1,.29,2.77,2.77,0,0,0-1.64,1.83,6.81,6.81,0,0,1-1,2.19,8,8,0,0,1,.71-3.54c.55-1.37.15-2-.35-2.27a1.89,1.89,0,0,0-.92-.21c2.76,1.59-1.38,3.74-1.52,6.58a2.83,2.83,0,0,0,.14,1.31,9.38,9.38,0,0,1-1.88.94c2.69-1.8.95-5.67.95-5.67a6.49,6.49,0,0,1-.21,1.19,7.2,7.2,0,0,1-1.9,3.25,5,5,0,0,1,.41-2.48,9.92,9.92,0,0,1,.49-1s-2.9,3.23-2.63,4.56a4.83,4.83,0,0,1-.49-.39c.1-.12.19-.24.27-.36,1-1.46-.82-2.15,1.51-3.2a2.47,2.47,0,0,0-.66.19,1.76,1.76,0,0,0-1.06,1.17,4.31,4.31,0,0,1-.63,1.4,4.92,4.92,0,0,1,.44-2.25c.35-.86.08-1.25-.24-1.41a1.28,1.28,0,0,0-.6-.12c1.22.66.39,1.5-.3,2.53a7,7,0,0,1-.06-3.14,10.75,10.75,0,0,1,.47-1.68s-4.11,5-3,7.14c-.11.11-.24.22-.38.32a5.48,5.48,0,0,1-1-.62,6.32,6.32,0,0,0,1.05-1.84c1.64-4-2.82-6.28,2-9.19a3.74,3.74,0,0,0-1.42.49,3.88,3.88,0,0,0-1.9,3.37,11.25,11.25,0,0,1-1.26,4.89,6.66,6.66,0,0,1,0-2.9,1.85,1.85,0,0,0-1.14-2.32,3.37,3.37,0,0,0-1.23-.23c4,1.67-.6,3.79.13,6.65a3.49,3.49,0,0,0,.42,1.07,9.46,9.46,0,0,1-2.22,1.44l-.08,0c3.12-3-.52-10.1-.52-10.1a15.18,15.18,0,0,1,.05,2.23,9.47,9.47,0,0,1-2.22,6.17,7.92,7.92,0,0,1-2-3.13,8.23,8.23,0,0,1-.38-1.5s-1.14,4.5.55,6.24l-.59.37-.55-.22a2.11,2.11,0,0,0,.11-.8c0-2.09-4.22-2.65-1.23-4.51a3.4,3.4,0,0,0-1,.38,1.16,1.16,0,0,0-.48,1.74,4,4,0,0,1,.61,1.94,7.4,7.4,0,0,1-2-3,2.81,2.81,0,0,0-2.2-1.83,3.91,3.91,0,0,0-1.25,0c4.51.94,1.33,3.25,3.51,5.63a5.21,5.21,0,0,0,1.25,1.06,4.84,4.84,0,0,1-1.4,1c1.62-1.8-3.57-4.8-3.57-4.8a7,7,0,0,1,.73,1c.8,1.38,1.47,3.8-2.35,5.14,0,0,1.56-.22,2.88-.45.28,0,.86-.14,1.9-.36a20.78,20.78,0,0,0,2-.52h0c.73,0,2.45-.14,4-.25.26,0,.72,0,1.44-.12l.29,0c1.22-.12,1.8-.19,2.06-.24,1.28-.18,2.75-.42,2.75-.42l-.4,0a9.88,9.88,0,0,0,2.05-.74,8.89,8.89,0,0,0,1.14.26,7.25,7.25,0,0,1-.83.28s.93-.07,1.73-.14h.09c.6.06,1.29.1,2.08.12,1.33,0,2.07,0,2.41,0,1.64,0,3.57-.11,3.57-.11a9.64,9.64,0,0,1-1.3-.34h.07c.85-.05,1.84-.14,1.84-.14l-.3-.08.89-.18a10.8,10.8,0,0,0,1.34-.39,4.55,4.55,0,0,0,1.49.44,14,14,0,0,0,2,.13c1,0,1.63,0,1.91,0C245.79,391.45,247.34,391.32,247.34,391.32Z" transform="translate(-16.69 -361.72)" style="fill:#7bb314"/></g><circle id="pivot_ground" cx="323.03" cy="60.08" r="9.09" style="fill:none"/></g></g></g></svg>