<svg xmlns="http://www.w3.org/2000/svg" viewBox="0 0 85.83 74.65"><title>turbine_blades_2</title><g style="isolation:isolate"><g id="turbine_blades_2"><g id="turbine_blades_2-2" data-name="turbine_blades_2"><g id="turbine_blades_2-3" data-name="turbine_blades_2"><rect x="41.74" y="45.22" width="1.93" height="1.93" style="fill:#414c53"/><polygon points="44.34 45.22 41.06 45.22 41.08 44.11 41.12 42.18 41.45 25.79 41.5 23.07 41.83 7.07 41.85 5.5 41.89 3.82 41.92 2.25 41.97 0 42.79 0 42.87 2.25 42.92 3.82 42.98 5.5 43.04 7.07 43.5 20.69 43.96 33.94 44.31 44.11 44.34 45.22" style="fill:#c9ccd5"/><path d="M315,189l0,2.25,0,1.57,0,1.68,0,1.57-.32,16-.05,2.72-.33,16.39c-.15-4.16-1.47-6.51-2.37-7.65a3.07,3.07,0,0,1-.67-2.3l.74-6.15.48-4,1.81-15,.19-1.57.2-1.68.19-1.57Z" transform="translate(-273.04 -189.03)" style="fill:#e5e6ea"/><polygon points="42.92 3.82 41.5 3.82 41.7 2.25 42.87 2.25 42.92 3.82" style="fill:#ed403b"/><polygon points="43.04 7.07 41.11 7.07 41.3 5.5 42.98 5.5 43.04 7.07" style="fill:#ed403b"/><polygon points="44.34 45.22 41.06 45.22 41.08 44.11 44.31 44.11 44.34 45.22" style="fill:#ed403b"/><rect x="312.08" y="238.93" width="1.93" height="1.93" transform="translate(-10.55 442) rotate(-120.1)" style="fill:#414c53"/><polygon points="40 52.76 39.02 53.29 37.33 54.23 22.93 62.19 21.03 63.24 6.61 71.22 5.24 72 5.23 72 3.76 72.8 2.38 73.56 0.42 74.65 0 73.94 1.91 72.74 3.24 71.91 4.67 71.02 6 70.18 19.25 61.88 23.04 59.51 23.04 59.51 37.4 50.51 38.34 49.92 38.68 50.51 39.66 52.17 40 52.76" style="fill:#c9ccd5"/><path d="M310.38,243.26c-3.53,2.22-4.9,4.54-5.43,5.89a3,3,0,0,1-1.57,1.71l-.08,0-11,4.73L280,260.88l-1.45.62-1.56.67-1.45.61-2.08.89,2-1.09,1.38-.76,1.47-.81h0l1.37-.77,14.43-8,1.9-1.05Z" transform="translate(-273.04 -189.03)" style="fill:#e5e6ea"/><polygon points="3.24 71.91 3.95 73.14 2.5 73.76 1.91 72.74 3.24 71.91" style="fill:#ed403b"/><polygon points="6 70.18 6.96 71.85 5.51 72.47 4.67 71.02 6 70.18" style="fill:#ed403b"/><polygon points="38.35 49.92 39.99 52.76 39.02 53.29 37.41 50.51 38.35 49.92" style="fill:#ed403b"/><rect x="317.48" y="238.92" width="1.93" height="1.93" transform="translate(411.93 -106.01) rotate(119.84)" style="fill:#414c53"/><polygon points="45.42 52.75 47.05 49.9 48 50.47 49.66 51.47 79.76 69.55 81.11 70.36 82.55 71.22 83.89 72.03 85.82 73.19 85.41 73.91 83.42 72.85 82.04 72.12 80.55 71.33 79.16 70.6 46.39 53.27 45.42 52.75" style="fill:#c9ccd5"/><path d="M358.87,262.22l-1.94-1.16-1.34-.81-1.45-.87-1.35-.81-15-9-1.94-1.17h0l-13.18-7.93c3.69,1.94,6.38,2,7.81,1.75a3.1,3.1,0,0,1,2.33.55l3.1,2.31,4.46,3.33L353.16,258l1.27.95,1.36,1,1.26,1Z" transform="translate(-273.04 -189.03)" style="fill:#e5e6ea"/><polygon points="82.04 72.12 82.74 70.89 84.01 71.83 83.42 72.85 82.04 72.12" style="fill:#ed403b"/><polygon points="79.16 70.6 80.12 68.93 81.38 69.88 80.55 71.33 79.16 70.6" style="fill:#ed403b"/><polygon points="45.42 52.75 47.05 49.9 48 50.47 46.39 53.27 45.42 52.75" style="fill:#ed403b"/><path d="M318.86,238.33a3.11,3.11,0,1,1-5.38-2.15,3.12,3.12,0,0,1,5.38,2.15Z" transform="translate(-273.04 -189.03)" style="fill:#c9ccd5"/><path d="M317.83,240.63a3.12,3.12,0,0,1-4.35-4.45C312.86,239,314.74,241.08,317.83,240.63Z" transform="translate(-273.04 -189.03)" style="fill:#c9ccd5;mix-blend-mode:multiply"/><path d="M317,223c-.54-3-1.33-6.66-2.51-8.15-.73-.91-1.59-1-2.64.3l.48-4c.81,1,1.55,1.23,2.21,1a4.35,4.35,0,0,0,2-2.38Z" transform="translate(-273.04 -189.03)" style="fill:#e1e3e8;mix-blend-mode:multiply"/><path d="M303.38,250.86l-.08,0-11,4.73a6.58,6.58,0,0,0,1.81-3.35c0-.74-.5-1.24-1.78-1.37l3.78-2.37c-.53,1.29-.5,2.15-.11,2.68C297,252.61,300.47,251.83,303.38,250.86Z" transform="translate(-273.04 -189.03)" style="fill:#e1e3e8;mix-blend-mode:multiply"/><path d="M338.46,252.36c-.67-1.07-1-2.06-.63-2.78s1.09-1,2.58-1.15l-4.46-3.33c1.12,2,.91,3-.05,3.31h0c-1.38.51-4.27-.23-7-1.14h0Z" transform="translate(-273.04 -189.03)" style="fill:#e1e3e8;mix-blend-mode:multiply"/><path d="M318,236.51a1.21,1.21,0,0,1-.06,1.67c-.46.32-.45-.4-.87-1s-1.12-.86-.66-1.18A1.21,1.21,0,0,1,318,236.51Z" transform="translate(-273.04 -189.03)" style="fill:#e5e6ea"/></g><circle id="pivot_blade_centre_2" cx="42.7" cy="49.3" r="3.11" style="fill:none"/></g></g></g></svg>