<svg xmlns="http://www.w3.org/2000/svg" viewBox="0 0 42.56 131.66"><title>turbine_mast_2</title><g style="isolation:isolate"><g id="layer_2"><g id="turbine_mast_2"><g id="turbine_mast_2-2" data-name="turbine_mast_2"><ellipse cx="21.28" cy="130.56" rx="21.28" ry="1.09" style="fill:#c9ccd5;opacity:0.4;mix-blend-mode:multiply"/><polygon points="23.49 65.49 18.82 65.49 19.11 49.2 19.51 27.61 19.95 3.99 22.36 3.99 22.57 15.96 23.44 63.07 23.49 65.49" style="fill:#c9ccd5"/><polygon points="25.13 73.57 17.18 73.57 18.82 65.49 23.49 65.49 23.83 67.16 24.77 71.8 25.13 73.57" style="fill:#e1e3e8"/><polygon points="27.04 127.21 15.26 127.21 17.17 73.57 25.13 73.57 25.29 78.1 26.89 123.09 27.04 127.21" style="fill:#c9ccd5"/><path d="M317.17,251.17c-.92,1.88-2.55,3.07-3.06,11.65h0l.44-23.62h2.41Z" transform="translate(-294.59 -235.21)" style="fill:#c9ccd5;mix-blend-mode:multiply"/><path d="M318.08,300.7h-4.67l.3-16.28c.66,12.95,2.09,15.79,4.33,13.87Z" transform="translate(-294.59 -235.21)" style="fill:#c9ccd5;mix-blend-mode:multiply"/><path d="M319.72,308.79h-8l1.64-8.09h4.67l.34,1.67c-1.63-1.44-4.49-1.65-5,1.47-.54,3.31,3.14,6.29,6,3.17Z" transform="translate(-294.59 -235.21)" style="fill:#e1e3e8;mix-blend-mode:multiply"/><path d="M321.63,362.42H309.85l1.91-53.64h8l.16,4.53c-1-4.76-6.21-5.17-7.2-1.5-1.17,4.34-1.12,22.67,0,32.07,1,8.56,3.57,16.18,8.8,14.42Z" transform="translate(-294.59 -235.21)" style="fill:#c9ccd5;mix-blend-mode:multiply"/><rect x="13.75" y="127.21" width="14.8" height="1.17" style="fill:#c9ccd5"/><rect x="13.23" y="128.38" width="15.85" height="2.41" style="fill:#c9ccd5"/><path d="M317.52,363.6h-9.17v-1.17h4.39C312.7,363,317.52,363.6,317.52,363.6Z" transform="translate(-294.59 -235.21)" style="fill:#c9ccd5;mix-blend-mode:multiply"/><path d="M323.67,366H307.82V363.6H311C311.76,365.85,322.26,366,323.67,366Z" transform="translate(-294.59 -235.21)" style="fill:#c9ccd5;mix-blend-mode:multiply"/><ellipse cx="316.45" cy="268.02" rx="0.36" ry="24.82" transform="translate(-296.18 -233.32) rotate(-0.34)" style="fill:#e5e6ea;opacity:0.30000000000000004;mix-blend-mode:screen"/><ellipse cx="318.35" cy="335.75" rx="0.67" ry="24.82" transform="translate(-302.98 -227.05) rotate(-1.45)" style="fill:#e5e6ea;opacity:0.30000000000000004;mix-blend-mode:screen"/></g><circle id="pivot_blade_centre_2" cx="21.15" cy="3.11" r="3.11" style="fill:none"/></g></g></g></svg>