<svg xmlns="http://www.w3.org/2000/svg" viewBox="0 0 87.87 271.83"><title>turbine_mast_1</title><g style="isolation:isolate"><g id="layer_2"><g id="turbine_mast_1"><g id="turbine_mast_1-2" data-name="turbine_mast_1"><ellipse cx="43.93" cy="269.57" rx="43.93" ry="2.26" style="fill:#c9ccd5;opacity:0.4;mix-blend-mode:multiply"/><polygon points="48.49 135.21 38.85 135.21 39.47 101.59 40.28 57.01 41.18 8.25 46.16 8.25 46.61 32.95 48.4 130.22 48.49 135.21" style="fill:#c9ccd5"/><polygon points="51.89 151.9 35.47 151.9 38.85 135.21 48.49 135.21 49.2 138.66 51.15 148.25 51.89 151.9" style="fill:#e1e3e8"/><polygon points="55.83 262.64 31.51 262.64 35.45 151.9 51.89 151.9 52.22 161.25 55.53 254.14 55.83 262.64" style="fill:#c9ccd5"/><path d="M406.46,145.3c-1.9,3.89-5.26,6.35-6.31,24.05h0l.9-48.76h5Z" transform="translate(-359.85 -112.35)" style="fill:#c9ccd5;mix-blend-mode:multiply"/><path d="M408.34,247.56H398.7l.62-33.62c1.36,26.73,4.32,32.61,8.93,28.63Z" transform="translate(-359.85 -112.35)" style="fill:#c9ccd5;mix-blend-mode:multiply"/><path d="M411.74,264.25H395.32l3.38-16.69h9.64L409,251c-3.36-3-9.28-3.4-10.35,3-1.12,6.84,6.47,13,12.3,6.55Z" transform="translate(-359.85 -112.35)" style="fill:#e1e3e8;mix-blend-mode:multiply"/><path d="M415.69,375H391.36l3.94-110.74h16.44l.33,9.35c-2.11-9.83-12.82-10.67-14.87-3.09-2.42,9-2.31,46.81,0,66.21,2.1,17.67,7.36,33.4,18.18,29.77Z" transform="translate(-359.85 -112.35)" style="fill:#c9ccd5;mix-blend-mode:multiply"/><rect x="28.4" y="262.64" width="30.55" height="2.42" style="fill:#c9ccd5"/><rect x="27.31" y="265.07" width="32.72" height="4.97" style="fill:#c9ccd5"/><path d="M407.19,377.42H388.25V375h9.06C397.24,376.17,407.19,377.42,407.19,377.42Z" transform="translate(-359.85 -112.35)" style="fill:#c9ccd5;mix-blend-mode:multiply"/><path d="M419.88,382.39H387.17v-5h6.58C395.3,382.06,417,382.37,419.88,382.39Z" transform="translate(-359.85 -112.35)" style="fill:#c9ccd5;mix-blend-mode:multiply"/><ellipse cx="404.99" cy="180.08" rx="0.74" ry="51.24" transform="translate(-360.92 -109.92) rotate(-0.34)" style="fill:#e5e6ea;opacity:0.30000000000000004;mix-blend-mode:screen"/><ellipse cx="408.91" cy="319.93" rx="1.39" ry="51.24" transform="translate(-367.83 -101.89) rotate(-1.45)" style="fill:#e5e6ea;opacity:0.30000000000000004;mix-blend-mode:screen"/></g><circle id="pivot_blade_centre_1" cx="43.67" cy="6.43" r="6.43" style="fill:none"/></g></g></g></svg>