<svg xmlns="http://www.w3.org/2000/svg" viewBox="0 0 177.21 154.13"><title>turbine_blades_1</title><g style="isolation:isolate"><g id="turbine_blades_1"><g id="turbine_blades_1-2" data-name="turbine_blades_1"><g id="turbine_blades_1-3" data-name="turbine_blades_1"><rect x="86.17" y="93.36" width="3.97" height="3.97" style="fill:#414c53"/><polygon points="91.55 93.36 84.77 93.36 84.82 91.08 84.89 87.08 85.58 53.24 85.69 47.64 86.36 14.6 86.41 11.36 86.49 7.88 86.56 4.65 86.65 0 88.35 0 88.51 4.65 88.62 7.88 88.75 11.36 88.86 14.6 89.81 42.72 90.75 70.06 91.48 91.08 91.55 93.36" style="fill:#c9ccd5"/><path d="M402,17l-.09,4.65-.07,3.24-.07,3.47-.05,3.24-.67,33-.11,5.61-.69,33.84c-.31-8.59-3-13.44-4.9-15.79A6.35,6.35,0,0,1,394,83.56l1.54-12.7,1-8.27,3.74-31,.4-3.24.42-3.47.4-3.24Z" transform="translate(-315.37 -17)" style="fill:#e5e6ea"/><polygon points="88.62 7.88 85.69 7.88 86.09 4.65 88.51 4.65 88.62 7.88" style="fill:#ed403b"/><polygon points="88.85 14.6 84.88 14.6 85.27 11.36 88.75 11.36 88.85 14.6" style="fill:#ed403b"/><polygon points="91.55 93.36 84.77 93.36 84.82 91.08 91.48 91.08 91.55 93.36" style="fill:#ed403b"/><rect x="395.97" y="120.02" width="3.97" height="3.97" transform="translate(176.63 510.49) rotate(-120.1)" style="fill:#414c53"/><polygon points="82.58 108.93 80.57 110.03 77.08 111.97 47.35 128.41 43.42 130.58 13.64 147.06 10.81 148.65 10.8 148.65 7.76 150.31 4.92 151.88 0.87 154.13 0 152.66 3.94 150.19 6.69 148.47 9.64 146.62 12.39 144.9 39.75 127.76 47.57 122.88 47.57 122.86 77.23 104.28 79.16 103.07 79.87 104.28 81.88 107.72 82.58 108.93" style="fill:#c9ccd5"/><path d="M392.45,129c-7.29,4.58-10.11,9.37-11.21,12.15a6.27,6.27,0,0,1-3.24,3.53l-.16.07L355,154.49l-25.3,10.85-3,1.28L323.52,168l-3,1.27-4.29,1.84,4.05-2.24,2.84-1.57,3-1.66h0l2.82-1.59,29.79-16.48,3.92-2.17Z" transform="translate(-315.37 -17)" style="fill:#e5e6ea"/><polygon points="6.69 148.47 8.16 151.01 5.16 152.29 3.95 150.19 6.69 148.47" style="fill:#ed403b"/><polygon points="12.38 144.91 14.38 148.35 11.38 149.63 9.63 146.62 12.38 144.91" style="fill:#ed403b"/><polygon points="79.17 103.07 82.57 108.94 80.57 110.03 77.23 104.28 79.17 103.07" style="fill:#ed403b"/><rect x="407.12" y="120" width="3.97" height="3.97" transform="translate(403.1 -189.2) rotate(119.84)" style="fill:#414c53"/><polygon points="93.78 108.91 97.15 103.03 99.1 104.21 102.53 106.26 164.68 143.6 167.46 145.26 170.44 147.05 173.21 148.72 177.2 151.11 176.35 152.59 172.24 150.42 169.38 148.9 166.3 147.28 163.44 145.77 95.79 109.98 93.78 108.91" style="fill:#c9ccd5"/><path d="M492.57,168.11l-4-2.39-2.77-1.66-3-1.79L480,160.6,449.13,142l-4-2.41h0L417.9,123.25c7.61,4,13.17,4.07,16.13,3.62a6.4,6.4,0,0,1,4.81,1.14l6.4,4.77,9.21,6.87,26.33,19.66,2.62,2,2.8,2.08,2.6,2Z" transform="translate(-315.37 -17)" style="fill:#e5e6ea"/><polygon points="169.38 148.9 170.83 146.36 173.44 148.31 172.24 150.42 169.38 148.9" style="fill:#ed403b"/><polygon points="163.44 145.77 165.42 142.31 168.03 144.27 166.3 147.28 163.44 145.77" style="fill:#ed403b"/><polygon points="93.78 108.91 97.15 103.03 99.1 104.21 95.79 109.98 93.78 108.91" style="fill:#ed403b"/><path d="M410,118.79a6.43,6.43,0,1,1-11.1-4.43,6.43,6.43,0,0,1,11.1,4.43Z" transform="translate(-315.37 -17)" style="fill:#c9ccd5"/><path d="M407.84,123.54a6.43,6.43,0,0,1-9-9.19C397.58,120.25,401.45,124.47,407.84,123.54Z" transform="translate(-315.37 -17)" style="fill:#c9ccd5;mix-blend-mode:multiply"/><path d="M406.12,87.06c-1.12-6.26-2.75-13.75-5.17-16.82-1.5-1.88-3.29-2.12-5.44.61l1-8.27c1.68,2,3.2,2.53,4.56,2,1.57-.54,2.95-2.44,4.12-4.92Z" transform="translate(-315.37 -17)" style="fill:#e1e3e8;mix-blend-mode:multiply"/><path d="M378,144.65l-.16.07L355,154.49c2.19-2.64,3.73-5.12,3.74-6.91,0-1.52-1-2.55-3.67-2.82l7.81-4.88c-1.09,2.66-1,4.43-.22,5.53C364.78,148.27,372,146.66,378,144.65Z" transform="translate(-315.37 -17)" style="fill:#e1e3e8;mix-blend-mode:multiply"/><path d="M450.43,147.76c-1.37-2.21-2-4.25-1.3-5.73.61-1.28,2.24-2.15,5.32-2.37l-9.21-6.87c2.31,4.07,1.88,6.09-.11,6.84h0c-2.84,1-8.83-.47-14.49-2.35l-.07,0Z" transform="translate(-315.37 -17)" style="fill:#e1e3e8;mix-blend-mode:multiply"/><path d="M408.17,115c.87,1.24.82,2.79-.13,3.45s-.93-.83-1.8-2.07-2.3-1.77-1.36-2.44S407.3,113.78,408.17,115Z" transform="translate(-315.37 -17)" style="fill:#e5e6ea"/></g><circle id="pivot_blade_centre_1" cx="88.16" cy="101.78" r="6.43" style="fill:none"/></g></g></g></svg>