<svg xmlns="http://www.w3.org/2000/svg" viewBox="0 0 61.12 53.16"><title>turbine_blades_4</title><g style="isolation:isolate"><g id="turbine_blades_4"><g id="turbine_blades_4-2" data-name="turbine_blades_4"><g id="turbine_blades_4-3" data-name="turbine_blades_4"><rect x="29.72" y="32.2" width="1.37" height="1.37" style="fill:#1d4f6a"/><polygon points="31.58 32.2 29.24 32.2 29.26 31.41 29.28 30.04 29.52 18.36 29.56 16.43 29.79 5.03 29.81 3.92 29.83 2.72 29.86 1.6 29.89 0 30.47 0 30.53 1.6 30.57 2.72 30.61 3.92 30.65 5.03 30.98 14.73 31.3 24.17 31.55 31.41 31.58 32.2" style="fill:#7bb9db"/><path d="M70,291.66l0,1.6,0,1.12,0,1.2,0,1.12-.23,11.4,0,1.93-.24,11.67a9.08,9.08,0,0,0-1.69-5.45,2.19,2.19,0,0,1-.48-1.63l.53-4.38.34-2.85,1.29-10.69.14-1.12.14-1.2.14-1.12Z" transform="translate(-40.12 -291.66)" style="fill:#84bedd"/><polygon points="30.57 2.72 29.55 2.72 29.69 1.6 30.53 1.6 30.57 2.72" style="fill:#3083b0"/><polygon points="30.65 5.03 29.27 5.03 29.41 3.92 30.61 3.92 30.65 5.03" style="fill:#3083b0"/><polygon points="31.58 32.2 29.24 32.2 29.26 31.41 31.55 31.41 31.58 32.2" style="fill:#3083b0"/><rect x="67.92" y="327.19" width="1.37" height="1.37" transform="translate(-220.75 260.02) rotate(-120.1)" style="fill:#1d4f6a"/><polygon points="28.48 37.57 27.79 37.95 26.59 38.62 16.33 44.29 14.98 45.04 4.7 50.72 3.73 51.27 3.72 51.27 2.68 51.84 1.7 52.39 0.3 53.16 0 52.66 1.36 51.8 2.31 51.21 3.33 50.57 4.27 49.98 13.71 44.07 16.41 42.38 16.41 42.38 26.64 35.97 27.3 35.55 27.55 35.97 28.24 37.15 28.48 37.57" style="fill:#7bb9db"/><path d="M66.71,330.28a9.09,9.09,0,0,0-3.87,4.19,2.16,2.16,0,0,1-1.12,1.22l-.06,0-7.86,3.37-8.73,3.74-1,.44-1.11.48-1,.44-1.48.64,1.4-.77,1-.54,1-.57h0l1-.55L55.1,336.7l1.35-.75Z" transform="translate(-40.12 -291.66)" style="fill:#84bedd"/><polygon points="2.31 51.21 2.81 52.09 1.78 52.53 1.36 51.8 2.31 51.21" style="fill:#3083b0"/><polygon points="4.27 49.98 4.96 51.17 3.92 51.61 3.32 50.57 4.27 49.98" style="fill:#3083b0"/><polygon points="27.31 35.55 28.48 37.58 27.79 37.95 26.64 35.97 27.31 35.55" style="fill:#3083b0"/><rect x="71.77" y="327.18" width="1.37" height="1.37" transform="translate(352.78 136.51) rotate(119.84)" style="fill:#1d4f6a"/><polygon points="32.34 37.57 33.51 35.54 34.18 35.94 35.37 36.65 56.8 49.53 57.76 50.1 58.79 50.72 59.74 51.3 61.12 52.12 60.83 52.63 59.41 51.88 58.42 51.36 57.36 50.8 56.37 50.28 33.04 37.94 32.34 37.57" style="fill:#7bb9db"/><path d="M101.24,343.78,99.86,343l-1-.57-1-.62-1-.57-10.66-6.41L84.88,334h0l-9.39-5.65A9.06,9.06,0,0,0,81,329.55a2.21,2.21,0,0,1,1.66.39l2.21,1.65L88.09,334l9.08,6.78.9.67,1,.72.9.68Z" transform="translate(-40.12 -291.66)" style="fill:#84bedd"/><polygon points="58.42 51.36 58.92 50.48 59.82 51.16 59.41 51.88 58.42 51.36" style="fill:#3083b0"/><polygon points="56.37 50.28 57.05 49.09 57.95 49.76 57.36 50.8 56.37 50.28" style="fill:#3083b0"/><polygon points="32.34 37.57 33.51 35.54 34.18 35.94 33.04 37.94 32.34 37.57" style="fill:#3083b0"/><path d="M72.75,326.77a2.22,2.22,0,1,1-3.83-1.53,2.22,2.22,0,0,1,3.83,1.53Z" transform="translate(-40.12 -291.66)" style="fill:#7bb9db"/><path d="M72,328.41a2.22,2.22,0,0,1-3.1-3.17C68.48,327.27,69.81,328.72,72,328.41Z" transform="translate(-40.12 -291.66)" style="fill:#7bb9db;mix-blend-mode:multiply"/><path d="M71.42,315.82c-.39-2.16-.95-4.74-1.78-5.8-.52-.65-1.14-.73-1.88.21l.34-2.85c.58.69,1.1.87,1.57.7a3.1,3.1,0,0,0,1.42-1.7Z" transform="translate(-40.12 -291.66)" style="fill:#83bedd;mix-blend-mode:multiply"/><path d="M61.72,335.69l-.06,0-7.86,3.37a4.69,4.69,0,0,0,1.29-2.38c0-.52-.36-.88-1.27-1L56.53,334c-.37.92-.36,1.53-.07,1.91C57.16,336.93,59.65,336.38,61.72,335.69Z" transform="translate(-40.12 -291.66)" style="fill:#83bedd;mix-blend-mode:multiply"/><path d="M86.71,336.76a2.19,2.19,0,0,1-.45-2c.21-.44.77-.74,1.83-.82l-3.18-2.37c.8,1.4.65,2.1,0,2.36h0c-1,.36-3-.16-5-.81h0Z" transform="translate(-40.12 -291.66)" style="fill:#83bedd;mix-blend-mode:multiply"/><path d="M72.13,325.47a.86.86,0,0,1,0,1.19c-.33.23-.32-.28-.62-.71s-.79-.61-.47-.84A.86.86,0,0,1,72.13,325.47Z" transform="translate(-40.12 -291.66)" style="fill:#84bedd"/></g><circle id="pivot_blade_centre_4" cx="30.41" cy="35.1" r="2.22" style="fill:none"/></g></g></g></svg>