<svg xmlns="http://www.w3.org/2000/svg" viewBox="0 0 30.31 93.76"><title>turbine_mast_4</title><g style="isolation:isolate"><g id="layer_2"><g id="turbine_mast_4"><g id="turbine_mast_4-2" data-name="turbine_mast_4"><ellipse cx="15.15" cy="92.98" rx="15.15" ry="0.78" style="fill:#7bb9db;opacity:0.4;mix-blend-mode:multiply"/><polygon points="16.73 46.64 13.4 46.64 13.61 35.04 13.89 19.66 14.21 2.85 15.92 2.85 16.08 11.37 16.69 44.91 16.73 46.64" style="fill:#7bb9db"/><polygon points="17.9 52.39 12.23 52.39 13.4 46.64 16.73 46.64 16.97 47.83 17.64 51.13 17.9 52.39" style="fill:#83bedd"/><polygon points="19.26 90.59 10.87 90.59 12.23 52.39 17.9 52.39 18.01 55.62 19.15 87.66 19.26 90.59" style="fill:#7bb9db"/><path d="M71.54,335.91c-.65,1.34-1.82,2.19-2.18,8.3h0l.31-16.82h1.72Z" transform="translate(-55.47 -324.55)" style="fill:#7bb9db;mix-blend-mode:multiply"/><path d="M72.19,371.18H68.87l.21-11.6c.47,9.22,1.49,11.25,3.08,9.87Z" transform="translate(-55.47 -324.55)" style="fill:#7bb9db;mix-blend-mode:multiply"/><path d="M73.36,376.94H67.7l1.17-5.76h3.32l.24,1.19c-1.16-1-3.2-1.17-3.57,1s2.23,4.48,4.24,2.26Z" transform="translate(-55.47 -324.55)" style="fill:#83bedd;mix-blend-mode:multiply"/><path d="M74.72,415.13H66.33l1.36-38.2h5.67l.11,3.23c-.73-3.39-4.42-3.68-5.13-1.07-.84,3.09-.8,16.14,0,22.84.72,6.09,2.54,11.52,6.27,10.27Z" transform="translate(-55.47 -324.55)" style="fill:#7bb9db;mix-blend-mode:multiply"/><rect x="9.79" y="90.59" width="10.54" height="0.84" style="fill:#7bb9db"/><rect x="9.42" y="91.43" width="11.28" height="1.72" style="fill:#7bb9db"/><path d="M71.79,416H65.26v-.84h3.13C68.36,415.54,71.79,416,71.79,416Z" transform="translate(-55.47 -324.55)" style="fill:#7bb9db;mix-blend-mode:multiply"/><path d="M76.17,417.69H64.89V416h2.27C67.69,417.57,75.17,417.68,76.17,417.69Z" transform="translate(-55.47 -324.55)" style="fill:#7bb9db;mix-blend-mode:multiply"/><ellipse cx="71.03" cy="347.91" rx="0.26" ry="17.67" transform="translate(-57.5 -324.12) rotate(-0.33)" style="fill:#84bedd;opacity:0.30000000000000004;mix-blend-mode:screen"/><ellipse cx="72.39" cy="396.14" rx="0.48" ry="17.67" transform="translate(-65.46 -322.59) rotate(-1.45)" style="fill:#84bedd;opacity:0.30000000000000004;mix-blend-mode:screen"/></g><circle id="pivot_blade_centre_4" cx="15.06" cy="2.22" r="2.22" style="fill:none"/></g></g></g></svg>