<svg xmlns="http://www.w3.org/2000/svg" viewBox="0 0 59.95 185.48"><title>turbine_mast_3</title><g style="isolation:isolate"><g id="layer_2"><g id="turbine_mast_3"><g id="turbine_mast_3-2" data-name="turbine_mast_3"><ellipse cx="29.98" cy="183.94" rx="29.98" ry="1.54" style="fill:#c9ccd5;opacity:0.4;mix-blend-mode:multiply"/><polygon points="33.09 92.26 26.51 92.26 26.93 69.32 27.48 38.9 28.1 5.63 31.5 5.63 31.8 22.48 33.02 88.85 33.09 92.26" style="fill:#c9ccd5"/><polygon points="35.41 103.65 24.2 103.65 26.51 92.26 33.09 92.26 33.57 94.62 34.9 101.16 35.41 103.65" style="fill:#e1e3e8"/><polygon points="38.1 179.21 21.5 179.21 24.19 103.65 35.41 103.65 35.63 110.03 37.89 173.41 38.1 179.21" style="fill:#c9ccd5"/><path d="M218.82,221.19c-1.3,2.65-3.59,4.33-4.31,16.41h0l.62-33.27h3.39Z" transform="translate(-187.02 -198.7)" style="fill:#c9ccd5;mix-blend-mode:multiply"/><path d="M220.11,291h-6.58l.42-22.94c.93,18.24,2.95,22.25,6.1,19.54Z" transform="translate(-187.02 -198.7)" style="fill:#c9ccd5;mix-blend-mode:multiply"/><path d="M222.43,302.35H211.22L213.53,291h6.58l.48,2.36c-2.3-2-6.33-2.32-7.06,2.07-.77,4.66,4.42,8.86,8.39,4.47Z" transform="translate(-187.02 -198.7)" style="fill:#e1e3e8;mix-blend-mode:multiply"/><path d="M225.12,377.91h-16.6l2.69-75.56h11.22l.22,6.38c-1.44-6.71-8.75-7.28-10.14-2.11-1.65,6.11-1.58,31.94,0,45.18,1.43,12.06,5,22.79,12.4,20.31Z" transform="translate(-187.02 -198.7)" style="fill:#c9ccd5;mix-blend-mode:multiply"/><rect x="19.38" y="179.21" width="20.84" height="1.65" style="fill:#c9ccd5"/><rect x="18.64" y="180.86" width="22.32" height="3.39" style="fill:#c9ccd5"/><path d="M219.32,379.56H206.4v-1.65h6.18C212.53,378.71,219.32,379.56,219.32,379.56Z" transform="translate(-187.02 -198.7)" style="fill:#c9ccd5;mix-blend-mode:multiply"/><path d="M228,383H205.66v-3.39h4.49C211.21,382.74,226,382.95,228,383Z" transform="translate(-187.02 -198.7)" style="fill:#c9ccd5;mix-blend-mode:multiply"/><ellipse cx="217.82" cy="244.92" rx="0.51" ry="34.97" transform="translate(-188.46 -197.41) rotate(-0.34)" style="fill:#e5e6ea;opacity:0.30000000000000004;mix-blend-mode:screen"/><ellipse cx="220.5" cy="340.34" rx="0.95" ry="34.97" transform="translate(-195.58 -193) rotate(-1.45)" style="fill:#e5e6ea;opacity:0.30000000000000004;mix-blend-mode:screen"/></g><circle id="pivot_blade_centre_3" cx="29.8" cy="4.39" r="4.39" style="fill:none"/></g></g></g></svg>