<svg xmlns="http://www.w3.org/2000/svg" viewBox="0 0 120.91 105.17"><title>turbine_blades_3</title><g style="isolation:isolate"><g id="turbine_blades_3"><g id="turbine_blades_3-2" data-name="turbine_blades_3"><g id="turbine_blades_3-3" data-name="turbine_blades_3"><rect x="58.8" y="63.7" width="2.71" height="2.71" style="fill:#414c53"/><polygon points="62.47 63.7 57.84 63.7 57.88 62.15 57.93 59.42 58.4 36.33 58.47 32.51 58.93 9.96 58.96 7.75 59.01 5.38 59.06 3.17 59.12 0 60.28 0 60.4 3.17 60.47 5.38 60.55 7.75 60.63 9.96 61.28 29.15 61.92 47.81 62.42 62.15 62.47 63.7" style="fill:#c9ccd5"/><path d="M215.79,133.64l-.06,3.17,0,2.21,0,2.37,0,2.21-.46,22.55-.07,3.83-.47,23.09c-.21-5.86-2.07-9.17-3.34-10.77a4.33,4.33,0,0,1-1-3.23l1-8.66.68-5.64,2.55-21.15.27-2.21.28-2.37.27-2.21Z" transform="translate(-156.67 -133.64)" style="fill:#e5e6ea"/><polygon points="60.47 5.38 58.47 5.38 58.74 3.17 60.39 3.17 60.47 5.38" style="fill:#ed403b"/><polygon points="60.63 9.96 57.91 9.96 58.19 7.75 60.55 7.75 60.63 9.96" style="fill:#ed403b"/><polygon points="62.47 63.7 57.84 63.7 57.88 62.15 62.42 62.15 62.47 63.7" style="fill:#ed403b"/><rect x="211.66" y="203.94" width="2.71" height="2.71" transform="translate(-14.42 358.9) rotate(-120.1)" style="fill:#414c53"/><polygon points="56.35 74.33 54.98 75.08 52.6 76.4 32.31 87.62 29.63 89.1 9.3 100.34 7.38 101.43 7.37 101.43 5.29 102.56 3.36 103.64 0.59 105.17 0 104.17 2.69 102.48 4.57 101.3 6.58 100.05 8.45 98.87 27.13 87.17 32.46 83.84 32.46 83.83 52.69 71.16 54.02 70.33 54.5 71.16 55.87 73.5 56.35 74.33" style="fill:#c9ccd5"/><path d="M209.26,210c-5,3.12-6.9,6.39-7.65,8.29a4.28,4.28,0,0,1-2.21,2.41l-.11,0-15.55,6.66-17.26,7.4-2,.88-2.2,1-2,.86-2.92,1.26,2.76-1.53L162,236.2l2.07-1.14h0L166,234l20.32-11.24,2.68-1.48Z" transform="translate(-156.67 -133.64)" style="fill:#e5e6ea"/><polygon points="4.57 101.31 5.57 103.04 3.52 103.91 2.69 102.48 4.57 101.31" style="fill:#ed403b"/><polygon points="8.45 98.87 9.81 101.22 7.76 102.09 6.57 100.05 8.45 98.87" style="fill:#ed403b"/><polygon points="54.02 70.33 56.34 74.33 54.98 75.08 52.7 71.15 54.02 70.33" style="fill:#ed403b"/><rect x="219.27" y="203.92" width="2.71" height="2.71" transform="translate(351.8 -17.6) rotate(119.84)" style="fill:#414c53"/><polygon points="63.99 74.31 66.29 70.3 67.62 71.11 69.96 72.51 112.37 97.98 114.26 99.11 116.3 100.34 118.19 101.48 120.91 103.11 120.33 104.12 117.52 102.64 115.57 101.6 113.47 100.5 111.52 99.46 65.36 75.05 63.99 74.31" style="fill:#c9ccd5"/><path d="M277.58,236.75l-2.73-1.63L273,234l-2-1.22-1.9-1.14L247.94,219l-2.73-1.64h0l-18.57-11.17c5.2,2.74,9,2.78,11,2.47a4.37,4.37,0,0,1,3.28.78l4.37,3.26,6.28,4.69,18,13.41,1.79,1.33,1.91,1.42,1.78,1.35Z" transform="translate(-156.67 -133.64)" style="fill:#e5e6ea"/><polygon points="115.57 101.6 116.56 99.87 118.35 101.2 117.52 102.64 115.57 101.6" style="fill:#ed403b"/><polygon points="111.52 99.46 112.87 97.11 114.65 98.44 113.47 100.5 111.52 99.46" style="fill:#ed403b"/><polygon points="63.99 74.31 66.29 70.3 67.62 71.11 65.36 75.05 63.99 74.31" style="fill:#ed403b"/><path d="M221.21,203.09a4.39,4.39,0,1,1-7.58-3,4.39,4.39,0,0,1,7.58,3Z" transform="translate(-156.67 -133.64)" style="fill:#c9ccd5"/><path d="M219.76,206.34a4.39,4.39,0,0,1-6.13-6.27C212.76,204.09,215.41,207,219.76,206.34Z" transform="translate(-156.67 -133.64)" style="fill:#c9ccd5;mix-blend-mode:multiply"/><path d="M218.59,181.45c-.77-4.27-1.88-9.38-3.53-11.48-1-1.28-2.25-1.44-3.71.42l.68-5.64c1.15,1.37,2.18,1.73,3.11,1.39s2-1.67,2.81-3.36Z" transform="translate(-156.67 -133.64)" style="fill:#e1e3e8;mix-blend-mode:multiply"/><path d="M199.4,220.74l-.11,0-15.55,6.66c1.49-1.8,2.54-3.49,2.55-4.71,0-1-.7-1.74-2.51-1.93l5.33-3.33c-.74,1.81-.7,3-.15,3.78C190.38,223.21,195.3,222.11,199.4,220.74Z" transform="translate(-156.67 -133.64)" style="fill:#e1e3e8;mix-blend-mode:multiply"/><path d="M248.83,222.86c-.94-1.51-1.38-2.9-.89-3.91s1.53-1.47,3.63-1.62l-6.28-4.69c1.58,2.78,1.28,4.16-.07,4.66h0c-1.94.72-6-.32-9.88-1.6h0Z" transform="translate(-156.67 -133.64)" style="fill:#e1e3e8;mix-blend-mode:multiply"/><path d="M220,200.53a1.7,1.7,0,0,1-.09,2.36c-.64.45-.63-.56-1.23-1.41s-1.57-1.21-.93-1.66A1.7,1.7,0,0,1,220,200.53Z" transform="translate(-156.67 -133.64)" style="fill:#e5e6ea"/></g><circle id="pivot_blade_centre_3" cx="60.15" cy="69.45" r="4.39" style="fill:none"/></g></g></g></svg>