<svg xmlns="http://www.w3.org/2000/svg" viewBox="0 0 356.57 238.08"><defs><style>.cls-1{fill:none;}</style></defs><title>car_body</title><g id="Layer_2" data-name="Layer 2"><g id="Layer_1-2" data-name="Layer 1"><g id="car_body"><g id="car_body-2" data-name="car_body"><path d="M175.53,21c-2.95,0-5.5,0-8,0-4.83.07-12-5.71-12.34-10.45-.08-1,1.65-2.75,2.79-3a122.5,122.5,0,0,1,14.42-2.38C209.65,1.52,247-.72,284.48.21c5.14.13,10.23,1.74,15.36,2.51,1.12.17,2.42-.68,3.5-.44,2.78.65,6.23.92,8,2.73,1.36,1.43,1.28,5.14.57,7.45-2,6.53-5.06,8.49-12,8.83-1,.05-2.07.22-3.22.35,2.17,7.66,4.54,15,6.28,22.44,3.09,13.22,5.12,26.6,5,40.26a3.93,3.93,0,0,0,2.28,2.81,19.27,19.27,0,0,0,6,.85c1.15,0,3-.36,3.29-1.1s-.26-2.44-.87-3.47c-1.07-1.82-2.45-3.46-4.14-5.77,2.24-.71,3.8-1.34,5.42-1.69,7.37-1.64,11.93-9.78,9.06-16.65-.45-1.08-2.29-2.44-3.24-2.28-1.62.28-3.91,1.36-4.39,2.66-1.1,3-1.28,6.32-1.85,9.5-.21,1.19-.46,2.37-.8,4.07-4.19-4.93-1.7-17,3.26-19.18,5.21-2.28,9.86.4,10.54,6.08,1.2,10-1.63,14.68-11.3,19.18l2.44,9.5c8.61,3.12,17.74,6.43,26.88,9.72,3.56,1.28,5.33,3.75,5.9,7.51.87,5.75-1.63,8.15-7,6.05a160.72,160.72,0,0,0-36.8-9.81c-44-6-80.75,13.65-100.35,53.75-1.31,2.68-2.57,5.38-4,8-.56,1-1.27,2.43-2.23,2.77-4.41,1.57-4.54,5.29-4.76,8.9-.65,10.68-1.52,21.37-1.64,32.06-.08,6.54.89,13.11,1.68,19.63.56,4.63-.3,6.32-4.71,8-9.49,3.51-19.18,3.2-28.84,1.21-6-1.23-7.55-3.49-7.46-9.77q.31-21,.81-41.93c.17-7.46.68-14.92.59-22.38,0-3-1.28-5.89-1.93-8.84-.55-2.49-1.53-5-1.48-7.49.34-16.65.91-33.3,1.4-49.95a17.3,17.3,0,0,0-.27-2c-50.92.39-101.06,5.65-149.49,22.27l.16,1.56c2.56-.17,5.13-.55,7.68-.47,4.89.15,5.65,1.81,4.47,6.51-1.83,7.28-6.18,11.22-13.52,12.72-5.79,1.18-6,1.62-4.76,7.62,1.37,6.74,3.34,13.36,4.94,20.06a11,11,0,0,1-.21,3.24c-.94-.69-2.38-1.19-2.73-2.11-5.41-14.05-7.49-28.51-4.73-43.46a10.06,10.06,0,0,1,7.31-8c12.78-4,25.41-8.82,38.49-11.28,22.2-4.17,44.63-7.31,67.08-9.83,14.11-1.59,28.43-1.35,42.66-1.73,2.67-.07,3.62-.72,4.21-3.44,4.66-21.56,9.53-43.07,14.33-64.6C175.41,22.78,175.41,22.24,175.53,21ZM158.94,10.89c2.66,4.83,5.8,8,11.48,7a22.5,22.5,0,0,1,4.07,0c5.12.09,5.25.24,4.08,5.07-.48,2-1,3.93-1.51,5.89-8.26,32.2-15.91,64.51-16.09,98,0,7.72.55,15.44,1.1,23.15.17,2.4.84,4.78,4.32,4.75,10.58-.09,21.17-.09,31.75.1,2.92.05,4.09-.8,5-3.7,9.15-28.34,26.89-49,55.2-59.43,13-4.79,26.74-5.61,40.52-5.3,1.83,0,3.67,0,5.38,0a13.42,13.42,0,0,0,.42-1.79c.05-1.08.09-2.17.06-3.26a194.93,194.93,0,0,0-10.89-57.27c-.72-2.08-1.08-4.29-1.65-6.63a.72.72,0,0,0-.43-.12c-32.57.43-65.14.76-97.7,1.37-7.48.14-14.52-.21-20.33-5.65-.77-.72-2-1-2.79-1.65C167.18,8.38,163.25,9,158.94,10.89Zm194,98.69c.46-5.23-.19-6.54-4.91-8.58-24.51-10.6-50-14.43-76.3-9.27-34.52,6.79-55.21,29-65.78,61.67a86.29,86.29,0,0,0-1.9,8.81l1.09.37c1.48-2.81,3-5.58,4.42-8.44,12.32-25.6,31.37-43.63,58.87-51.89,21-6.31,42.07-5,63,.6C338.58,104.77,345.56,107.26,352.94,109.58ZM173.71,8.63c5.27,3.38,9.81,7.69,17,7.09,8.49-.71,17.08-.15,25.63-.24q37.24-.39,74.47-.91c3,0,6.74.25,7.33-4s-1.38-6.22-6.57-6.78c-1.35-.15-2.69-.36-4-.4C249.53,2.47,211.65,4.64,173.71,8.63Zm25.14,160.93a47.78,47.78,0,0,1-34.09,0V189c10.5-4.54,20.93-3.91,31.73-.21Zm-34.77,41.55c10.55-4.13,21.06-3.47,32-.81V192.86c-10.77,2.63-21.24,2.93-32-1Zm.16,21.21a68.43,68.43,0,0,1,7.44-2.53c7.7-1.59,15.35-1.49,22.77,1.48,2,.82,4.11,1.11,3.71-2-.61-4.78-1.66-9.51-2.56-14.48-10.88,3.28-21.27,2.42-31.37-.17ZM201,158h-35.8v7.25c11.74-3,23.1-4.26,34.14,2.22ZM18.67,120.72c-4.42.55-8.77,1-13.09,1.68a2,2,0,0,0-1.25,1.39c-.47,3.5-.8,7-1.2,10.72C14.82,132.91,18.67,129.54,18.67,120.72ZM296.07,17.57c8.73,1.62,11.39-1,13.39-7.77,1-3.44-2-4.06-4.33-4.5s-4.11.56-3.73,3.31C302,12.67,300.14,15.34,296.07,17.57ZM191.21,168.46l0-1.49H171l0,1.1C177.65,170.09,184.41,169.85,191.21,168.46Zm-1,65.55q0-.66,0-1.32h-19q0,.66,0,1.32Zm-19-44.45q0,.67,0,1.34h18.63q0-.67,0-1.34Zm17.84,23.5.06-1.26H171.94v1.26Z"/><path d="M123.48,219.84c-5.23-.08-6.24-1.23-6.79-6.89-1.91-19.52-9.6-36.25-24.48-49.27-9.13-8-20.22-11.81-32-13.92-1.44-.26-3.27-.39-4.14-1.31-1.29-1.37-2.53-3.39-2.53-5.13,0-.89,2.76-2.58,4.22-2.54a59.09,59.09,0,0,1,13.6,1.59c32,8.75,49.31,31,56.52,62.26a68.09,68.09,0,0,1,1.16,9.26C129.5,218.91,128.51,219.92,123.48,219.84ZM57.21,143.51l-.31,1.79a57.77,57.77,0,0,0,6.54,2c24.16,4.31,40.83,18.16,49.95,40.58,3.31,8.13,4.51,17.15,6.33,25.84.53,2.51,1.53,3.06,3.76,3,2.52-.1,2.85-1.32,2.41-3.47-.53-2.65-.64-5.38-1.18-8-5.11-24.76-22.4-53.93-59-60.91A79.49,79.49,0,0,0,57.21,143.51Z"/><path d="M143,114c2.84,0,5.69,0,8.53,0,2.33,0,3.45,1.12,3.36,3.53-.2,5.28-.28,10.57-.46,15.85-.08,2.39-.87,4.09-3.75,4.31-20.65,1.58-41.27,3.58-61.93,4.76-9.9.56-17.92-4.52-24.17-11.95-2.92-3.46-2.12-5.62,2.5-6.52,13.52-2.64,27.07-5.29,40.71-7.16,11.65-1.6,23.45-2.14,35.18-3.14Zm-76.2,13.27c3.42,7.1,15.8,12.94,24.38,12,10.48-1.16,21-2.34,31.48-3.23,9.28-.79,18.6-1.21,28.46-1.82V117C122.63,117.46,94.56,120.47,66.78,127.23Z"/><path d="M141.12,65.8c0,5.4-.1,12.18,0,18.95.06,2.67-.83,4.12-3.51,4.38-.81.08-1.61.28-2.41.29-11.46.13-9.56.1-9.73-8.75-.23-12.19-.64-24.37-.8-36.56a10.81,10.81,0,0,1,1.57-4.61c1.39-2.75,1.28-5.07-.38-7.87a35.44,35.44,0,0,1-4.09-10.37c-.81-3.74,1.42-5.17,4.71-3.32,7.35,4.14,10.9,9.91,12.62,18.82C141,46.14,140,55.25,141.12,65.8Zm-3.37,20.08c0-13.61,0-27-.07-40.4,0-.78-1-2.16-1.61-2.22-2.61-.25-5.26-.11-7.59-.11,0,12.39-.09,24.42,0,36.45.08,7.31.25,7.33,7.68,6.7A10.74,10.74,0,0,0,137.75,85.88Zm-13-64.73,6.95,17.93H135C136.16,30.58,133.49,25.58,124.8,21.14Z"/><path d="M126.16,151.89c9.16-.64,17.6-1.41,26.06-1.74,4.21-.17,5.58,3.42,5.67,6.67.45,16.92.61,33.85.78,50.77,0,3.68-1.81,5.75-5.73,5.83-4.87.1-9.74.38-14.62.62-2.52.12-3.78-.92-3.74-3.56.24-18.15-3.43-35.76-7.51-53.31C126.76,155.89,126.61,154.57,126.16,151.89Zm4.64,2.76,8.34,56.15c4.09-.2,9-.29,13.77-.8a3.86,3.86,0,0,0,2.59-2.71c-.12-16.65-.35-33.31-.88-50,0-1.4-2.33-3.9-3.55-3.88C144.22,153.52,137.37,154.2,130.79,154.66Z"/><path d="M152.72,111.14l-.55-8.3c-3,0-6.08-.12-9.13,0-38.7,1.68-76.92,6.69-114.48,16.33-1.1.28-2.42-.26-3.63-.42,1-.85,1.82-2.23,2.91-2.46,17.61-3.72,35.11-8.27,52.9-10.65,22.41-3,45.06-4.24,67.62-6,2.33-.19,6.55.51,6.81,1.55.76,3.12,0,6.62-.19,10Z"/><path d="M153.52,60c1.54-9.74,3-19.49,4.66-29.22C158.7,27.62,160,25,164,25.53c4.15.58,6.3,2.74,5.35,7C166.91,43.33,164,54,161,64.69c-.37,1.28-3,1.91-4.56,2.84a29.11,29.11,0,0,1-2.25-4.18,10.15,10.15,0,0,1-.06-3.23Zm3.81,2.45c.72-.28,1.14-.33,1.18-.48,2.62-9.77,5.28-19.53,7.75-29.34.66-2.63-.69-4.12-4-4C158.68,39.52,158.17,50.88,157.33,62.46Z"/><path d="M216,22.74c9.9,0,19.8.08,29.7-.05,3,0,4.32.67,4.49,4,.94,19.08,2.06,38.15,3.22,57.22.21,3.48-1.16,5.56-4.32,6.94-23.2,10.12-37.41,28.38-46.2,51.45-3.24,8.51-3.43,8.86-12.5,9.09q-8.94.23-17.9-.06c-5.81-.18-7.69-2.25-7.81-8-.69-33.28,4.55-65.86,11.73-98.2,1.44-6.47,3.19-12.87,4.72-19.31.67-2.82,2.18-3.88,5.18-3.83,9.89.18,19.8.07,29.69.07Zm31.22,3.47a23.38,23.38,0,0,0-2.48-.4c-19-.19-38-.31-57-.59-2.69,0-3.47,1.17-3.95,3.46-3.54,16.81-7.64,33.52-10.63,50.43-3.7,21-5.94,42.13-5.42,63.52.09,3.69,1.44,5.31,4.81,5.42,5.55.18,11.12,0,16.67.26s8.63-1.62,10.71-7.27c8.78-23.81,23.7-42.44,47.33-53.15,2.1-1,3.11-2.23,3-4.67C249.21,64.3,248.24,45.37,247.23,26.21Z"/><path d="M255.13,31.38c-.06-1.35-.13-2.71-.18-4.06-.14-3.34,1.39-5.79,4.67-6.07,7.81-.67,15.65-1.21,23.48-1.19,4.07,0,5.92,3.64,6.88,7.11,2.85,10.28,5.67,20.58,8,31a88.77,88.77,0,0,1,1.85,15.68c.25,5.55-2.77,9.06-8.21,9.82-9.25,1.29-18.52,2.41-27.8,3.42-4.85.53-5.22-.11-5.51-5-1-16.9-2.1-33.8-3.16-50.7ZM261.82,84c10.12-1.27,19.91-2.4,29.67-3.76,3.62-.5,5.45-3.07,5.19-6.64A91.13,91.13,0,0,0,295,59.57c-2.49-10.64-5.36-21.19-8.24-31.74-.58-2.12-1.39-4.53-4.49-4.42q-9.74.35-19.47.6c-3.66.09-4.85,1.86-4.59,5.45,1.06,14.31,1.93,28.62,2.87,42.94C261.28,76.15,261.54,79.89,261.82,84Z"/></g><circle id="pivot_front" class="cls-1" cx="51.06" cy="216.78" r="6.28"/><circle id="pivot_back" class="cls-1" cx="295.95" cy="195.57" r="6.28"/></g></g></g></svg>