<svg id="Layer_1" data-name="Layer 1" xmlns="http://www.w3.org/2000/svg" viewBox="0 0 30.08 42.11"><title>a</title><g id="A"><g id="A-2" data-name="A"><path d="M23.85,162a15.06,15.06,0,0,0-15,15V199.6a4.51,4.51,0,1,0,9,0V177a6,6,0,0,1,12,0V199.6a4.51,4.51,0,1,0,9,0V177a15.06,15.06,0,0,0-15-15Z" transform="translate(-8.81 -162)" style="fill:#231f20"/><path d="M23.85,189.07a4.51,4.51,0,1,0,4.51,4.51,4.51,4.51,0,0,0-4.51-4.51Z" transform="translate(-8.81 -162)" style="fill:#231f20"/></g><circle id="pivot_center" cx="15.04" cy="21.06" r="2.65" style="fill:none"/><circle id="pivot_ground" cx="15.04" cy="39.47" r="2.65" style="fill:none"/></g></svg>