<svg id="Layer_1" data-name="Layer 1" xmlns="http://www.w3.org/2000/svg" viewBox="0 0 30.83 42.11"><title>b</title><g id="B"><g id="B-2" data-name="B"><path d="M66.32,184.37c0,.14.09.28.15.42s.12.27.19.4a3.9,3.9,0,0,0,.23.38,4.17,4.17,0,0,0,.26.36c.09.11.2.22.3.33a4.16,4.16,0,0,0,.33.3,4,4,0,0,0,.35.26l.38.23.4.19.42.15.43.11.44.07.45,0,.44,0,.44-.07.43-.11.42-.15.4-.19.38-.23a4,4,0,0,0,.36-.26,4.14,4.14,0,0,0,.33-.3l.3-.33c.09-.11.18-.23.26-.36s.16-.25.23-.38.13-.27.19-.4.11-.28.15-.42.08-.28.11-.43.05-.29.07-.44a4.6,4.6,0,0,0,0-.89c0-.15,0-.29-.07-.44s-.07-.29-.11-.43-.09-.28-.15-.42-.12-.27-.19-.4a4.12,4.12,0,0,0-.23-.38c-.08-.12-.17-.24-.26-.36s-.2-.23-.3-.33a4.44,4.44,0,0,0-.33-.3,4.34,4.34,0,0,0-.36-.27l-.38-.23-.4-.19-.42-.15a3.26,3.26,0,0,0-.43-.11l-.44-.07a4.3,4.3,0,0,0-.89,0l-.44.07a3.45,3.45,0,0,0-.43.11l-.42.15-.4.19-.38.23a4.38,4.38,0,0,0-.35.27c-.11.09-.23.19-.33.3s-.2.21-.3.33a4.42,4.42,0,0,0-.26.36,3.6,3.6,0,0,0-.23.38c-.07.13-.13.26-.19.4s-.11.27-.15.42-.08.28-.11.43-.05.29-.07.44a4.42,4.42,0,0,0,0,.44c0,.15,0,.3,0,.44s0,.29.07.44.07.29.11.43Z" transform="translate(-66.13 -162)" style="fill:#231f20"/><path d="M97,174.78A12.8,12.8,0,0,0,84.18,162l-.32,0H70.64a4.51,4.51,0,0,0,0,9H84.34a3.76,3.76,0,0,1-.16,7.51,4.51,4.51,0,1,0,0,9,3.76,3.76,0,0,1,0,7.52H70.64a4.51,4.51,0,1,0,0,9H84.18a12.77,12.77,0,0,0,9.74-21.06,12.73,12.73,0,0,0,3-8.27Z" transform="translate(-66.13 -162)" style="fill:#231f20"/></g><circle id="pivot_center" cx="13.79" cy="21.06" r="2.65" style="fill:none"/><circle id="pivot_ground" cx="13.79" cy="39.47" r="2.65" style="fill:none"/></g></svg>