<svg id="Layer_1" data-name="Layer 1" xmlns="http://www.w3.org/2000/svg" viewBox="0 0 36.1 42.11"><title>d</title><g id="D"><g id="D-2" data-name="D"><path d="M193.41,162l-.32,0H182.88a4.51,4.51,0,0,0,0,9h10.74a12,12,0,0,1,0,24.06H182.88a4.51,4.51,0,0,0,0,9h10.21l.32,0a21.06,21.06,0,0,0,0-42.11Z" transform="translate(-178.37 -162)" style="fill:#231f20"/><path d="M182.88,187.57a4.51,4.51,0,1,0-4.51-4.51,4.51,4.51,0,0,0,4.51,4.51Z" transform="translate(-178.37 -162)" style="fill:#231f20"/></g><circle id="pivot_center" cx="15.4" cy="21.06" r="2.65" style="fill:none"/><circle id="pivot_ground" cx="15.4" cy="39.47" r="2.65" style="fill:none"/></g></svg>