<svg id="Layer_1" data-name="Layer 1" xmlns="http://www.w3.org/2000/svg" viewBox="0 0 39.66 42.11"><title>g</title><g id="G"><g id="G-2" data-name="G"><path d="M367.37,187.25a4.51,4.51,0,1,0,4.51-4.51,4.51,4.51,0,0,0-4.51,4.51Z" transform="translate(-348.77 -162)" style="fill:#231f20"/><path d="M383.91,182.74a4.51,4.51,0,0,0-4.51,4.51v3.09a12,12,0,1,1,.67-13.6,4.51,4.51,0,0,0,7.68-4.74A21,21,0,1,0,380,201.52a4.51,4.51,0,0,0,8.43-2.23v-12a4.51,4.51,0,0,0-4.51-4.51Z" transform="translate(-348.77 -162)" style="fill:#231f20"/></g><circle id="pivot_center" cx="21.24" cy="21.06" r="2.65" style="fill:none"/><circle id="pivot_ground" cx="21.24" cy="39.47" r="2.65" style="fill:none"/></g></svg>