<svg id="Layer_1" data-name="Layer 1" xmlns="http://www.w3.org/2000/svg" viewBox="0 0 30.08 42.11"><title>h</title><g id="H"><g id="H-2" data-name="H"><path d="M426.15,177a4.51,4.51,0,1,0,4.51,4.51,4.51,4.51,0,0,0-4.51-4.51Z" transform="translate(-411.11 -162)" style="fill:#231f20"/><path d="M415.63,162a4.51,4.51,0,0,0-4.51,4.51V199.6a4.51,4.51,0,1,0,9,0V166.51a4.51,4.51,0,0,0-4.51-4.51Z" transform="translate(-411.11 -162)" style="fill:#231f20"/><path d="M436.68,162a4.51,4.51,0,0,0-4.51,4.51V199.6a4.51,4.51,0,1,0,9,0V166.51a4.51,4.51,0,0,0-4.51-4.51Z" transform="translate(-411.11 -162)" style="fill:#231f20"/></g><circle id="pivot_center" cx="15.04" cy="21.06" r="2.65" style="fill:none"/><circle id="pivot_ground" cx="15.04" cy="39.47" r="2.65" style="fill:none"/></g></svg>