<svg id="Layer_1" data-name="Layer 1" xmlns="http://www.w3.org/2000/svg" viewBox="0 0 33.56 43.65"><title>m</title><g id="M"><path id="M-2" data-name="M" d="M208.64,237.56a4.51,4.51,0,0,0-8.14-3.36l-8.57,12.24-8.57-12.24a4.51,4.51,0,0,0-8.14,3.36,4.61,4.61,0,0,0-.07.77v33.09a4.51,4.51,0,1,0,9,0V251.1l4.06,5.8,0,.05c.08.11.17.22.26.32l.08.09a4.25,4.25,0,0,0,.35.34l.11.09.27.21,0,0,.12.08.32.19.1.05.43.19.07,0,.46.14h0a4.29,4.29,0,0,0,.49.09h.08l.48,0h0l.48,0h.08a4.24,4.24,0,0,0,.49-.09h0l.45-.14.07,0,.43-.19.1-.05.32-.19.12-.08,0,0,.27-.21.11-.09a4.81,4.81,0,0,0,.35-.34l.08-.09a4.07,4.07,0,0,0,.26-.32l0-.05,4.06-5.8v20.31a4.51,4.51,0,1,0,9,0V238.33a4.61,4.61,0,0,0-.07-.77Z" transform="translate(-175.15 -232.28)" style="fill:#231f20"/><circle id="pivot_center" cx="16.78" cy="21.82" r="2.65" style="fill:none"/><circle id="pivot_ground" cx="16.78" cy="40.23" r="2.65" style="fill:none"/></g></svg>