<svg id="Layer_1" data-name="Layer 1" xmlns="http://www.w3.org/2000/svg" viewBox="0 0 30.08 42.11"><title>n</title><g id="N"><g id="N-2" data-name="N"><path d="M239.5,233a4.51,4.51,0,0,0-4.51,4.51v33.09a4.51,4.51,0,0,0,9,0V237.56A4.51,4.51,0,0,0,239.5,233Z" transform="translate(-234.99 -233.04)" style="fill:#231f20"/><path d="M265.07,237.56a4.51,4.51,0,0,0-9,0v17.59l-1.31-2.06a4.51,4.51,0,1,0-7.61,4.85l9.63,15.13,0,.06.07.1.2.27,0,0,.27.3,0,0a4.48,4.48,0,0,0,.63.52l0,0,.33.2h0l.34.16.11,0,.34.12.09,0,.29.08.11,0,.37.06h.08l.42,0,.42,0h.08l.38-.06h0l.38-.1.11,0,.27-.1.12,0,.34-.16.08,0,.2-.12,0,0,.22-.15.15-.12.16-.14.18-.16.11-.12.19-.21.08-.11.18-.23.09-.15.13-.22.11-.22.08-.16c0-.09.07-.18.1-.27l0-.13c0-.09,0-.18.07-.27l0-.16c0-.08,0-.15,0-.23s0-.14,0-.21,0-.13,0-.19,0-.18,0-.27,0,0,0-.05V237.56Z" transform="translate(-234.99 -233.04)" style="fill:#231f20"/></g><circle id="pivot_center" cx="15.01" cy="21.06" r="2.65" style="fill:none"/><circle id="pivot_ground" cx="15.01" cy="39.47" r="2.65" style="fill:none"/></g></svg>