<svg id="Layer_1" data-name="Layer 1" xmlns="http://www.w3.org/2000/svg" viewBox="0 0 29.33 42.11"><title>p</title><g id="P"><g id="P-2" data-name="P"><path d="M368.68,233a4.51,4.51,0,1,0,0,9,3.76,3.76,0,1,1,0,7.52,4.51,4.51,0,1,0,0,9,12.78,12.78,0,0,0,0-25.57Z" transform="translate(-352.14 -233.04)" style="fill:#231f20"/><path d="M356.65,233a4.51,4.51,0,0,0-4.51,4.51v33.09a4.51,4.51,0,0,0,9,0V237.56a4.51,4.51,0,0,0-4.51-4.51Z" transform="translate(-352.14 -233.04)" style="fill:#231f20"/></g><circle id="pivot_center" cx="15.23" cy="21.06" r="2.65" style="fill:none"/><circle id="pivot_ground" cx="15.23" cy="39.47" r="2.65" style="fill:none"/></g></svg>