<svg id="Layer_1" data-name="Layer 1" xmlns="http://www.w3.org/2000/svg" viewBox="0 0 31.59 42.11"><title>r</title><g id="R"><g id="R-2" data-name="R"><path d="M495.65,248.08a15.06,15.06,0,0,0-15-15h-12a4.51,4.51,0,0,0-4.51,4.51v33.09a4.51,4.51,0,0,0,9,0V242.07h7.52a6,6,0,0,1,0,12,4.51,4.51,0,1,0,0,9,15.06,15.06,0,0,0,15-15Z" transform="translate(-464.06 -233.04)" style="fill:#231f20"/><path d="M491.13,266.13a4.51,4.51,0,1,0,4.51,4.51,4.51,4.51,0,0,0-4.51-4.51Z" transform="translate(-464.06 -233.04)" style="fill:#231f20"/></g><circle id="pivot_center" cx="15.79" cy="21.06" r="2.65" style="fill:none"/><circle id="pivot_ground" cx="15.79" cy="39.47" r="2.65" style="fill:none"/></g></svg>