<svg id="Layer_1" data-name="Layer 1" xmlns="http://www.w3.org/2000/svg" viewBox="0 0 37.6 42.26"><title>s</title><g id="S"><g id="S-2" data-name="S"><path d="M62.21,317.19a4.51,4.51,0,1,0-4.51-4.51,4.51,4.51,0,0,0,4.51,4.51Z" transform="translate(-30.32 -304.09)" style="fill:#231f20"/><path d="M55.14,320.78h-.06l-11.85.15a3.91,3.91,0,0,1,0-7.82h5.93a4.51,4.51,0,0,0,0-9H43.26a12.93,12.93,0,1,0,0,25.87h.06l11.85-.15a3.76,3.76,0,0,1,0,7.52H49.19a4.51,4.51,0,1,0,0,9h5.95a12.78,12.78,0,1,0,0-25.57Z" transform="translate(-30.32 -304.09)" style="fill:#231f20"/><path d="M35.93,342.28a4.51,4.51,0,1,0-4.51-4.51,4.51,4.51,0,0,0,4.51,4.51Z" transform="translate(-30.32 -304.09)" style="fill:#231f20"/></g><circle id="pivot_center" cx="18.8" cy="21.06" r="2.65" style="fill:none"/><circle id="pivot_ground" cx="18.8" cy="39.47" r="2.65" style="fill:none"/></g></svg>