<svg id="Layer_1" data-name="Layer 1" xmlns="http://www.w3.org/2000/svg" viewBox="0 0 46.46 42.14"><title>w</title><g id="W"><g id="W-2" data-name="W"><path d="M298,313.09a4.51,4.51,0,1,0-4.51-4.51,4.51,4.51,0,0,0,4.51,4.51Z" transform="translate(-256.04 -304.07)" style="fill:#231f20"/><path d="M279.91,307.28a4.51,4.51,0,0,0-8.63,2.64L281.4,343a4.51,4.51,0,1,0,8.63-2.64l-10.12-33.09Z" transform="translate(-256.04 -304.07)" style="fill:#231f20"/><path d="M264.87,307.28a4.51,4.51,0,0,0-8.63,2.64L266.36,343a4.52,4.52,0,0,0,4.31,3.19A4.57,4.57,0,0,0,272,346a4.51,4.51,0,0,0,3-5.64l-10.12-33.09Z" transform="translate(-256.04 -304.07)" style="fill:#231f20"/></g><circle id="pivot_center" cx="24.21" cy="21.08" r="2.65" style="fill:none"/><circle id="pivot_ground" cx="24.21" cy="39.49" r="2.65" style="fill:none"/></g></svg>