<svg id="Layer_1" data-name="Layer 1" xmlns="http://www.w3.org/2000/svg" viewBox="0 0 28.21 42.16"><title>x</title><g id="X"><g id="X-2" data-name="X"><path d="M326.71,337.2a4.51,4.51,0,1,0,4.51,4.51,4.51,4.51,0,0,0-4.51-4.51Z" transform="translate(-322.2 -304.07)" style="fill:#231f20"/><path d="M345.89,313.09a4.51,4.51,0,1,0-4.51-4.51,4.51,4.51,0,0,0,4.51,4.51Z" transform="translate(-322.2 -304.07)" style="fill:#231f20"/><path d="M330.63,306.34a4.51,4.51,0,0,0-7.81,4.51l19.13,33.09a4.51,4.51,0,0,0,7.81-4.52l-19.13-33.09Z" transform="translate(-322.2 -304.07)" style="fill:#231f20"/></g><circle id="pivot_center" cx="14.09" cy="21.08" r="2.65" style="fill:none"/><circle id="pivot_ground" cx="14.09" cy="39.49" r="2.65" style="fill:none"/></g></svg>