<svg id="Layer_1" data-name="Layer 1" xmlns="http://www.w3.org/2000/svg" viewBox="0 0 36.79 42.11"><title>z</title><g id="Z"><g id="Z-2" data-name="Z"><path d="M466.11,337.18h-18l21.55-25.68a4.51,4.51,0,0,0-6.91-5.8L435,338.79a4.5,4.5,0,0,0-1,3.8v0c0,.14.06.27.1.41v0c0,.13.09.26.14.38v0c.05.13.11.25.18.38h0a4.46,4.46,0,0,0,1.81,1.81h0l.35.17.06,0,.33.12.08,0,.34.08.09,0,.37.06H438l.44,0h27.65a4.51,4.51,0,1,0,0-9Z" transform="translate(-433.95 -304.09)" style="fill:#231f20"/><path d="M438.46,313.11h12.75a4.51,4.51,0,1,0,0-9H438.46a4.51,4.51,0,1,0,0,9Z" transform="translate(-433.95 -304.09)" style="fill:#231f20"/></g><circle id="pivot_center" cx="20.25" cy="21.06" r="2.65" style="fill:none"/><circle id="pivot_ground" cx="20.25" cy="39.47" r="2.65" style="fill:none"/></g></svg>