<svg xmlns="http://www.w3.org/2000/svg" viewBox="0 0 490.77 490.77"><defs><style>.cls-1{fill:#124574;}.cls-2{fill:#16203e;}.cls-3{fill:#fff;}.cls-4{fill:#dbdada;}</style></defs><title>face.svg</title><g id="Layer_2" data-name="Layer 2"><g id="Layer_1-2" data-name="Layer 1"><g id="face"><circle class="cls-1" cx="245.38" cy="245.38" r="245.38" transform="translate(-101.64 245.38) rotate(-45)"/><circle class="cls-2" cx="249.06" cy="241.71" r="219.65" transform="translate(-97.97 246.91) rotate(-45)"/><circle class="cls-3" cx="245.38" cy="245.38" r="204.95" transform="translate(-101.64 245.38) rotate(-45)"/><path class="cls-1" d="M242.63,83.63h0A4.61,4.61,0,0,1,238,79V51.46a4.6,4.6,0,1,1,9.19,0V79A4.61,4.61,0,0,1,242.63,83.63Z"/><path class="cls-1" d="M402.55,243.55h0a4.61,4.61,0,0,1,4.6-4.6h27.57a4.6,4.6,0,0,1,0,9.19H407.14A4.61,4.61,0,0,1,402.55,243.55Z"/><path class="cls-1" d="M355.71,130.47h0a4.61,4.61,0,0,1,0-6.5l19.5-19.5a4.61,4.61,0,0,1,6.5,0h0a4.61,4.61,0,0,1,0,6.5l-19.5,19.5A4.61,4.61,0,0,1,355.71,130.47Z"/><path class="cls-4" d="M270.2,424.14a207.08,207.08,0,0,1-23-1.29v12.78a4.6,4.6,0,0,1-9.19,0v-14a204.36,204.36,0,0,1-111.09-55.89l-16.88,16.88a4.6,4.6,0,0,1-6.5-6.5l17-17a204.25,204.25,0,0,1-53.22-111H50.55a4.6,4.6,0,1,1,0-9.19H66.21c-.62-6.5-1-13.09-1-19.76A204,204,0,0,1,109.64,91.9a204.4,204.4,0,0,0-69.2,153.48c0,113.19,91.76,204.95,204.95,204.95A204.52,204.52,0,0,0,406,372.67,204.13,204.13,0,0,1,270.2,424.14Z"/><path class="cls-1" d="M355.71,356.62h0a4.61,4.61,0,0,1,6.5,0l19.5,19.5a4.6,4.6,0,1,1-6.5,6.5l-19.5-19.5A4.61,4.61,0,0,1,355.71,356.62Z"/><path class="cls-1" d="M103.56,104.47h0a4.61,4.61,0,0,1,6.5,0l19.5,19.5a4.6,4.6,0,0,1-6.5,6.5L103.56,111A4.61,4.61,0,0,1,103.56,104.47Z"/><path class="cls-1" d="M242.63,440.22h0a4.61,4.61,0,0,1-4.6-4.6V408.06a4.6,4.6,0,1,1,9.19,0v27.57A4.61,4.61,0,0,1,242.63,440.22Z"/><path class="cls-1" d="M46,243.55h0a4.61,4.61,0,0,1,4.6-4.6H78.12a4.6,4.6,0,1,1,0,9.19H50.55A4.61,4.61,0,0,1,46,243.55Z"/><path class="cls-1" d="M103.56,382.62h0a4.61,4.61,0,0,1,0-6.5l19.5-19.5a4.6,4.6,0,0,1,6.5,6.5l-19.5,19.5A4.61,4.61,0,0,1,103.56,382.62Z"/></g></g></g></svg>