<svg id="mali" xmlns="http://www.w3.org/2000/svg" viewBox="0 0 37 35"><title>mali</title><g id="mali-2" data-name="mali"><path id="Mali-3" data-name="Mali" d="M384.06,437.95s0-1.63-1-2.22a7.09,7.09,0,0,0-2.37-.74,11.32,11.32,0,0,0-1.33-1.92c-.36-.36-7.28-5-13-8.75h-3.55l2,18.6.66.66s.09,1.6-.28,1.79-8.21.1-8.21.1a3.73,3.73,0,0,1-1.32.38c-.57,0-1.23-.38-1.42-.09s-.19,1-1.13.19-1.23-.1-1.23.47-.49.66-1.12.68a3.13,3.13,0,0,1,.19.49l.39.58a2.1,2.1,0,0,0,.31,1.31,5.17,5.17,0,0,1,1.12,1.37,15.15,15.15,0,0,1,0,1.68s.25,1.06.62.56.93.43,1.18-.19,1.06.12,1.43.12,1.25-1.12,1.49-1.06a2.66,2.66,0,0,1,.81,1.56c0,.44,1.12.87.75,1s-.44.75,0,.75.25.81.5,1.18.75.68,1,.12.81-.06,1.06.31,1.06-.06,1.18-.56,1.12-.69,1.06-.12.12.69.75.25a.78.78,0,0,1,.59-.12,14.05,14.05,0,0,1,.59-1.62c.19-.37-.44-1.25-.12-1.37s1.37.12,1.68-.75a4.51,4.51,0,0,1,.69-1.31s.12-1.86.68-1.55,1.24.81,1.31.06.75-.31.93-1,.56-.62,1-.5.81-.06.81-.44,1-.19,1.81-.75,1.24-1,1.55-.69a5.55,5.55,0,0,0,2.68.13c.31-.12.93-.68,1.68-.56a29.4,29.4,0,0,0,3.3-.31c.75,0,1.06-.68,1.31-.93s.44-1.37.69-1.55a39.44,39.44,0,0,0,.13-5.6Z" transform="translate(-350 -423)" style="fill:#006071;stroke:#bbe6f8;stroke-miterlimit:10;stroke-width:0.25px"/><circle id="pivot_north_mali" cx="16" cy="1" r="1" style="fill:none"/><circle id="pivot_west_mali" cx="1" cy="24" r="1" style="fill:none"/><circle id="pivot_south_mali" cx="14" cy="34" r="1" style="fill:none"/><circle id="pivot_east_mali" cx="36" cy="17" r="1" style="fill:none"/><circle id="pivot_world_mali" cx="15" cy="16" r="1" style="fill:none"/></g></svg>