<svg id="zambia" xmlns="http://www.w3.org/2000/svg" viewBox="0 0 25.22 21.45"><title>zambia</title><g id="zambia-2" data-name="zambia"><path id="zambia-3" data-name="zambia" d="M440.49,496.74a4.44,4.44,0,0,1-1.52-.87c-.41.45-1.83.38-2.53.38s-.09,1-.56,1.4-.65.93-.28,1.12-.09,1.78-.09,2.33-.75,1.77-.47,2,.75,1.5,1.4,1.68,1.12-.47,1.4-.47.28.84.28,1.5a1.17,1.17,0,0,1-.37.93s-1,.37-1.49,0a3.1,3.1,0,0,1-.84-1.77c0-.37-1.12-.37-1.59-.37s-.93-.84-1.12-1.21-.75.09-.75.37-.47.28-.93.28-1.4-.75-1.77-.56-.75-.65-.65-1-.93-.09-1.31.09-.56-.47-.56-.47a1.51,1.51,0,0,0-.55-.54l-.45,4.18-.54.54-3.12-.11-.22,7,2.4,3.28c1.25-.25,3.84-.61,3.84-.18a1.09,1.09,0,0,0,.17.49,3.87,3.87,0,0,1,1.07-.16c.5.06,2.18.68,2.68.43s1.37-2.11,2.18-2.36,1.93-1.12,1.93-1.49,0-.75,1.18-1.06l1.81-.06h.12l-.43-1.56s5.51-2.06,5.83-2.11c-.24-.5-.49-.87-.37-.92s.32-1.62.32-2,1.29-.11.86-.54-.32-2.91-.11-3.45.75,0,.75-.43a6.87,6.87,0,0,0-1-2.26,9.38,9.38,0,0,0-2.69-1.18C441.89,497.39,441,496.74,440.49,496.74Z" transform="translate(-421 -495.71)" style="fill:#006071;stroke:#bbe6f8;stroke-miterlimit:10;stroke-width:0.25px"/><circle id="pivot_north_zambia" cx="17" cy="1.29" r="1" style="fill:none"/><circle id="pivot_west_zambia" cx="1" cy="13.29" r="1" style="fill:none"/><circle id="pivot_south_zambia" cx="15" cy="20.29" r="1" style="fill:none"/><circle id="pivot_east_zambia" cx="24" cy="8.29" r="1" style="fill:none"/><circle id="pivot_world_zambia" cx="13" cy="10.29" r="1" style="fill:none"/></g></svg>