<svg id="car_body" xmlns="http://www.w3.org/2000/svg" viewBox="0 0 486.63 214.66"><title>car_body</title><g id="car_body-2" data-name="car_body"><rect x="473.56" y="99.45" width="12.39" height="26.72" rx="2.85" ry="2.85" style="fill:#f2e297"/><rect x="470.81" y="97.25" width="12.39" height="30.3" rx="2.85" ry="2.85" style="fill:#d32027"/><path d="M46.6,136.51V103.26a33.48,33.48,0,0,1,2.91-15.11c2.59-6.48,24.18-55.69,25.9-59.58s3.89-6.48,8.2-6.48H310.4c4.75,0,8.09,1.3,10.69,4.75l50.57,67.31s84.82,7.35,90.83,8.35,10.35,7,12,14v10.91H81.69Z" transform="translate(-6.24 -22.09)" style="fill:#e42526"/><path d="M474,112.76H46.94v8a10.67,10.67,0,0,0-.34,2.64v42.9A10.69,10.69,0,0,0,57.29,177H474a10.69,10.69,0,0,0,10.69-10.69v-42.9A10.69,10.69,0,0,0,474,112.76Z" transform="translate(-6.24 -22.09)" style="fill:#d32027"/><polygon points="165.69 114.41 99.39 114.41 62.17 150.83 96.6 172.77 166.73 172.77 187.6 150.83 165.69 114.41" style="fill:#31302c"/><polygon points="434.17 114.41 367.87 114.41 338.62 150.83 365.08 172.77 435.21 172.77 465.05 150.83 434.17 114.41" style="fill:#31302c"/><path d="M488.45,181.67v-27a5.34,5.34,0,0,0-5.34-5.34H452.26a5.34,5.34,0,0,0-5.34,5.34l20.77,27Z" transform="translate(-6.24 -22.09)" style="fill:#31302c"/><path d="M38.56,181.67v-27a5.34,5.34,0,0,1,5.34-5.34H85.44a5.34,5.34,0,0,1,5.34,5.34L70,181.67Z" transform="translate(-6.24 -22.09)" style="fill:#31302c"/><path d="M164.72,91.54H248V35.32l-65,0ZM318.18,41.81c-2.21-2.65-4.63-6.18-8.16-6.4-1.08-.07-21.43-.09-49.33-.1V91.54h92.87S320.39,44.46,318.18,41.81Zm-226.8-6.4a10.4,10.4,0,0,0-9.49,6.18C80.57,44.9,63.36,91.54,63.36,91.54H152l18.25-56.19Z" transform="translate(-6.24 -22.09)" style="fill:#d3eded"/><path d="M467.08,120.31a3.83,3.83,0,0,1-3.83,3.83H448.62a3.83,3.83,0,0,1-3.83-3.83h0a3.83,3.83,0,0,1,3.83-3.83h14.63a3.83,3.83,0,0,1,3.83,3.83Z" transform="translate(-6.24 -22.09)" style="fill:#f2ce1e"/><path d="M474.27,177a7.71,7.71,0,0,1-6-3.46L443.48,130.9a7.71,7.71,0,0,0-6-3.46H368.66a7.71,7.71,0,0,0-6,3.46l-24.78,42.68a7.71,7.71,0,0,1-6,3.46H206.81a7.71,7.71,0,0,1-6-3.46L176,130.9a7.71,7.71,0,0,0-6-3.46H101.2a7.71,7.71,0,0,0-6,3.46L70.41,173.57a7.71,7.71,0,0,1-6,3.46h-26A3.2,3.2,0,0,0,35.19,181l1.53,8.16a5,5,0,0,0,4.74,3.93H71.53a7.82,7.82,0,0,0,6-3.44l27.41-46a7.82,7.82,0,0,1,6-3.44h49.16a7.81,7.81,0,0,1,6,3.44l27.32,46a7.81,7.81,0,0,0,6,3.44h139.5a7.81,7.81,0,0,0,6-3.44l27.32-46a7.81,7.81,0,0,1,6-3.44h49.16a7.82,7.82,0,0,1,6,3.44l27.41,46a7.82,7.82,0,0,0,6,3.44h19.38a5,5,0,0,0,4.74-3.93L492.8,181a3.2,3.2,0,0,0-3.26-3.93Z" transform="translate(-6.24 -22.09)" style="fill:#3c3a3a"/><path d="M56.43,115.52H46.6V143h9.83a2.85,2.85,0,0,0,2.85-2.85V118.37A2.85,2.85,0,0,0,56.43,115.52Z" transform="translate(-6.24 -22.09)" style="fill:#413a39"/><rect x="40.71" y="104.61" width="9.5" height="6.04" style="fill:#f68724"/><polygon points="40.71 104.61 40.36 104.61 40.36 104.61 40.71 104.61 40.71 104.61" style="fill:#ee2424"/><path d="M53.6,118.08h-7v8.63h9.84v-5.78A2.85,2.85,0,0,0,53.6,118.08Z" transform="translate(-6.24 -22.09)" style="fill:#ee2424"/><path d="M46.94,132.74H46.6v7.74h7a2.85,2.85,0,0,0,2.85-2.85v-4.89h-9.5Z" transform="translate(-6.24 -22.09)" style="fill:#fed210"/><rect y="41.35" width="40.71" height="81.45" rx="5.34" ry="5.34" style="fill:#31302c"/><path d="M184.28,29.64a8.37,8.37,0,0,0-7.46,5.42l-18.4,56.78A43.37,43.37,0,0,0,156.67,103v9.42a5.72,5.72,0,0,0,5.7,5.7h10.51a10.51,10.51,0,0,1,8.39,5l22.36,41.68a10.51,10.51,0,0,0,8.39,5h43.24V29.64h-71Z" transform="translate(-6.24 -22.09)" style="fill:none;stroke:#b01f24;stroke-miterlimit:10"/><path d="M261,29.64h-5.7V169.8H327.8a10.44,10.44,0,0,0,8.37-5l20.88-39.41a27.25,27.25,0,0,0,2.67-10.73V97.24a21.09,21.09,0,0,0-3.29-10.35L319.29,34.29a12.38,12.38,0,0,0-9-4.65Z" transform="translate(-6.24 -22.09)" style="fill:none;stroke:#b01f24;stroke-miterlimit:10"/><g style="opacity:0.6000000000000001"><path d="M213.34,35.33H207L175.9,57.1l-1.85,5.7Z" transform="translate(-6.24 -22.09)" style="fill:#fff"/><path d="M260.69,50.68l22-15.35h-22Z" transform="translate(-6.24 -22.09)" style="fill:#fff"/><path d="M182.93,35.48l-4.18,12.86,18.61-13H183.13Z" transform="translate(-6.24 -22.09)" style="fill:#fff"/><path d="M118.19,35.39l-46,32.14c-4.5,12.17-8.87,24-8.87,24H71l80.34-56.18Z" transform="translate(-6.24 -22.09)" style="fill:#fff"/><path d="M167.11,35.35h-8.93L77.84,91.54h8.92Z" transform="translate(-6.24 -22.09)" style="fill:#fff"/><path d="M260.69,72.57l51.95-36.33a6.05,6.05,0,0,0-2.62-.83c-.3,0-2.08,0-5.07,0L260.69,66.31Z" transform="translate(-6.24 -22.09)" style="fill:#fff"/><polygon points="241.71 37.49 241.71 13.7 162 69.44 196.01 69.44 241.71 37.49" style="fill:#fff"/><path d="M318.18,41.81l-.08-.1L260.69,81.86v9.68h.37l61.85-43.25C320.41,44.79,318.63,42.36,318.18,41.81Z" transform="translate(-6.24 -22.09)" style="fill:#fff"/><path d="M341.89,75c-3.46-4.9-7.26-10.27-10.81-15.25L285.61,91.54h32.62Z" transform="translate(-6.24 -22.09)" style="fill:#fff"/><polygon points="241.71 68.67 240.6 69.44 241.71 69.44 241.71 68.67" style="fill:#fff"/><polygon points="241.71 59.38 241.71 53.13 218.38 69.44 227.32 69.44 241.71 59.38" style="fill:#fff"/><polygon points="156.03 37.78 160.21 24.91 96.52 69.44 110.74 69.44 156.03 37.78" style="fill:#fff"/><polygon points="151.33 52.23 153.18 46.53 120.42 69.44 126.72 69.44 151.33 52.23" style="fill:#fff"/></g><path d="M186.69,106.54a2.37,2.37,0,0,1-2.37,2.37H170.61a2.37,2.37,0,0,1-2.37-2.37h0a2.37,2.37,0,0,1,2.37-2.37h13.71a2.37,2.37,0,0,1,2.37,2.37Z" transform="translate(-6.24 -22.09)" style="fill:#31302c"/><path d="M284.11,106.54a2.37,2.37,0,0,1-2.37,2.37H268a2.37,2.37,0,0,1-2.37-2.37h0a2.37,2.37,0,0,1,2.37-2.37h13.71a2.37,2.37,0,0,1,2.37,2.37Z" transform="translate(-6.24 -22.09)" style="fill:#31302c"/><rect x="333.39" y="44.29" width="18.19" height="28.37" rx="5.34" ry="5.34" style="fill:#413a39"/><circle id="pivot_back" cx="128.82" cy="169.55" r="2.24" style="fill:none"/><circle id="pivot_front" cx="396.96" cy="169.55" r="2.24" style="fill:none"/><circle id="pivot_ground" cx="396.31" cy="212.42" r="2.24" style="fill:none"/></g></svg>