<svg id="wheels" xmlns="http://www.w3.org/2000/svg" viewBox="0 0 90.24 90.24"><title>wheel_back</title><g id="wheel_back"><g id="wheel_back-2" data-name="wheel_back"><circle cx="45.12" cy="45.12" r="45.12" style="fill:#1a1a1a"/><circle cx="45.12" cy="45.12" r="29.04" style="fill:#a3a3a2"/><circle cx="45.12" cy="45.12" r="22.31" style="fill:#3c3a3a"/><path d="M132.79,190a.82.82,0,0,1-.88.76h0a.82.82,0,0,1-.76-.88l1.61-22.34a.82.82,0,0,1,.88-.76h0a.82.82,0,0,1,.76.88Z" transform="translate(-89.94 -146.52)" style="fill:#a3a3a2"/><path d="M137.32,190a.82.82,0,0,0,.88.76h0a.82.82,0,0,0,.76-.88l-1.61-22.34a.82.82,0,0,0-.88-.76h0a.82.82,0,0,0-.76.88Z" transform="translate(-89.94 -146.52)" style="fill:#a3a3a2"/><path d="M137.32,193.26a.82.82,0,0,1,.88-.76h0a.82.82,0,0,1,.76.88l-1.61,22.34a.82.82,0,0,1-.88.76h0a.82.82,0,0,1-.76-.88Z" transform="translate(-89.94 -146.52)" style="fill:#a3a3a2"/><path d="M132.79,193.26a.82.82,0,0,0-.88-.76h0a.82.82,0,0,0-.76.88l1.61,22.34a.82.82,0,0,0,.88.76h0a.82.82,0,0,0,.76-.88Z" transform="translate(-89.94 -146.52)" style="fill:#a3a3a2"/><path d="M132.53,192.81a.82.82,0,0,1,.23,1.14h0a.82.82,0,0,1-1.14.23L113,181.73a.82.82,0,0,1-.23-1.14h0a.82.82,0,0,1,1.14-.23Z" transform="translate(-89.94 -146.52)" style="fill:#a3a3a2"/><path d="M134.77,188.88a.82.82,0,0,0,1.1-.39h0a.82.82,0,0,0-.39-1.1l-20.21-9.65a.82.82,0,0,0-1.1.39h0a.82.82,0,0,0,.39,1.1Z" transform="translate(-89.94 -146.52)" style="fill:#a3a3a2"/><path d="M137.58,190.48a.82.82,0,0,1-.23-1.14h0a.82.82,0,0,1,1.14-.23l18.62,12.45a.82.82,0,0,1,.23,1.14h0a.82.82,0,0,1-1.14.23Z" transform="translate(-89.94 -146.52)" style="fill:#a3a3a2"/><path d="M135.34,194.41a.82.82,0,0,0-1.1.39h0a.82.82,0,0,0,.39,1.1l20.21,9.65a.82.82,0,0,0,1.1-.39h0a.82.82,0,0,0-.39-1.1Z" transform="translate(-89.94 -146.52)" style="fill:#a3a3a2"/><path d="M137.58,192.81a.82.82,0,0,0-.23,1.14h0a.82.82,0,0,0,1.14.23l18.62-12.45a.82.82,0,0,0,.23-1.14h0a.82.82,0,0,0-1.14-.23Z" transform="translate(-89.94 -146.52)" style="fill:#a3a3a2"/><path d="M135.34,188.88a.82.82,0,0,1-1.1-.39h0a.82.82,0,0,1,.39-1.1l20.21-9.65a.82.82,0,0,1,1.1.39h0a.82.82,0,0,1-.39,1.1Z" transform="translate(-89.94 -146.52)" style="fill:#a3a3a2"/><path d="M132.53,190.48a.82.82,0,0,0,.23-1.14h0a.82.82,0,0,0-1.14-.23L113,201.56a.82.82,0,0,0-.23,1.14h0a.82.82,0,0,0,1.14.23Z" transform="translate(-89.94 -146.52)" style="fill:#a3a3a2"/><path d="M134.77,194.41a.82.82,0,0,1,1.1.39h0a.82.82,0,0,1-.39,1.1l-20.21,9.65a.82.82,0,0,1-1.1-.39h0a.82.82,0,0,1,.39-1.1Z" transform="translate(-89.94 -146.52)" style="fill:#a3a3a2"/><ellipse cx="45.12" cy="45.12" rx="10.18" ry="10.39" style="fill:#b9b9b9"/><ellipse cx="45.12" cy="45.12" rx="5.52" ry="5.64" style="fill:#d7d6d6"/></g><circle id="pivot" cx="45.12" cy="45.12" r="2.24" style="fill:none"/></g></svg>