<svg id="Layer_1" data-name="Layer 1" xmlns="http://www.w3.org/2000/svg" viewBox="0 0 480.7 254.67"><title>bench_a</title><g id="bench_a"><g id="bench_a-2" data-name="bench_a"><rect x="41.1" width="398.79" height="30" rx="15" ry="15" style="fill:#d1d3d4"/><rect x="41.1" y="69.37" width="398.79" height="30" rx="15" ry="15" style="fill:#d1d3d4"/><rect x="1.22" y="141.79" width="478.55" height="30" rx="15" ry="15" style="fill:#d1d3d4"/><rect x="41.1" y="34.37" width="398.79" height="30" rx="15" ry="15" style="fill:#d1d3d4"/><rect x="21.16" y="106.36" width="438.67" height="30" rx="15" ry="15" style="fill:#d1d3d4"/><path d="M71.29,376.83H62.52a15,15,0,0,1-15-15h0a15,15,0,0,1,15-15h3.91a15,15,0,0,0,15-15V293.95a15,15,0,0,1,15-15h0a15,15,0,0,1,15,15v42.75A40.13,40.13,0,0,1,71.29,376.83Z" transform="translate(-9.64 -122.16)" style="fill:#d1d3d4"/><path d="M421.66,376.83h-8.77a40.13,40.13,0,0,1-40.13-40.13V293.95a15,15,0,0,1,15-15h0a15,15,0,0,1,15,15v37.88a15,15,0,0,0,15,15h3.91a15,15,0,0,1,15,15h0A15,15,0,0,1,421.66,376.83Z" transform="translate(-9.64 -122.16)" style="fill:#d1d3d4"/></g><circle id="pivot_ground" cx="62.34" cy="237.38" r="9.45" style="fill:none"/><circle id="pivot_top" cx="249.12" cy="17.28" r="9.45" style="fill:none"/><circle id="pivot_left_end" cx="9.45" cy="156.79" r="9.45" style="fill:none"/><circle id="pivot_right_end" cx="471.25" cy="159.02" r="9.45" style="fill:none"/></g></svg>