<svg id="Layer_1" data-name="Layer 1" xmlns="http://www.w3.org/2000/svg" viewBox="0 0 489.04 413.45"><title>birds_three</title><g id="birds_three"><g id="birds_three-2" data-name="birds_three"><path d="M372.83,346.29h3.78A26.27,26.27,0,0,0,402.87,320a64.79,64.79,0,0,1,19.69-46.69,62.42,62.42,0,0,1,44.61-18.16,26.26,26.26,0,1,0,1.14-52.5,116.07,116.07,0,0,0-82.51,33.14,119.37,119.37,0,0,0-11.09,12.47,119.5,119.5,0,0,0-11.09-12.47,115.73,115.73,0,0,0-82.51-33.14,26.26,26.26,0,0,0,.56,52.52l1.89,0c16,0,31.32,6.42,43.31,18.18A64.79,64.79,0,0,1,346.57,320a26.27,26.27,0,0,0,26.26,26.3Z" transform="translate(-4.96 -43.88)" style="fill:#d1d3d4"/><path d="M122.35,187.56h3.78a26.26,26.26,0,0,0,26.26-26.3,64.78,64.78,0,0,1,19.69-46.68c12.31-12.07,28.11-18.47,44.62-18.17,14.69.61,26.5-11.18,26.82-25.69a26.25,26.25,0,0,0-25.69-26.81c-30.22-.71-60.35,11.43-82.51,33.15a121.87,121.87,0,0,0-11.08,12.45,121.28,121.28,0,0,0-11.08-12.45C91,55.34,60.62,43.18,30.65,43.91a26.26,26.26,0,0,0,.55,52.52l1.88,0c16,0,31.34,6.43,43.33,18.19a64.79,64.79,0,0,1,19.68,46.68,26.27,26.27,0,0,0,26.26,26.3Z" transform="translate(-4.96 -43.88)" style="fill:#d1d3d4"/><path d="M117.16,457h2.37a26.25,26.25,0,0,0,26.26-26.29,31.07,31.07,0,0,1,9.44-22.36,30.32,30.32,0,0,1,21-8.62h.59a26.25,26.25,0,0,0,.56-52.5,81.48,81.48,0,0,0-58.89,23.6l-.14.13-.13-.12c-15.79-15.48-37.15-24.27-58.89-23.61a26.26,26.26,0,1,0,1.14,52.5,30.45,30.45,0,0,1,21,8.63,31,31,0,0,1,9.44,22.35A26.25,26.25,0,0,0,117.16,457Z" transform="translate(-4.96 -43.88)" style="fill:#d1d3d4"/></g><circle id="pivot_bottom" cx="113.39" cy="404" r="9.45" style="fill:none"/><circle id="pivot_top" cx="32.59" cy="9.45" r="9.45" style="fill:none"/><circle id="pivot_left_end" cx="9.45" cy="24.29" r="9.45" style="fill:none"/><circle id="pivot_right_end" cx="479.59" cy="187.16" r="9.45" style="fill:none"/></g></svg>