<svg id="Layer_1" data-name="Layer 1" xmlns="http://www.w3.org/2000/svg" viewBox="0 0 486.76 452.53"><title>building_cbd_a</title><g id="building_cbd_a"><g id="building_cbd_a-2" data-name="building_cbd_a"><path d="M483.67,109.7h-468a4.17,4.17,0,0,1-4-5.36L31,39.47a14,14,0,0,1,13.37-10H454.91a14,14,0,0,1,13.37,10l19.38,64.87A4.17,4.17,0,0,1,483.67,109.7Z" transform="translate(-7.14 -22.96)" style="fill:#f1f2f2;stroke:#00aeef;stroke-miterlimit:10;stroke-width:4px"/><path d="M16.79,86.75H468.22a0,0,0,0,1,0,0V447a1,1,0,0,1-1,1H17.75a1,1,0,0,1-1-1V86.75a0,0,0,0,1,0,0Z" style="fill:#f1f2f2;stroke:#00aeef;stroke-miterlimit:10;stroke-width:4px"/><rect x="67.82" y="139.34" width="56.95" height="64.61" rx="9.41" ry="9.41" style="fill:#f1f2f2;stroke:#00aeef;stroke-miterlimit:10;stroke-width:4px"/><rect x="365.4" y="139.34" width="56.95" height="64.61" rx="9.41" ry="9.41" style="fill:#f1f2f2;stroke:#00aeef;stroke-miterlimit:10;stroke-width:4px"/><rect x="266.53" y="139.34" width="56.95" height="64.61" rx="9.41" ry="9.41" style="fill:#f1f2f2;stroke:#00aeef;stroke-miterlimit:10;stroke-width:4px"/><rect x="167.18" y="139.34" width="56.95" height="64.61" rx="9.41" ry="9.41" style="fill:#f1f2f2;stroke:#00aeef;stroke-miterlimit:10;stroke-width:4px"/><rect x="67.82" y="319.69" width="56.95" height="64.61" rx="9.41" ry="9.41" style="fill:#f1f2f2;stroke:#00aeef;stroke-miterlimit:10;stroke-width:4px"/><rect x="365.4" y="319.69" width="56.95" height="64.61" rx="9.41" ry="9.41" style="fill:#f1f2f2;stroke:#00aeef;stroke-miterlimit:10;stroke-width:4px"/><rect x="266.53" y="319.69" width="56.95" height="64.61" rx="9.41" ry="9.41" style="fill:#f1f2f2;stroke:#00aeef;stroke-miterlimit:10;stroke-width:4px"/><rect x="167.18" y="319.69" width="56.95" height="64.61" rx="9.41" ry="9.41" style="fill:#f1f2f2;stroke:#00aeef;stroke-miterlimit:10;stroke-width:4px"/><rect x="16.79" y="243.53" width="451.43" height="23.61" style="fill:#f1f2f2;stroke:#00aeef;stroke-miterlimit:10;stroke-width:4px"/></g><circle id="pivot_ground" cx="257.08" cy="443.08" r="9.45" style="fill:none"/><circle id="pivot_top" cx="262.25" cy="9.45" r="9.45" style="fill:none"/><circle id="pivot_left_end" cx="9.45" cy="257.61" r="9.45" style="fill:none"/><circle id="pivot_right_end" cx="477.31" cy="229.25" r="9.45" style="fill:none"/></g></svg>