<svg id="Layer_1" data-name="Layer 1" xmlns="http://www.w3.org/2000/svg" viewBox="0 0 220.81 484.88"><title>building_cbd_d</title><g id="building_cbd_d"><g id="building_cbd_d-2" data-name="building_cbd_d"><rect x="20.07" y="45.89" width="180.67" height="435.12" style="fill:#f1f2f2;stroke:#1b75bc;stroke-miterlimit:10;stroke-width:4px"/><polyline points="46.75 195.61 46.75 86.19 69.95 86.19 69.95 195.61" style="fill:none;stroke:#1b75bc;stroke-miterlimit:10;stroke-width:10px"/><polyline points="151.09 195.61 151.09 86.19 174.29 86.19 174.29 195.61" style="fill:none;stroke:#1b75bc;stroke-miterlimit:10;stroke-width:10px"/><polyline points="46.75 328.77 46.75 219.35 69.95 219.35 69.95 328.77" style="fill:none;stroke:#1b75bc;stroke-miterlimit:10;stroke-width:10px"/><polyline points="151.09 328.77 151.09 219.35 174.29 219.35 174.29 328.77" style="fill:none;stroke:#1b75bc;stroke-miterlimit:10;stroke-width:10px"/><polyline points="46.75 398.08 46.75 350.53 69.95 350.53 69.95 398.08" style="fill:none;stroke:#1b75bc;stroke-miterlimit:10;stroke-width:10px"/><polyline points="151.09 398.08 151.09 350.53 174.29 350.53 174.29 398.08" style="fill:none;stroke:#1b75bc;stroke-miterlimit:10;stroke-width:10px"/><polyline points="97.91 144.99 97.91 65.78 121.11 65.78 121.11 144.99" style="fill:none;stroke:#1b75bc;stroke-miterlimit:10;stroke-width:10px"/><polyline points="97.91 279.19 97.91 168.89 121.11 168.89 121.11 279.19" style="fill:none;stroke:#1b75bc;stroke-miterlimit:10;stroke-width:10px"/><polyline points="97.91 399.8 97.91 300.5 121.11 300.5 121.11 399.8" style="fill:none;stroke:#1b75bc;stroke-miterlimit:10;stroke-width:10px"/><rect x="2" y="396.48" width="216.81" height="84.47" rx="0.75" ry="0.75" style="fill:#f1f2f2;stroke:#1b75bc;stroke-miterlimit:10;stroke-width:4px"/><path d="M345.47,53.55H154a2.58,2.58,0,0,1-2.51-3.18l8.67-36.55a2.58,2.58,0,0,1,2.51-2H336.8a2.58,2.58,0,0,1,2.51,2L348,50.37A2.58,2.58,0,0,1,345.47,53.55Z" transform="translate(-139.34 -7.66)" style="fill:#f1f2f2;stroke:#1b75bc;stroke-miterlimit:10;stroke-width:4px"/><rect x="36.9" y="423.67" width="147.01" height="57.28" rx="0.75" ry="0.75" style="fill:#f1f2f2;stroke:#1b75bc;stroke-miterlimit:10;stroke-width:4px"/><line x1="111.27" y1="423.67" x2="111.27" y2="481.01" style="fill:#f1f2f2;stroke:#1b75bc;stroke-miterlimit:10;stroke-width:4px"/></g><circle id="pivot_ground" cx="111.27" cy="475.43" r="9.45" style="fill:none"/><circle id="pivot_top" cx="130.06" cy="9.45" r="9.45" style="fill:none"/><circle id="pivot_left_end" cx="16.08" cy="254" r="9.45" style="fill:none"/><circle id="pivot_right_end" cx="205.11" cy="178.34" r="9.45" style="fill:none"/></g></svg>