<svg id="Layer_1" data-name="Layer 1" xmlns="http://www.w3.org/2000/svg" viewBox="0 0 486.76 456.64"><title>building_cbd_b</title><g id="building_cbd_b"><g id="building_cbd_b-2" data-name="building_cbd_b"><path d="M4,68H481.74a0,0,0,0,1,0,0V450.2a.53.53,0,0,1-.53.53H4.56A.53.53,0,0,1,4,450.2V68a0,0,0,0,1,0,0Z" style="fill:#f1f2f2;stroke:#92278f;stroke-miterlimit:10;stroke-width:4px"/><path d="M488.88,90.93H11.17l22.09-36.5a6.15,6.15,0,0,1,5.26-3h423a6.15,6.15,0,0,1,5.26,3Z" transform="translate(-7.14 -22.96)" style="fill:#f1f2f2;stroke:#92278f;stroke-miterlimit:10;stroke-width:4px"/><path d="M381.4,51.46H118.66l11.69-21.85a5.13,5.13,0,0,1,4.53-2.71H365.19a5.13,5.13,0,0,1,4.53,2.71Z" transform="translate(-7.14 -22.96)" style="fill:#f1f2f2;stroke:#92278f;stroke-miterlimit:10;stroke-width:4px"/><rect x="48.21" y="102.47" width="43.01" height="21.02" rx="3.75" ry="3.75" style="fill:#f1f2f2;stroke:#92278f;stroke-miterlimit:10;stroke-width:4px"/><rect x="135.64" y="102.47" width="43.01" height="21.02" rx="3.75" ry="3.75" style="fill:#f1f2f2;stroke:#92278f;stroke-miterlimit:10;stroke-width:4px"/><rect x="223.38" y="102.47" width="43.01" height="21.02" rx="3.75" ry="3.75" style="fill:#f1f2f2;stroke:#92278f;stroke-miterlimit:10;stroke-width:4px"/><rect x="310.81" y="102.47" width="43.01" height="21.02" rx="3.75" ry="3.75" style="fill:#f1f2f2;stroke:#92278f;stroke-miterlimit:10;stroke-width:4px"/><rect x="398.09" y="102.47" width="43.01" height="21.02" rx="3.75" ry="3.75" style="fill:#f1f2f2;stroke:#92278f;stroke-miterlimit:10;stroke-width:4px"/><rect x="48.21" y="155.92" width="43.01" height="21.02" rx="3.75" ry="3.75" style="fill:#f1f2f2;stroke:#92278f;stroke-miterlimit:10;stroke-width:4px"/><rect x="135.64" y="155.92" width="43.01" height="21.02" rx="3.75" ry="3.75" style="fill:#f1f2f2;stroke:#92278f;stroke-miterlimit:10;stroke-width:4px"/><rect x="223.38" y="155.92" width="43.01" height="21.02" rx="3.75" ry="3.75" style="fill:#f1f2f2;stroke:#92278f;stroke-miterlimit:10;stroke-width:4px"/><rect x="310.81" y="155.92" width="43.01" height="21.02" rx="3.75" ry="3.75" style="fill:#f1f2f2;stroke:#92278f;stroke-miterlimit:10;stroke-width:4px"/><rect x="398.09" y="155.92" width="43.01" height="21.02" rx="3.75" ry="3.75" style="fill:#f1f2f2;stroke:#92278f;stroke-miterlimit:10;stroke-width:4px"/><rect x="48.21" y="209.37" width="43.01" height="21.02" rx="3.75" ry="3.75" style="fill:#f1f2f2;stroke:#92278f;stroke-miterlimit:10;stroke-width:4px"/><rect x="135.64" y="209.37" width="43.01" height="21.02" rx="3.75" ry="3.75" style="fill:#f1f2f2;stroke:#92278f;stroke-miterlimit:10;stroke-width:4px"/><rect x="223.38" y="209.37" width="43.01" height="21.02" rx="3.75" ry="3.75" style="fill:#f1f2f2;stroke:#92278f;stroke-miterlimit:10;stroke-width:4px"/><rect x="310.81" y="209.37" width="43.01" height="21.02" rx="3.75" ry="3.75" style="fill:#f1f2f2;stroke:#92278f;stroke-miterlimit:10;stroke-width:4px"/><rect x="398.09" y="209.37" width="43.01" height="21.02" rx="3.75" ry="3.75" style="fill:#f1f2f2;stroke:#92278f;stroke-miterlimit:10;stroke-width:4px"/><rect x="48.21" y="262.83" width="43.01" height="21.02" rx="3.75" ry="3.75" style="fill:#f1f2f2;stroke:#92278f;stroke-miterlimit:10;stroke-width:4px"/><rect x="135.64" y="262.83" width="43.01" height="21.02" rx="3.75" ry="3.75" style="fill:#f1f2f2;stroke:#92278f;stroke-miterlimit:10;stroke-width:4px"/><rect x="223.38" y="262.83" width="43.01" height="21.02" rx="3.75" ry="3.75" style="fill:#f1f2f2;stroke:#92278f;stroke-miterlimit:10;stroke-width:4px"/><rect x="310.81" y="262.83" width="43.01" height="21.02" rx="3.75" ry="3.75" style="fill:#f1f2f2;stroke:#92278f;stroke-miterlimit:10;stroke-width:4px"/><rect x="398.09" y="262.83" width="43.01" height="21.02" rx="3.75" ry="3.75" style="fill:#f1f2f2;stroke:#92278f;stroke-miterlimit:10;stroke-width:4px"/><line x1="25.16" y1="136.64" x2="458.63" y2="136.64" style="fill:none;stroke:#92278f;stroke-miterlimit:10;stroke-width:2px"/><line x1="25.16" y1="193.28" x2="458.63" y2="193.28" style="fill:none;stroke:#92278f;stroke-miterlimit:10;stroke-width:2px"/><line x1="25.16" y1="244.25" x2="458.63" y2="244.25" style="fill:none;stroke:#92278f;stroke-miterlimit:10;stroke-width:2px"/><line x1="25.16" y1="300.89" x2="458.63" y2="300.89" style="fill:none;stroke:#92278f;stroke-miterlimit:10;stroke-width:2px"/><rect x="48.21" y="333.56" width="126.38" height="116.9" style="fill:#f1f2f2;stroke:#92278f;stroke-miterlimit:10;stroke-width:4px"/><line x1="113.67" y1="333.69" x2="113.67" y2="451.07" style="fill:#f1f2f2;stroke:#92278f;stroke-miterlimit:10;stroke-width:4px"/><rect x="319.37" y="333.56" width="126.38" height="116.9" style="fill:#f1f2f2;stroke:#92278f;stroke-miterlimit:10;stroke-width:4px"/><line x1="384.83" y1="333.69" x2="384.83" y2="451.07" style="fill:#f1f2f2;stroke:#92278f;stroke-miterlimit:10;stroke-width:4px"/></g><circle id="pivot_ground" cx="244.88" cy="447.19" r="9.45" style="fill:none"/><circle id="pivot_top" cx="262.25" cy="9.45" r="9.45" style="fill:none"/><circle id="pivot_left_end" cx="9.45" cy="257.61" r="9.45" style="fill:none"/><circle id="pivot_right_end" cx="477.31" cy="229.25" r="9.45" style="fill:none"/></g></svg>