<svg id="Layer_1" data-name="Layer 1" xmlns="http://www.w3.org/2000/svg" viewBox="0 0 247.97 484.88"><title>building_cbd_c</title><g id="building_cbd_c"><g id="building_cbd_c-2" data-name="building_cbd_c"><rect x="2.44" y="44.91" width="243.53" height="38.37" rx="0.48" ry="0.48" style="fill:#f1f2f2;stroke:#bbe0c6;stroke-miterlimit:10;stroke-width:4px"/><path d="M14.61,83.85H233.79a0,0,0,0,1,0,0V479.92a.47.47,0,0,1-.47.47H15.08a.47.47,0,0,1-.47-.47V83.85A0,0,0,0,1,14.61,83.85Z" style="fill:#f1f2f2;stroke:#bbe0c6;stroke-miterlimit:10;stroke-width:4px"/><path d="M45.4,4.45H203a.34.34,0,0,1,.34.34V44.91a0,0,0,0,1,0,0H45.05a0,0,0,0,1,0,0V4.79A.34.34,0,0,1,45.4,4.45Z" style="fill:#f1f2f2;stroke:#bbe0c6;stroke-miterlimit:10;stroke-width:4px"/><circle cx="57.67" cy="177.44" r="14.87" style="fill:#f1f2f2;stroke:#bbe0c6;stroke-miterlimit:10;stroke-width:4px"/><circle cx="100.79" cy="177.44" r="14.88" style="fill:#f1f2f2;stroke:#bbe0c6;stroke-miterlimit:10;stroke-width:4px"/><circle cx="143.91" cy="177.44" r="14.87" style="fill:#f1f2f2;stroke:#bbe0c6;stroke-miterlimit:10;stroke-width:4px"/><circle cx="187.03" cy="177.44" r="14.87" style="fill:#f1f2f2;stroke:#bbe0c6;stroke-miterlimit:10;stroke-width:4px"/><circle cx="57.67" cy="129.3" r="14.87" style="fill:#f1f2f2;stroke:#bbe0c6;stroke-miterlimit:10;stroke-width:4px"/><circle cx="100.79" cy="129.3" r="14.88" style="fill:#f1f2f2;stroke:#bbe0c6;stroke-miterlimit:10;stroke-width:4px"/><circle cx="143.91" cy="129.3" r="14.87" style="fill:#f1f2f2;stroke:#bbe0c6;stroke-miterlimit:10;stroke-width:4px"/><circle cx="187.03" cy="129.3" r="14.87" style="fill:#f1f2f2;stroke:#bbe0c6;stroke-miterlimit:10;stroke-width:4px"/><circle cx="57.67" cy="273.71" r="14.87" style="fill:#f1f2f2;stroke:#bbe0c6;stroke-miterlimit:10;stroke-width:4px"/><circle cx="100.79" cy="273.71" r="14.88" style="fill:#f1f2f2;stroke:#bbe0c6;stroke-miterlimit:10;stroke-width:4px"/><circle cx="143.91" cy="273.71" r="14.87" style="fill:#f1f2f2;stroke:#bbe0c6;stroke-miterlimit:10;stroke-width:4px"/><circle cx="187.03" cy="273.71" r="14.87" style="fill:#f1f2f2;stroke:#bbe0c6;stroke-miterlimit:10;stroke-width:4px"/><circle cx="57.67" cy="225.58" r="14.87" style="fill:#f1f2f2;stroke:#bbe0c6;stroke-miterlimit:10;stroke-width:4px"/><circle cx="100.79" cy="225.58" r="14.88" style="fill:#f1f2f2;stroke:#bbe0c6;stroke-miterlimit:10;stroke-width:4px"/><circle cx="143.91" cy="225.58" r="14.87" style="fill:#f1f2f2;stroke:#bbe0c6;stroke-miterlimit:10;stroke-width:4px"/><circle cx="187.03" cy="225.58" r="14.87" style="fill:#f1f2f2;stroke:#bbe0c6;stroke-miterlimit:10;stroke-width:4px"/><circle cx="57.67" cy="322.24" r="14.87" style="fill:#f1f2f2;stroke:#bbe0c6;stroke-miterlimit:10;stroke-width:4px"/><circle cx="100.79" cy="322.24" r="14.88" style="fill:#f1f2f2;stroke:#bbe0c6;stroke-miterlimit:10;stroke-width:4px"/><circle cx="143.91" cy="322.24" r="14.87" style="fill:#f1f2f2;stroke:#bbe0c6;stroke-miterlimit:10;stroke-width:4px"/><circle cx="187.03" cy="322.24" r="14.87" style="fill:#f1f2f2;stroke:#bbe0c6;stroke-miterlimit:10;stroke-width:4px"/><circle cx="57.67" cy="418.51" r="14.87" style="fill:#f1f2f2;stroke:#bbe0c6;stroke-miterlimit:10;stroke-width:4px"/><circle cx="100.79" cy="418.51" r="14.88" style="fill:#f1f2f2;stroke:#bbe0c6;stroke-miterlimit:10;stroke-width:4px"/><circle cx="143.91" cy="418.51" r="14.87" style="fill:#f1f2f2;stroke:#bbe0c6;stroke-miterlimit:10;stroke-width:4px"/><circle cx="187.03" cy="418.51" r="14.87" style="fill:#f1f2f2;stroke:#bbe0c6;stroke-miterlimit:10;stroke-width:4px"/><circle cx="57.67" cy="370.37" r="14.87" style="fill:#f1f2f2;stroke:#bbe0c6;stroke-miterlimit:10;stroke-width:4px"/><circle cx="100.79" cy="370.38" r="14.88" style="fill:#f1f2f2;stroke:#bbe0c6;stroke-miterlimit:10;stroke-width:4px"/><circle cx="143.91" cy="370.37" r="14.87" style="fill:#f1f2f2;stroke:#bbe0c6;stroke-miterlimit:10;stroke-width:4px"/><circle cx="187.03" cy="370.37" r="14.87" style="fill:#f1f2f2;stroke:#bbe0c6;stroke-miterlimit:10;stroke-width:4px"/></g><circle id="pivot_ground" cx="125.12" cy="475.43" r="9.45" style="fill:none"/><circle id="pivot_top" cx="143.91" cy="9.45" r="9.45" style="fill:none"/><circle id="pivot_left_end" cx="9.45" cy="249.9" r="9.45" style="fill:none"/><circle id="pivot_right_end" cx="236.52" cy="186.89" r="9.45" style="fill:none"/></g></svg>