<svg id="Layer_1" data-name="Layer 1" xmlns="http://www.w3.org/2000/svg" viewBox="0 0 405.17 489.62"><title>hot_air_balloon</title><g id="hot_air_balloon"><g id="hot_air_balloon-2" data-name="hot_air_balloon"><path d="M386,53.75c-34-23.16-68.52-27.15-70-27.31h-.15C287.15,7.61,259,5.12,251.28,4.82l-.5-.05h-1.35l-.5.05c-7.67.31-35.87,2.79-64.56,21.62h-.15c-1.45.16-35.92,4.15-70,27.31-31.7,21.55-69,64.15-66.62,144.69,1.91,64.81,45.95,128.08,127.26,183a13.83,13.83,0,0,0,7.78,2.37,13.68,13.68,0,0,0,4.46-.75,193.62,193.62,0,0,1,126,0,13.87,13.87,0,0,0,11.24-1c13.64-7.6,49.31-30.26,85.78-76.47,27.09-34.36,41.38-70.4,42.49-107.12C454.94,117.9,417.67,75.3,386,53.75Z" transform="translate(-47.52 -4.77)" style="fill:#fff"/><path d="M272,452.39a14.08,14.08,0,0,1-14,14.06h-15.3a14.08,14.08,0,0,1-14-14.06v-33a88,88,0,0,1,22.82-2.67A89.14,89.14,0,0,1,272,419.41v33Zm18.61-56.17a116.8,116.8,0,0,0-80.61,0,13.83,13.83,0,0,0-9.08,13v43.18a41.78,41.78,0,0,0,41.73,41.76h15.3a41.78,41.78,0,0,0,41.73-41.76V409.22a13.83,13.83,0,0,0-9.08-13Z" transform="translate(-47.52 -4.77)" style="fill:#ee2a7b"/><path d="M424.9,197.63c-.9,30.64-13.19,61.18-36.57,90.77-29.4,37.28-57.69,57.51-72.33,66.44-4.51-1.4-9.08-2.64-13.64-3.75,31.35-39.37,81.87-117.24,75.95-204.5C376,112.63,367,87.06,355.47,67.83a144,144,0,0,1,14.95,8.81c37.72,25.68,56.08,66.38,54.48,121Zm-240.08,157c-50.11-34.87-107.5-89.39-109.51-157-2.26-77.48,37-113.5,69.63-130-11.64,19.26-20.72,44.9-23,79-5.87,87.3,44.69,165.24,75.95,204.51-4.36,1.06-8.73,2.23-13,3.56Zm44.64-8.85c-26.18-30.22-85.83-109.45-79.91-197.35,5.87-86.92,61-108.7,87.38-114.15V345.21c-2.51.15-5,.35-7.47.59Zm35.16-.48V34.58c26.89,5.93,80.26,28.46,86,113.87,6,87.84-53.57,167-79.91,197.35-2-.19-4.06-.35-6.12-.48ZM386,53.75c-34-23.16-68.52-27.15-70-27.31h-.15C287.15,7.61,259,5.12,251.28,4.82l-.5-.05h-1.35l-.5.05c-7.67.31-35.87,2.79-64.56,21.63h-.15c-1.45.16-35.92,4.15-70,27.31-31.7,21.55-69,64.15-66.62,144.69,1.91,64.81,45.95,128.08,127.26,183a13.83,13.83,0,0,0,7.78,2.37,13.68,13.68,0,0,0,4.46-.75,193.62,193.62,0,0,1,126,0,13.85,13.85,0,0,0,11.24-1c13.64-7.6,49.31-30.26,85.78-76.47,27.09-34.36,41.38-70.4,42.49-107.12C454.94,117.9,417.67,75.3,386,53.75Z" transform="translate(-47.52 -4.77)" style="fill:#ee2a7b"/><path d="M272,452.39a14.08,14.08,0,0,1-14,14.06h-15.3a14.08,14.08,0,0,1-14-14.06v-33a88,88,0,0,1,22.82-2.67A89.14,89.14,0,0,1,272,419.41v33Zm18.61-56.17a116.8,116.8,0,0,0-80.61,0,13.83,13.83,0,0,0-9.08,13v43.18a41.78,41.78,0,0,0,41.73,41.76h15.3a41.78,41.78,0,0,0,41.73-41.76V409.22a13.83,13.83,0,0,0-9.08-13Z" transform="translate(-47.52 -4.77)" style="fill:#ee2a7b"/></g><circle id="pivot_ground" cx="202.98" cy="480.17" r="9.45" style="fill:none"/><circle id="pivot_top" cx="202.98" cy="9.45" r="9.45" style="fill:none"/><circle id="pivot_left_end" cx="9.45" cy="193.99" r="9.45" style="fill:none"/><circle id="pivot_right_end" cx="395.72" cy="175.09" r="9.45" style="fill:none"/></g></svg>