<svg id="Layer_1" data-name="Layer 1" xmlns="http://www.w3.org/2000/svg" viewBox="0 0 227.48 491.01"><title>tree_a</title><g id="tree_a"><g id="tree_a-2" data-name="tree_a"><path d="M315.22,419.22l24.75-31L353.72,226.5,352.15,92.79,307.76,26.05,241.37,12.66,178.92,41.33,156.52,91.22,145.14,235.38l5.5,137.88,40.46,54.21,69.13,21.21s29-3.41,50.24-18l-4.28-9.49,9-2Z" transform="translate(-135.68 -4.35)" style="fill:#f1f2f2"/><path d="M249.35,305.83a10.57,10.57,0,1,1,10.57-10.57,10.57,10.57,0,0,1-10.57,10.57Z" transform="translate(-135.68 -4.35)" style="fill:#d7df23"/><path d="M136,117.66a113.31,113.31,0,0,1,226.62,0V335.35A113.32,113.32,0,0,1,293.38,439.7a10.87,10.87,0,1,1-8.5-20,91.6,91.6,0,0,0,56-84.34V117.66a91.56,91.56,0,0,0-183.12,0V335.35a91.68,91.68,0,0,0,80.68,90.89V345.75a10.88,10.88,0,0,1,21.75,0V484.49a10.88,10.88,0,0,1-21.75,0V448.12A113.46,113.46,0,0,1,136,335.35V117.66Z" transform="translate(-135.68 -4.35)" style="fill:#d7df23"/></g><circle id="pivot_ground" cx="114.79" cy="481.56" r="9.45" style="fill:none"/><circle id="pivot_top" cx="114.79" cy="9.45" r="9.45" style="fill:none"/><circle id="pivot_left_end" cx="9.45" cy="199.11" r="9.45" style="fill:none"/><circle id="pivot_right_end" cx="218.03" cy="213.74" r="9.45" style="fill:none"/></g></svg>