<svg id="Layer_1" data-name="Layer 1" xmlns="http://www.w3.org/2000/svg" viewBox="0 0 284.25 485.79"><title>tree_c</title><g id="tree_c"><g id="tree_c-2" data-name="tree_c"><path d="M377.11,322.54s-9-35.45-9-66,2.2-170.92,2.2-170.92L333.71,37.15S256,24.81,253.27,24.81s-75.6,25.74-75.6,25.74l-44.51,63.27L119.68,274.19,157.29,370l119.65,58.55s43.07-5.23,66.88-23.5,26.51-46.39,26.51-46.39l6.78-36.15Z" transform="translate(-107.41 -7.14)" style="fill:#f1f2f2"/><path d="M262.09,248a14.43,14.43,0,1,1,14.43-14.43A14.43,14.43,0,0,1,262.09,248Z" transform="translate(-107.41 -7.14)" style="fill:#2bb673"/><path d="M262.09,7.14A154.13,154.13,0,0,1,370.33,51.46v48A124.95,124.95,0,0,0,137.1,161.82V273.88c0,63.89,48.2,116.7,110.14,124.07V288.08a14.85,14.85,0,0,1,29.69,0v189.4a14.85,14.85,0,0,1-29.69,0V427.82c-78.35-7.49-139.84-73.67-139.84-153.95V161.82c0-85.29,69.39-154.68,154.68-154.68Z" transform="translate(-107.41 -7.14)" style="fill:#2bb673"/><path d="M310.58,389a125.4,125.4,0,0,0,66.52-66.46,174.6,174.6,0,0,0,14.55,35.67,155.29,155.29,0,0,1-69.47,58.12A14.84,14.84,0,0,1,310.58,389Z" transform="translate(-107.41 -7.14)" style="fill:#2bb673"/></g><circle id="pivot_ground" cx="154.68" cy="476.33" r="9.45" style="fill:none"/><circle id="pivot_top" cx="161.81" cy="9.45" r="9.45" style="fill:none"/><circle id="pivot_left_end" cx="9.45" cy="221.46" r="9.45" style="fill:none"/><circle id="pivot_right_end" cx="274.8" cy="353.44" r="9.45" style="fill:none"/></g></svg>