<svg id="Layer_1" data-name="Layer 1" xmlns="http://www.w3.org/2000/svg" viewBox="0 0 316.61 480.6"><title>tree_pine</title><g id="tree_pine"><g id="tree_pine-2" data-name="tree_pine"><polygon points="158.3 11.44 256.02 102.91 243.69 120.92 207.17 127.44 281.38 223.8 274.88 245.36 227.05 252.79 294.45 330.31 294.45 362.19 255.32 394.71 77.79 394.71 33.6 386.17 6.79 347.64 84.31 258.95 38.67 245.36 31.42 217.28 112.57 130.34 71.27 121.64 65.47 90.49 158.3 11.44 158.3 11.44" style="fill:#f1f2f2"/><path d="M104.27,325.84l50.51-50.51h-.83a41.29,41.29,0,0,1-38.64-25.76,40.77,40.77,0,0,1,8.55-45l53.85-53.86h-.33a34.76,34.76,0,0,1-32.13-21.41,33.91,33.91,0,0,1,7.08-37.42l71-71a36.7,36.7,0,0,1,51.86,0l70.67,70.64.28.3a33.91,33.91,0,0,1,7.14,37.51,34.74,34.74,0,0,1-32.12,21.41h-.33l53.5,53.5.28.31a40.77,40.77,0,0,1,8.64,45.06,41.34,41.34,0,0,1-38.66,25.76h-.84l50.15,50.13.33.35a45.53,45.53,0,0,1,9.62,50.26,46.09,46.09,0,0,1-43.15,28.76H297.27a13.19,13.19,0,0,1,0-26.38h63.47a20.19,20.19,0,0,0,18.82-12.57,19.35,19.35,0,0,0-4.06-21.57l-.42-.39-72.44-72.44A13.19,13.19,0,0,1,312,248.95h32.66A15.35,15.35,0,0,0,359,239.38,14.89,14.89,0,0,0,355.88,223l9.39-9.25-9.71,8.92L279.7,146.83A13.19,13.19,0,0,1,289,124.32H321.2a8.35,8.35,0,0,0,7.8-5.23,8,8,0,0,0-1.87-9L256.57,39.48a10.29,10.29,0,0,0-14.55,0l-70.78,70.79a7.85,7.85,0,0,0-1.65,8.82,8.35,8.35,0,0,0,7.8,5.23h32.17a13.19,13.19,0,0,1,9.33,22.51L143,222.67l-.33.33a14.77,14.77,0,0,0-3.08,16.37,15.27,15.27,0,0,0,14.31,9.58h32.67a13.19,13.19,0,0,1,9.33,22.52L123.5,343.91l-.39.4A19.27,19.27,0,0,0,119,365.86a20.14,20.14,0,0,0,18.78,12.57H244.41a13.17,13.17,0,0,1,4.79.92h.09a13.19,13.19,0,0,1,13.19,13.19v84.15a13.19,13.19,0,1,1-26.38,0V404.81H137.82a46.08,46.08,0,0,1-43.11-28.76,45.49,45.49,0,0,1,9.56-50.22Z" transform="translate(-90.99 -10.1)" style="fill:#006838"/><path d="M249.3,357.74a12.82,12.82,0,1,1,12.82-12.82,12.82,12.82,0,0,1-12.82,12.82Z" transform="translate(-90.99 -10.1)" style="fill:#006838"/></g><circle id="pivot_ground" cx="158.31" cy="471.15" r="9.45" style="fill:none"/><circle id="pivot_top" cx="160.07" cy="9.45" r="9.45" style="fill:none"/><circle id="pivot_left_end" cx="9.8" cy="347.64" r="9.45" style="fill:none"/><circle id="pivot_right_end" cx="307.16" cy="344.27" r="9.45" style="fill:none"/></g></svg>