<svg xmlns="http://www.w3.org/2000/svg" viewBox="0 0 198.35 148.56"><defs><style>.cls-1,.cls-2{fill:none;}.cls-2{stroke:#231f20;stroke-miterlimit:10;stroke-width:5px;}</style></defs><title>forklift_fork</title><g id="Layer_2" data-name="Layer 2"><g id="Forklift"><g id="forklift_fork"><circle id="pivot_fork_tip" class="cls-1" cx="1.56" cy="137.1" r="1.56"/><circle id="pivot_fork_root" class="cls-1" cx="163.05" cy="135.5" r="1.56"/><circle id="pivot_fork_min" class="cls-1" cx="193.06" cy="135.5" r="1.56"/><circle id="pivot_fork_max" class="cls-1" cx="193.06" cy="2.5" r="2.5"/><g id="forklift_fork-2" data-name="forklift_fork"><path class="cls-2" d="M5.13,138H165.44a0,0,0,0,1,0,0v8a0,0,0,0,1,0,0H5.13a.78.78,0,0,1-.78-.78v-6.48a.78.78,0,0,1,.78-.78Z"/><path class="cls-2" d="M166.41,47.76H183.5a1,1,0,0,1,1,1v97.32a0,0,0,0,1,0,0h-19a0,0,0,0,1,0,0V48.73A1,1,0,0,1,166.41,47.76Z"/><rect class="cls-2" x="184.47" y="60.33" width="11.38" height="22.09"/><rect class="cls-2" x="184.47" y="113.64" width="11.38" height="22.09"/></g></g></g></g></svg>