<svg id="Layer_1" data-name="Layer 1" xmlns="http://www.w3.org/2000/svg" viewBox="0 0 492.13 329.97"><title>car_body</title><g id="car_body"><g id="car_body-2" data-name="car_body"><path d="M478.8,331.8v-34c0-7-6.74-4.71-15-4.71h-274" transform="translate(-3.45 -117.83)" style="fill:none;stroke:#231f20;stroke-linecap:round;stroke-linejoin:round;stroke-width:3px"/><line x1="436.74" y1="232.86" x2="450.76" y2="232.86" style="fill:none;stroke:#231f20;stroke-linecap:round;stroke-linejoin:round;stroke-width:3px"/><line x1="302.05" y1="232.86" x2="318.29" y2="232.86" style="fill:none;stroke:#231f20;stroke-linecap:round;stroke-linejoin:round;stroke-width:3px"/><line x1="179.75" y1="232.86" x2="199.62" y2="232.86" style="fill:none;stroke:#231f20;stroke-linecap:round;stroke-linejoin:round;stroke-width:3px"/><path d="M450.73,389.47a69.65,69.65,0,1,0-139.31,0" transform="translate(-3.45 -117.83)" style="fill:none;stroke:#231f20;stroke-linecap:round;stroke-linejoin:round;stroke-width:3px"/><path d="M455.28,359.12c0,4.82,3.6,8.73,8,8.73H486c4.45,0,8-3.91,8-8.73V341.46c0-4.82-3.6-8.74-8-8.74h-22.7c-4.45,0-8,3.91-8,8.74v17.65Z" transform="translate(-3.45 -117.83)" style="fill:none;stroke:#231f20;stroke-linecap:round;stroke-linejoin:round;stroke-width:3px"/><line x1="478.24" y1="215.32" x2="478.24" y2="249.16" style="fill:none;stroke:#231f20;stroke-linecap:round;stroke-linejoin:round;stroke-width:3px"/><line x1="465.44" y1="215.32" x2="465.44" y2="249.16" style="fill:none;stroke:#231f20;stroke-linecap:round;stroke-linejoin:round;stroke-width:3px"/><path d="M13,287.74h0a8,8,0,0,0-8,8V318.7h0a8,8,0,0,0,8,8.05" transform="translate(-3.45 -117.83)" style="fill:none;stroke:#231f20;stroke-linecap:round;stroke-linejoin:round;stroke-width:3px"/><path d="M44,165.14c9.66-16.8,27.25-45.82,61.92-45.82h47.86a35.11,35.11,0,0,1,35.1,35.1V313.1c-4.21-.17-29.71-1.11-55.72,0-45.86,2-53.25,39.62-53.25,39.62l.13.62H48.1A35.1,35.1,0,0,1,13,318.27V274.12c0-63.15,19.81-89.59,31-109Z" transform="translate(-3.45 -117.83)" style="fill:none;stroke:#231f20;stroke-linecap:round;stroke-linejoin:round;stroke-width:3px"/><line x1="140.19" y1="129.67" x2="107.37" y2="129.67" style="fill:none;stroke:#231f20;stroke-linecap:round;stroke-linejoin:round;stroke-width:3px"/><path d="M156,142.24v85.45H94.1l-18,18H57c-22.29,0-30.94,1.53-21.67-30.34,9.91-34.05,45.82-73.06,45.82-73.06Zm.62,106v17.81c0,11.77-2.48,26.63-22.29,26.63h-26c-13,0-21-1.86-32.81,16.71s-13,21.05-27.24,21.05c-21.05,0-17-22.91-17-22.91v-51.1" transform="translate(-3.45 -117.83)" style="fill:none;stroke:#231f20;stroke-linecap:round;stroke-linejoin:round;stroke-width:3px"/><path d="M203.07,375.24a14,14,0,0,0,14,14h75.32a14,14,0,0,0,14-14V357.5a14,14,0,0,0-14-14H217.11a14,14,0,0,0-14,14v17.74Z" transform="translate(-3.45 -117.83)" style="fill:none;stroke:#231f20;stroke-linecap:round;stroke-linejoin:round;stroke-width:3px"/></g><path id="pivot_back" d="M376.13,389.47a5,5,0,1,0,5-5,5,5,0,0,0-5,5Z" transform="translate(-3.45 -117.83)" style="fill:none"/><path id="pivot_front" d="M133.06,389.47a7.79,7.79,0,1,0,7.79-7.79,7.79,7.79,0,0,0-7.79,7.79Z" transform="translate(-3.45 -117.83)" style="fill:none"/><path id="pivot_ground" d="M251.06,440a7.79,7.79,0,1,0,7.79-7.79,7.79,7.79,0,0,0-7.79,7.79Z" transform="translate(-3.45 -117.83)" style="fill:none"/><path id="pivot_load_body_ground" d="M391.77,284.91a7.79,7.79,0,1,0,7.79-7.79,7.79,7.79,0,0,0-7.79,7.79Z" transform="translate(-3.45 -117.83)" style="fill:none"/><path id="pivot_load_body_front_end" d="M462.77,284.91a7.79,7.79,0,1,0,7.79-7.79,7.79,7.79,0,0,0-7.79,7.79Z" transform="translate(-3.45 -117.83)" style="fill:none"/><path id="pivot_load_body_back_end" d="M188.77,284.91a7.79,7.79,0,1,0,7.79-7.79,7.79,7.79,0,0,0-7.79,7.79Z" transform="translate(-3.45 -117.83)" style="fill:none"/></g></svg>