<svg id="Layer_1" data-name="Layer 1" xmlns="http://www.w3.org/2000/svg" viewBox="0 0 116.31 116.3"><title>wheel_back</title><g id="wheel_back"><g id="wheel_back-2" data-name="wheel_back"><path d="M324.43,389.47a56.65,56.65,0,1,0,56.65-56.65,56.65,56.65,0,0,0-56.65,56.65Z" transform="translate(-322.93 -331.32)" style="fill:none;stroke:#231f20;stroke-linecap:round;stroke-linejoin:round;stroke-width:3px"/><path d="M353.22,389.47a27.86,27.86,0,1,0,27.86-27.86,27.86,27.86,0,0,0-27.86,27.86Z" transform="translate(-322.93 -331.32)" style="fill:none;stroke:#231f20;stroke-linecap:round;stroke-linejoin:round;stroke-width:3px"/><path d="M386,371.2a11.3,11.3,0,0,0-9.91.31" transform="translate(-322.93 -331.32)" style="fill:none;stroke:#231f20;stroke-linecap:round;stroke-linejoin:round;stroke-width:3px"/><path d="M399.53,384.36a11.29,11.29,0,0,0-5.22-8.43" transform="translate(-322.93 -331.32)" style="fill:none;stroke:#231f20;stroke-linecap:round;stroke-linejoin:round;stroke-width:3px"/><path d="M394.88,402.62a11.28,11.28,0,0,0,4.69-8.73" transform="translate(-322.93 -331.32)" style="fill:none;stroke:#231f20;stroke-linecap:round;stroke-linejoin:round;stroke-width:3px"/><path d="M376.74,407.73a11.3,11.3,0,0,0,9.91-.31" transform="translate(-322.93 -331.32)" style="fill:none;stroke:#231f20;stroke-linecap:round;stroke-linejoin:round;stroke-width:3px"/><path d="M367.89,376.31a11.29,11.29,0,0,0-4.68,8.74" transform="translate(-322.93 -331.32)" style="fill:none;stroke:#231f20;stroke-linecap:round;stroke-linejoin:round;stroke-width:3px"/><path d="M363.25,394.58a11.3,11.3,0,0,0,5.22,8.43" transform="translate(-322.93 -331.32)" style="fill:none;stroke:#231f20;stroke-linecap:round;stroke-linejoin:round;stroke-width:3px"/></g><path id="pivot_back" d="M376.13,389.47a5,5,0,1,0,5-5,5,5,0,0,0-5,5Z" transform="translate(-322.93 -331.32)" style="fill:none"/></g></svg>