<svg id="Layer_1" data-name="Layer 1" xmlns="http://www.w3.org/2000/svg" viewBox="0 0 116.31 116.3"><title>wheel_front</title><g id="wheel_front"><g id="wheel_front-2" data-name="wheel_front"><path d="M84.2,389.47a56.65,56.65,0,1,0,56.65-56.65A56.65,56.65,0,0,0,84.2,389.47Z" transform="translate(-82.7 -331.32)" style="fill:none;stroke:#231f20;stroke-linecap:round;stroke-linejoin:round;stroke-width:3px"/><path d="M113,389.47a27.86,27.86,0,1,0,27.86-27.86A27.86,27.86,0,0,0,113,389.47Z" transform="translate(-82.7 -331.32)" style="fill:none;stroke:#231f20;stroke-linecap:round;stroke-linejoin:round;stroke-width:3px"/><path d="M145.8,371.2a11.29,11.29,0,0,0-9.9.31" transform="translate(-82.7 -331.32)" style="fill:none;stroke:#231f20;stroke-linecap:round;stroke-linejoin:round;stroke-width:3px"/><path d="M159.3,384.36a11.3,11.3,0,0,0-5.22-8.43" transform="translate(-82.7 -331.32)" style="fill:none;stroke:#231f20;stroke-linecap:round;stroke-linejoin:round;stroke-width:3px"/><path d="M154.65,402.62a11.28,11.28,0,0,0,4.68-8.73" transform="translate(-82.7 -331.32)" style="fill:none;stroke:#231f20;stroke-linecap:round;stroke-linejoin:round;stroke-width:3px"/><path d="M136.51,407.73a11.29,11.29,0,0,0,9.91-.31" transform="translate(-82.7 -331.32)" style="fill:none;stroke:#231f20;stroke-linecap:round;stroke-linejoin:round;stroke-width:3px"/><path d="M123,394.58a11.29,11.29,0,0,0,5.22,8.43" transform="translate(-82.7 -331.32)" style="fill:none;stroke:#231f20;stroke-linecap:round;stroke-linejoin:round;stroke-width:3px"/><path d="M127.66,376.31A11.3,11.3,0,0,0,123,385" transform="translate(-82.7 -331.32)" style="fill:none;stroke:#231f20;stroke-linecap:round;stroke-linejoin:round;stroke-width:3px"/></g><path id="pivot_front" d="M133.06,389.47a7.79,7.79,0,1,0,7.79-7.79,7.79,7.79,0,0,0-7.79,7.79Z" transform="translate(-82.7 -331.32)" style="fill:none"/></g></svg>