<svg xmlns="http://www.w3.org/2000/svg" viewBox="0 0 126.31 126.49"><defs><style>.cls-1{fill:#fff;stroke:#231f20;stroke-miterlimit:10;stroke-width:2px;}.cls-2{fill:none;}</style></defs><title>counter_weight</title><g id="Layer_2" data-name="Layer 2"><g id="Layer_1-2" data-name="Layer 1"><g id="counter_weight"><path id="counter_weight-2" data-name="counter_weight" class="cls-1" d="M86.93,1.53C55.71,13.8,15.73,51,1.57,86.12A7.73,7.73,0,0,0,3.2,94.43c3.21,3.27,7.11,7.19,10.19,10.28a7.48,7.48,0,0,0,10.55,0l24.7-24.47a7.48,7.48,0,0,1,10.58,0l42.55,43a7.48,7.48,0,0,0,10.58,0l10.74-10.64a7.48,7.48,0,0,0,0-10.58l-42.55-43a7.48,7.48,0,0,1,0-10.58l24.67-24.44a7.48,7.48,0,0,0,0-10.58L95.21,3.3A7.7,7.7,0,0,0,86.93,1.53Z"/><circle id="pivot_motor" class="cls-2" cx="107.39" cy="109.12" r="6.14"/><circle id="pivot_pitman_arm" class="cls-2" cx="67.73" cy="66.93" r="6.14"/></g></g></g></svg>