<svg xmlns="http://www.w3.org/2000/svg" viewBox="0 0 396.54 263.03"><defs><style>.cls-1{fill:#fff;stroke:#231f20;stroke-miterlimit:10;stroke-width:2px;}.cls-2{fill:none;}</style></defs><title>walking_beam</title><g id="Layer_2" data-name="Layer 2"><g id="Layer_1-2" data-name="Layer 1"><g id="walking_beam"><path id="walking_beam-2" data-name="walking_beam" class="cls-1" d="M373.05,1.55,76.51,109.13a14.37,14.37,0,0,1-18.41-8.6L45.86,66.88a14.37,14.37,0,0,0-18.3-8.64l-11.7,4.13A15.68,15.68,0,0,0,6,72.77C-16.58,151.06,42.69,235.2,83.53,259.53a17.88,17.88,0,0,0,15,1.5c2.45-.85,5.13-1.81,7.54-2.68a8,8,0,0,0,4.76-10.19l-29-79.63a8,8,0,0,1,4.75-10.19l101.48-36.91a6.4,6.4,0,0,1,8.2,3.82l1.28,3.52a9.59,9.59,0,0,0,12.29,5.74l19-6.9a9.59,9.59,0,0,0,5.74-12.29l-1.27-3.49a6.4,6.4,0,0,1,3.86-8.21l67-23.95a6.4,6.4,0,0,1,8.16,3.84l1.43,3.95a9.42,9.42,0,0,0,12.07,5.63l10.56-3.84a9.42,9.42,0,0,0,5.63-12.07l-1.43-3.93a6.4,6.4,0,0,1,3.81-8.19l45.09-16.56A9.13,9.13,0,0,0,395,37L384.79,7.16A9.13,9.13,0,0,0,373.05,1.55Z"/><circle id="pivot_samson_post" class="cls-2" cx="214.67" cy="120.16" r="6.14"/><circle id="pivot_walking_beam" class="cls-2" cx="327.37" cy="79.84" r="6.14"/></g></g></g></svg>