<svg xmlns="http://www.w3.org/2000/svg" viewBox="0 0 345.65 354.63"><defs><style>.cls-1,.cls-2{fill:none;}.cls-2{stroke:#231f20;stroke-miterlimit:10;stroke-width:5px;}</style></defs><title>forklift_body</title><g id="Layer_2" data-name="Layer 2"><g id="Forklift"><g id="forklift_body"><circle id="pivot_wheel_front" class="cls-1" cx="68" cy="301.94" r="1.56"/><circle id="pivot_wheel_back" class="cls-1" cx="291.66" cy="310.46" r="1.56"/><circle id="pivot_ground" class="cls-1" cx="190.11" cy="348.38" r="6.25"/><circle id="pivot_fork_min" class="cls-1" cx="7.8" cy="301.94" r="1.56"/><circle id="pivot_fork_max" class="cls-1" cx="7.8" cy="168.94" r="2.5"/><g id="forklift_body-2" data-name="forklift_body"><path class="cls-2" d="M338.9,307.78h0a4.25,4.25,0,0,1-4.09-3.09l-8.16-29.92a14.83,14.83,0,0,0-14.13-10.93l-38-.47a9.79,9.79,0,0,0-8.41,4.57L239,311a10.32,10.32,0,0,1-8.73,4.82H138A12.52,12.52,0,0,1,126.42,308l-19-47.08a16.71,16.71,0,0,0-15.57-10.47l-45.19.18a7.76,7.76,0,0,1-7.79-7.76h0a7.76,7.76,0,0,1,7.76-7.76h289.1a7.39,7.39,0,0,1,7.39,7.39v61A4.25,4.25,0,0,1,338.9,307.78Z"/><path class="cls-2" d="M338.9,307.78h0a4.25,4.25,0,0,1-4.09-3.09l-8.16-29.92a14.83,14.83,0,0,0-14.13-10.93l-38-.47a9.79,9.79,0,0,0-8.41,4.57L239,311a10.32,10.32,0,0,1-8.73,4.82H138A12.52,12.52,0,0,1,126.42,308l-19-47.08a16.71,16.71,0,0,0-15.57-10.47l-45.19.18a7.76,7.76,0,0,1-7.79-7.76h0a7.76,7.76,0,0,1,7.76-7.76h59.43A18.69,18.69,0,0,1,123.5,247l17.25,44.29h19.76V235.1H335.76a7.39,7.39,0,0,1,7.39,7.39v61A4.25,4.25,0,0,1,338.9,307.78Z"/><path class="cls-2" d="M321.59,207.85l-24.59-13a8.23,8.23,0,0,0-5.17-.85l-132,21.4a13,13,0,0,0-10.93,12.85v6.85H328.42V219.17A12.81,12.81,0,0,0,321.59,207.85Z"/><path class="cls-2" d="M73,235.1l44.4-124.53A41.59,41.59,0,0,1,156.6,82.94h61.8a27.38,27.38,0,0,1,27.38,27.37v91.16"/><path class="cls-2" d="M88.43,235.1l45-119.71a25.78,25.78,0,0,1,24.13-16.7h58.78A12.63,12.63,0,0,1,229,111.32v92.87"/><path class="cls-2" d="M229,139.73H212.49a10,10,0,0,0-10,10v43.66a5.94,5.94,0,0,1-5.94,5.94h-20a16.09,16.09,0,0,0-16.09,16.09h0"/><path class="cls-2" d="M118.31,155.71"/><path class="cls-2" d="M122.42,144.78l22.64,17.11a5.6,5.6,0,0,1,1.09,7.84h0a5.6,5.6,0,0,1-7.84,1.09l-20-15.12"/><path class="cls-2" d="M122.42,144.78"/><path class="cls-2" d="M122.68,159l-2.85,4.87a3.54,3.54,0,0,1-3.06,1.75H115"/><path class="cls-2" d="M129.28,164l-4.05,3.37a2.15,2.15,0,0,0-.09,3.23l2.87,2.68a3.12,3.12,0,0,1,.29,4.27L94.61,218.68"/><path class="cls-2" d="M2.5,2.5H53.26a0,0,0,0,1,0,0v35A15.76,15.76,0,0,1,37.49,53.26H2.5a0,0,0,0,1,0,0V2.5A0,0,0,0,1,2.5,2.5Z"/><line class="cls-2" x1="46.56" y1="50.22" x2="46.56" y2="235.1"/><polyline class="cls-2" points="21.5 314.41 10.58 314.41 10.58 53.26"/><path class="cls-2" d="M21.5,314.41"/><path class="cls-2" d="M46.56,235.1"/><line class="cls-2" x1="46.69" y1="250.62" x2="46.69" y2="258.56"/></g></g></g></g></svg>