<svg id="Layer_1" data-name="Layer 1" xmlns="http://www.w3.org/2000/svg" viewBox="0 0 218.81 484.88"><title>building_cbd_d</title><g id="building_cbd_d"><g id="building_cbd_d-2" data-name="building_cbd_d"><rect x="19.07" y="45.89" width="180.67" height="435.12" style="fill:#fbb040;stroke:#231f20;stroke-miterlimit:10;stroke-width:2px"/><polyline points="45.75 195.61 45.75 86.19 68.95 86.19 68.95 195.61" style="fill:none;stroke:#414042;stroke-miterlimit:10;stroke-width:10px"/><polyline points="150.09 195.61 150.09 86.19 173.29 86.19 173.29 195.61" style="fill:none;stroke:#414042;stroke-miterlimit:10;stroke-width:10px"/><polyline points="45.75 328.77 45.75 219.35 68.95 219.35 68.95 328.77" style="fill:none;stroke:#414042;stroke-miterlimit:10;stroke-width:10px"/><polyline points="150.09 328.77 150.09 219.35 173.29 219.35 173.29 328.77" style="fill:none;stroke:#414042;stroke-miterlimit:10;stroke-width:10px"/><polyline points="45.75 398.08 45.75 350.53 68.95 350.53 68.95 398.08" style="fill:none;stroke:#414042;stroke-miterlimit:10;stroke-width:10px"/><polyline points="150.09 398.08 150.09 350.53 173.29 350.53 173.29 398.08" style="fill:none;stroke:#414042;stroke-miterlimit:10;stroke-width:10px"/><polyline points="96.91 144.99 96.91 65.78 120.11 65.78 120.11 144.99" style="fill:none;stroke:#414042;stroke-miterlimit:10;stroke-width:10px"/><polyline points="96.91 279.19 96.91 168.89 120.11 168.89 120.11 279.19" style="fill:none;stroke:#414042;stroke-miterlimit:10;stroke-width:10px"/><polyline points="96.91 399.8 96.91 300.5 120.11 300.5 120.11 399.8" style="fill:none;stroke:#414042;stroke-miterlimit:10;stroke-width:10px"/><rect x="1" y="396.48" width="216.81" height="84.47" rx="0.75" ry="0.75" style="fill:#414042;stroke:#231f20;stroke-miterlimit:10;stroke-width:2px"/><path d="M345.47,53.55H154a2.58,2.58,0,0,1-2.51-3.18l8.67-36.55a2.58,2.58,0,0,1,2.51-2H336.8a2.58,2.58,0,0,1,2.51,2L348,50.37A2.58,2.58,0,0,1,345.47,53.55Z" transform="translate(-140.34 -7.66)" style="fill:#f7941d;stroke:#231f20;stroke-miterlimit:10;stroke-width:2px"/><rect x="35.9" y="423.67" width="147.01" height="57.28" rx="0.75" ry="0.75" style="fill:#fbb040;stroke:#231f20;stroke-miterlimit:10;stroke-width:2px"/><line x1="110.27" y1="423.67" x2="110.27" y2="481.01" style="fill:none;stroke:#231f20;stroke-miterlimit:10;stroke-width:2px"/></g><circle id="pivot_ground" cx="110.27" cy="475.43" r="9.45" style="fill:none"/><circle id="pivot_top" cx="129.06" cy="9.45" r="9.45" style="fill:none"/><circle id="pivot_left_end" cx="15.08" cy="254" r="9.45" style="fill:none"/><circle id="pivot_right_end" cx="204.11" cy="178.34" r="9.45" style="fill:none"/></g></svg>