<svg id="Layer_1" data-name="Layer 1" xmlns="http://www.w3.org/2000/svg" viewBox="0 0 500 500"><title>building_cbd_b</title><g id="building_cbd_b"><g id="building_cbd_b-2" data-name="building_cbd_b"><path d="M11.17,90.93H488.88a0,0,0,0,1,0,0V473.16a.53.53,0,0,1-.53.53H11.71a.53.53,0,0,1-.53-.53V90.93a0,0,0,0,1,0,0Z" style="fill:#69cbda;stroke:#231f20;stroke-miterlimit:10;stroke-width:4px"/><path d="M488.88,90.93H11.17l22.09-36.5a6.15,6.15,0,0,1,5.26-3h423a6.15,6.15,0,0,1,5.26,3Z" style="fill:#594a42;stroke:#231f20;stroke-miterlimit:10;stroke-width:4px"/><path d="M381.4,51.46H118.66l11.69-21.85a5.13,5.13,0,0,1,4.53-2.71H365.19a5.13,5.13,0,0,1,4.53,2.71Z" style="fill:#c49a6c;stroke:#231f20;stroke-miterlimit:10;stroke-width:4px"/><rect x="55.35" y="125.43" width="43.01" height="21.02" rx="3.75" ry="3.75" style="fill:#594a42;stroke:#231f20;stroke-miterlimit:10;stroke-width:3px"/><rect x="142.78" y="125.43" width="43.01" height="21.02" rx="3.75" ry="3.75" style="fill:#594a42;stroke:#231f20;stroke-miterlimit:10;stroke-width:3px"/><rect x="230.52" y="125.43" width="43.01" height="21.02" rx="3.75" ry="3.75" style="fill:#594a42;stroke:#231f20;stroke-miterlimit:10;stroke-width:3px"/><rect x="317.95" y="125.43" width="43.01" height="21.02" rx="3.75" ry="3.75" style="fill:#594a42;stroke:#231f20;stroke-miterlimit:10;stroke-width:3px"/><rect x="405.24" y="125.43" width="43.01" height="21.02" rx="3.75" ry="3.75" style="fill:#594a42;stroke:#231f20;stroke-miterlimit:10;stroke-width:3px"/><rect x="55.35" y="178.88" width="43.01" height="21.02" rx="3.75" ry="3.75" style="fill:#594a42;stroke:#231f20;stroke-miterlimit:10;stroke-width:3px"/><rect x="142.78" y="178.88" width="43.01" height="21.02" rx="3.75" ry="3.75" style="fill:#594a42;stroke:#231f20;stroke-miterlimit:10;stroke-width:3px"/><rect x="230.52" y="178.88" width="43.01" height="21.02" rx="3.75" ry="3.75" style="fill:#594a42;stroke:#231f20;stroke-miterlimit:10;stroke-width:3px"/><rect x="317.95" y="178.88" width="43.01" height="21.02" rx="3.75" ry="3.75" style="fill:#594a42;stroke:#231f20;stroke-miterlimit:10;stroke-width:3px"/><rect x="405.24" y="178.88" width="43.01" height="21.02" rx="3.75" ry="3.75" style="fill:#594a42;stroke:#231f20;stroke-miterlimit:10;stroke-width:3px"/><rect x="55.35" y="232.33" width="43.01" height="21.02" rx="3.75" ry="3.75" style="fill:#594a42;stroke:#231f20;stroke-miterlimit:10;stroke-width:3px"/><rect x="142.78" y="232.33" width="43.01" height="21.02" rx="3.75" ry="3.75" style="fill:#594a42;stroke:#231f20;stroke-miterlimit:10;stroke-width:3px"/><rect x="230.52" y="232.33" width="43.01" height="21.02" rx="3.75" ry="3.75" style="fill:#594a42;stroke:#231f20;stroke-miterlimit:10;stroke-width:3px"/><rect x="317.95" y="232.33" width="43.01" height="21.02" rx="3.75" ry="3.75" style="fill:#594a42;stroke:#231f20;stroke-miterlimit:10;stroke-width:3px"/><rect x="405.24" y="232.33" width="43.01" height="21.02" rx="3.75" ry="3.75" style="fill:#594a42;stroke:#231f20;stroke-miterlimit:10;stroke-width:3px"/><rect x="55.35" y="285.78" width="43.01" height="21.02" rx="3.75" ry="3.75" style="fill:#594a42;stroke:#231f20;stroke-miterlimit:10;stroke-width:3px"/><rect x="142.78" y="285.78" width="43.01" height="21.02" rx="3.75" ry="3.75" style="fill:#594a42;stroke:#231f20;stroke-miterlimit:10;stroke-width:3px"/><rect x="230.52" y="285.78" width="43.01" height="21.02" rx="3.75" ry="3.75" style="fill:#594a42;stroke:#231f20;stroke-miterlimit:10;stroke-width:3px"/><rect x="317.95" y="285.78" width="43.01" height="21.02" rx="3.75" ry="3.75" style="fill:#594a42;stroke:#231f20;stroke-miterlimit:10;stroke-width:3px"/><rect x="405.24" y="285.78" width="43.01" height="21.02" rx="3.75" ry="3.75" style="fill:#594a42;stroke:#231f20;stroke-miterlimit:10;stroke-width:3px"/><line x1="32.3" y1="159.59" x2="465.78" y2="159.59" style="fill:none;stroke:#231f20;stroke-miterlimit:10;stroke-width:2px"/><line x1="32.3" y1="216.23" x2="465.78" y2="216.23" style="fill:none;stroke:#231f20;stroke-miterlimit:10;stroke-width:2px"/><line x1="32.3" y1="267.2" x2="465.78" y2="267.2" style="fill:none;stroke:#231f20;stroke-miterlimit:10;stroke-width:2px"/><line x1="32.3" y1="323.85" x2="465.78" y2="323.85" style="fill:none;stroke:#231f20;stroke-miterlimit:10;stroke-width:2px"/><rect x="55.35" y="356.52" width="126.38" height="116.9" style="fill:#c49a6c;stroke:#231f20;stroke-miterlimit:10;stroke-width:4px"/><line x1="120.81" y1="356.64" x2="120.81" y2="474.02" style="fill:#c49a6c;stroke:#231f20;stroke-miterlimit:10;stroke-width:4px"/><rect x="326.52" y="356.52" width="126.38" height="116.9" style="fill:#c49a6c;stroke:#231f20;stroke-miterlimit:10;stroke-width:4px"/><line x1="391.98" y1="356.64" x2="391.98" y2="474.02" style="fill:#c49a6c;stroke:#231f20;stroke-miterlimit:10;stroke-width:4px"/></g><circle id="pivot_ground" cx="252.03" cy="470.15" r="9.45" style="fill:none"/><circle id="pivot_top" cx="269.4" cy="32.41" r="9.45" style="fill:none"/><circle id="pivot_left_end" cx="16.6" cy="280.56" r="9.45" style="fill:none"/><circle id="pivot_right_end" cx="484.45" cy="252.21" r="9.45" style="fill:none"/></g></svg>