<svg id="Layer_1" data-name="Layer 1" xmlns="http://www.w3.org/2000/svg" viewBox="0 0 483.12 328.2"><title>cloud_rainy</title><g id="cloud_rainy"><g id="cloud_rainy-2" data-name="cloud_rainy"><path d="M457.12,294.42l20.8-51.34s-1.73-37.06-5.56-36.54-32.83-20.35-32.83-20.35l-41.65-21.27L370,140.37l-38.82-6.15-39.2-16-78.64-18L152.8,134.4,35.15,201.79l-1.87,71.55L58,297l70.45-7.07L195.79,297,311.43,293,393.77,297l63.36-2.53Z" transform="translate(-8.36 -86.07)" style="fill:#4eaadf"/><path d="M291.59,414.27a13.46,13.46,0,0,0,10.06-4.47l49.51-54.9A13.54,13.54,0,0,0,331,336.77l-49.46,54.9a13.52,13.52,0,0,0,10,22.6Z" transform="translate(-8.36 -86.07)" style="fill:#121617"/><path d="M229,414.27A13.54,13.54,0,0,0,239,409.8l49.51-54.9a13.54,13.54,0,0,0-20.13-18.13l-49.5,54.9A13.55,13.55,0,0,0,229,414.27Z" transform="translate(-8.36 -86.07)" style="fill:#121617"/><path d="M166.32,414.27a13.54,13.54,0,0,0,10.06-4.47l49.51-54.9a13.54,13.54,0,0,0-20.13-18.13l-49.51,54.9a13.55,13.55,0,0,0,10.06,22.6Z" transform="translate(-8.36 -86.07)" style="fill:#121617"/><path d="M103.68,414.27a13.53,13.53,0,0,0,10.06-4.47l49.51-54.9a13.54,13.54,0,0,0-20.13-18.13l-49.51,54.9a13.55,13.55,0,0,0,10.06,22.6Z" transform="translate(-8.36 -86.07)" style="fill:#121617"/><path d="M382.74,270.16a13.57,13.57,0,0,1,8.63,3.09,44.66,44.66,0,1,0,28.37-79.14,45.26,45.26,0,0,0-5.85.39,13.57,13.57,0,0,1-14-7.71,68,68,0,0,0-79.6-36.93,13.53,13.53,0,0,1-14.14-4.62A85.07,85.07,0,0,0,175,142.81a13.53,13.53,0,0,1-10.83,4.7c-.86,0-1.68-.07-2.54-.07a68.25,68.25,0,0,0-61.68,39.34,13.57,13.57,0,0,1-14,7.71,44.18,44.18,0,0,0-5.85-.39,44.65,44.65,0,1,0,28.37,79.14,13.6,13.6,0,0,1,16.05-.89,67.85,67.85,0,0,0,68,3.64,13.55,13.55,0,0,1,11.79-.25,85.12,85.12,0,0,0,80.08-5.06,13.54,13.54,0,0,1,14.91.42,68,68,0,0,0,76.15,1.26,13.49,13.49,0,0,1,7.38-2.2Zm37,40.33A71.92,71.92,0,0,1,382,299.78a95,95,0,0,1-91-1.82,112.22,112.22,0,0,1-92.16,4.9,95.12,95.12,0,0,1-81.14-3.08A71.72,71.72,0,1,1,79.82,167a95.44,95.44,0,0,1,79-46.62,112.11,112.11,0,0,1,162.85,1.42A95,95,0,0,1,420,167a71.73,71.73,0,0,1-.29,143.45Z" transform="translate(-8.36 -86.07)" style="fill:#121617"/></g><circle id="pivot_bottom" cx="235.9" cy="214.96" r="9.45" style="fill:none"/><circle id="pivot_top" cx="232.11" cy="9.45" r="9.45" style="fill:none"/><circle id="pivot_left_end" cx="10.73" cy="154.88" r="9.45" style="fill:none"/><circle id="pivot_right_end" cx="472.53" cy="149.71" r="9.45" style="fill:none"/></g></svg>