<svg id="Layer_1" data-name="Layer 1" xmlns="http://www.w3.org/2000/svg" viewBox="0 0 480.7 301.8"><title>cloud_little</title><g id="cloud_little"><g id="cloud_little-2" data-name="cloud_little"><path d="M255.71,134.55c44.45-.75,71.63,35.28,105,53.24s97.5,39.13,98.15,72.49S428,377,385.07,372.54s-87.88-14.11-113.54-16.68-87.81,14.11-135.64,7.7-94-60.3-90.8-94.3c0,0,10.68-98.79,81.35-95.58S217.44,135.19,255.71,134.55Z" transform="translate(-9.64 -99.5)" style="fill:#fff"/><path d="M320,317.15a32.67,32.67,0,0,1,19.93,6.78,52.59,52.59,0,1,0,32-94.41,54.53,54.53,0,0,0-5.49.28,33,33,0,0,1-32.69-17.9,84.63,84.63,0,0,0-141-15.52,33,33,0,0,1-34.48,10.8A65,65,0,1,0,177.51,323.1a33,33,0,0,1,36.15-1,84.69,84.69,0,0,0,44.5,12.6,83.79,83.79,0,0,0,44.38-12.64A33.11,33.11,0,0,1,320,317.15Zm51.9,83.42a117.11,117.11,0,0,1-53.33-12.64c-38.06,16.69-83.4,16.61-121.34-.24a130.51,130.51,0,0,1-56.67,12.87c-72.18,0-130.88-58.7-130.88-130.86s58.7-130.87,130.88-130.87a131.47,131.47,0,0,1,15.15.88,150.52,150.52,0,0,1,226,24.33c60.73,5,108.69,56.06,108.69,118.06,0,65.32-53.21,118.46-118.48,118.46Z" transform="translate(-9.64 -99.5)" style="fill:#121617"/></g><circle id="pivot_bottom" cx="126.25" cy="292.35" r="9.45" style="fill:none"/><circle id="pivot_top" cx="255.52" cy="9.45" r="9.45" style="fill:none"/><circle id="pivot_left_end" cx="9.45" cy="172.23" r="9.45" style="fill:none"/><circle id="pivot_right_end" cx="471.25" cy="185.06" r="9.45" style="fill:none"/></g></svg>