<svg id="Layer_1" data-name="Layer 1" xmlns="http://www.w3.org/2000/svg" viewBox="0 0 370.7 486.9"><title>tree_b</title><g id="tree_b"><g id="tree_b-2" data-name="tree_b"><path d="M241,403.4h8.21s35.56,4,78.76-20.06,75.93-130,75.93-130l-2.13-127.22L266.65,31.36,101.53,71.9,98.2,110.82v124s-4.33,24.83-13.82,47.35l22.13,52.24,71.85,41.38L241,403.4Z" transform="translate(-64.4 -6.02)" style="fill:#39b54a"/><path d="M294.35,355.87A165.87,165.87,0,0,0,395.71,206.4c-2.57-89.2-75.88-161-165.69-161A165.55,165.55,0,0,0,98.2,110.82V54.17A204.13,204.13,0,0,1,230,6C341.55,6,432.53,95.49,435.1,206.41A205.17,205.17,0,0,1,309.75,392.12a19.7,19.7,0,0,1-15.4-36.25Z" transform="translate(-64.4 -6.02)" style="fill:#121617"/><path d="M249.17,199.21A19.15,19.15,0,1,1,230,180.07a19.15,19.15,0,0,1,19.15,19.14Z" transform="translate(-64.4 -6.02)" style="fill:#121617"/><path d="M210.33,367.73V278.32a19.7,19.7,0,0,1,39.39,0V473.24a19.7,19.7,0,0,1-39.39,0V407.37A205.12,205.12,0,0,1,64.4,324a232.59,232.59,0,0,0,20-41.85,166,166,0,0,0,125.95,85.57Z" transform="translate(-64.4 -6.02)" style="fill:#121617"/></g><circle id="pivot_ground" cx="167.17" cy="477.45" r="9.45" style="fill:none"/><circle id="pivot_top" cx="167.17" cy="9.45" r="9.45" style="fill:none"/><circle id="pivot_left_end" cx="10.53" cy="318.62" r="9.45" style="fill:none"/><circle id="pivot_right_end" cx="361.24" cy="197.44" r="9.45" style="fill:none"/></g></svg>