<svg id="Layer_1" data-name="Layer 1" xmlns="http://www.w3.org/2000/svg" viewBox="0 0 486.57 344.25"><title>wind</title><g id="wind"><g id="wind-2" data-name="wind"><path d="M268.07,422.2H472.56a20.74,20.74,0,0,0,0-41.49H268.07a20.74,20.74,0,1,0,0,41.49Z" transform="translate(-6.73 -77.94)" style="fill:#121617"/><path d="M172.65,409.8a20.74,20.74,0,0,0,0-41.49A124.44,124.44,0,1,1,297.1,243.87a20.74,20.74,0,0,0,41.49,0c0-91.49-74.44-165.93-165.93-165.93S6.73,152.38,6.73,243.87,81.16,409.8,172.65,409.8Z" transform="translate(-6.73 -77.94)" style="fill:#121617"/><path d="M171.45,349.09H355a20.74,20.74,0,1,0,0-41.49H171.45a20.74,20.74,0,1,0,0,41.49Z" transform="translate(-6.73 -77.94)" style="fill:#121617"/><path d="M176.74,349.09a20.74,20.74,0,0,0,0-41.49,58.42,58.42,0,1,1,58.42-58.41,20.74,20.74,0,0,0,41.49,0,99.9,99.9,0,1,0-99.91,99.9Z" transform="translate(-6.73 -77.94)" style="fill:#121617"/></g><circle id="pivot_bottom" cx="281.9" cy="334.8" r="9.45" style="fill:none"/><circle id="pivot_top" cx="170.01" cy="9.89" r="9.45" style="fill:none"/><circle id="pivot_left_end" cx="9.45" cy="161.8" r="9.45" style="fill:none"/><circle id="pivot_right_end" cx="477.12" cy="284.94" r="9.45" style="fill:none"/></g></svg>