<svg id="Layer_1" data-name="Layer 1" xmlns="http://www.w3.org/2000/svg" viewBox="0 0 487.86 389.31"><title>bicycle</title><g id="bicycle"><g id="bicycle-2" data-name="bicycle"><path d="M201,337.47a86.06,86.06,0,1,1-86.06-86.06A86.08,86.08,0,0,1,201,337.47Z" transform="translate(-6.12 -55.45)" style="fill:#fff"/><path d="M471.76,356.08a77.89,77.89,0,1,1-77.89-77.88,77.89,77.89,0,0,1,77.89,77.88Z" transform="translate(-6.12 -55.45)" style="fill:#fff"/><path d="M414.28,343.66A23.67,23.67,0,1,1,390.64,320a23.66,23.66,0,0,1,23.64,23.66Z" transform="translate(-6.12 -55.45)" style="fill:#121617"/><path d="M252.13,406.82a21.7,21.7,0,0,1-21.67-21.68V306A62.55,62.55,0,0,0,212,261.35l-17.51-17.5a53.9,53.9,0,0,1,0-76.21l16.88-16.85a53.9,53.9,0,0,1,76.17,0l16.25,16.27a62.78,62.78,0,0,0,44.6,18.48h18.53a21.68,21.68,0,0,1,0,43.35H348.4a105.67,105.67,0,0,1-75.23-31.17l-16.25-16.27a10.56,10.56,0,0,0-14.92,0l-16.88,16.85a10.6,10.6,0,0,0,0,14.9l17.51,17.5A105.74,105.74,0,0,1,273.8,306v79.19a21.65,21.65,0,0,1-21.67,21.68Z" transform="translate(-6.12 -55.45)" style="fill:#121617"/><path d="M365.12,97a41.58,41.58,0,1,1-41.54-41.55A41.55,41.55,0,0,1,365.12,97Z" transform="translate(-6.12 -55.45)" style="fill:#121617"/><path d="M107.18,285.94a57.73,57.73,0,1,0,57.71,57.73,57.8,57.8,0,0,0-57.71-57.73Zm0,158.81A101.08,101.08,0,1,1,208.23,343.67,101.17,101.17,0,0,1,107.18,444.76Z" transform="translate(-6.12 -55.45)" style="fill:#121617"/><path d="M392.92,285.94a57.73,57.73,0,1,0,57.71,57.73,57.8,57.8,0,0,0-57.71-57.73Zm0,158.81A101.08,101.08,0,1,1,494,343.67,101.17,101.17,0,0,1,392.92,444.76Z" transform="translate(-6.12 -55.45)" style="fill:#121617"/></g><circle id="pivot_ground" cx="101.06" cy="378.52" r="9.45" style="fill:none"/><circle id="pivot_top" cx="322.1" cy="9.45" r="9.45" style="fill:none"/><circle id="pivot_left_end" cx="10.48" cy="225.11" r="9.45" style="fill:none"/><circle id="pivot_right_end" cx="478.34" cy="196.76" r="9.45" style="fill:none"/></g></svg>