<svg id="Layer_1" data-name="Layer 1" xmlns="http://www.w3.org/2000/svg" viewBox="0 0 478.91 478.91"><title>sun</title><g id="sun"><g id="sun-2" data-name="sun"><path d="M112.44,244.95A131.74,131.74,0,1,0,244.18,113.2,131.74,131.74,0,0,0,112.44,244.95Z" transform="translate(-10.04 -10.61)" style="fill:#fff"/><path d="M399,131.9a192,192,0,0,0-31.39-31.39l19.76-19.76a22.2,22.2,0,1,1,31.39,31.39L399,131.9Z" transform="translate(-10.04 -10.61)" style="fill:#121617"/><path d="M227.3,60.65V32.8a22.2,22.2,0,0,1,44.39,0V60.65a186.21,186.21,0,0,0-44.39,0Z" transform="translate(-10.04 -10.61)" style="fill:#121617"/><path d="M466.75,227.86a22.2,22.2,0,1,1,0,44.39H438.9a186.14,186.14,0,0,0,0-44.39Z" transform="translate(-10.04 -10.61)" style="fill:#121617"/><path d="M111.57,80.75l19.76,19.76A192.28,192.28,0,0,0,99.94,131.9L80.18,112.13a22.19,22.19,0,1,1,31.39-31.39Z" transform="translate(-10.04 -10.61)" style="fill:#121617"/><path d="M32.23,227.86H60.09a186.14,186.14,0,0,0,0,44.39H32.23a22.2,22.2,0,0,1,0-44.39Z" transform="translate(-10.04 -10.61)" style="fill:#121617"/><path d="M99.94,368.23a192.58,192.58,0,0,0,31.39,31.39l-19.76,19.76A22.2,22.2,0,0,1,80.18,388l19.76-19.76Z" transform="translate(-10.04 -10.61)" style="fill:#121617"/><path d="M399,368.23,418.81,388a22.2,22.2,0,0,1-31.39,31.39l-19.76-19.76A192.33,192.33,0,0,0,399,368.23Z" transform="translate(-10.04 -10.61)" style="fill:#121617"/><path d="M271.69,439.46v27.85a22.2,22.2,0,1,1-44.39,0V439.46a185,185,0,0,0,44.39,0Z" transform="translate(-10.04 -10.61)" style="fill:#121617"/><path d="M138.8,250.06A110.69,110.69,0,1,1,249.5,360.75,110.81,110.81,0,0,1,138.8,250.06Zm-43.15,0c0,84.82,69,153.83,153.84,153.83s153.84-69,153.84-153.83S334.32,96.23,249.5,96.23s-153.84,69-153.84,153.84Z" transform="translate(-10.04 -10.61)" style="fill:#121617"/></g><circle id="pivot_bottom" cx="240.44" cy="469.45" r="9.45" style="fill:none"/><circle id="pivot_top" cx="240.44" cy="9.45" r="9.45" style="fill:none"/><circle id="pivot_left_end" cx="10.19" cy="239.45" r="9.45" style="fill:none"/><circle id="pivot_right_end" cx="469.46" cy="239.45" r="9.45" style="fill:none"/><circle id="pivot_center" cx="240.46" cy="239.45" r="9.45" style="fill:none"/></g></svg>