<svg id="Layer_1" data-name="Layer 1" xmlns="http://www.w3.org/2000/svg" viewBox="0 0 515.24 560.63"><title>africa</title><g id="africa"><g id="africa-2" data-name="africa"><path d="M1302.5,786.47a2,2,0,1,0-2-2A2,2,0,0,0,1302.5,786.47Z" transform="translate(-1165.6 -779.83)" style="fill:#003370"/><path d="M1318.9,788.47a4,4,0,1,0-4-4A4,4,0,0,0,1318.9,788.47Z" transform="translate(-1165.6 -779.83)" style="fill:#003370"/><path d="M1335.31,789.11a4.64,4.64,0,1,0-4.64-4.64A4.64,4.64,0,0,0,1335.31,789.11Z" transform="translate(-1165.6 -779.83)" style="fill:#003370"/><path d="M1351.71,789.11a4.64,4.64,0,1,0-4.64-4.64A4.64,4.64,0,0,0,1351.71,789.11Z" transform="translate(-1165.6 -779.83)" style="fill:#003370"/><path d="M1368.11,789.11a4.64,4.64,0,1,0-4.64-4.64A4.64,4.64,0,0,0,1368.11,789.11Z" transform="translate(-1165.6 -779.83)" style="fill:#003370"/><path d="M1384.52,788.83a4.37,4.37,0,1,0-4.37-4.37A4.37,4.37,0,0,0,1384.52,788.83Z" transform="translate(-1165.6 -779.83)" style="fill:#003370"/><path d="M1253.29,801.51a.64.64,0,1,0-.64-.64A.64.64,0,0,0,1253.29,801.51Z" transform="translate(-1165.6 -779.83)" style="fill:#003370"/><path d="M1269.69,804.46a3.59,3.59,0,1,0-3.59-3.59A3.59,3.59,0,0,0,1269.69,804.46Z" transform="translate(-1165.6 -779.83)" style="fill:#003370"/><path d="M1286.09,805.51a4.64,4.64,0,1,0-4.64-4.64A4.64,4.64,0,0,0,1286.09,805.51Z" transform="translate(-1165.6 -779.83)" style="fill:#003370"/><path d="M1302.5,805.51a4.64,4.64,0,1,0-4.64-4.64A4.64,4.64,0,0,0,1302.5,805.51Z" transform="translate(-1165.6 -779.83)" style="fill:#003370"/><path d="M1318.9,805.51a4.64,4.64,0,1,0-4.64-4.64A4.64,4.64,0,0,0,1318.9,805.51Z" transform="translate(-1165.6 -779.83)" style="fill:#003370"/><path d="M1335.31,805.51a4.64,4.64,0,1,0-4.64-4.64A4.64,4.64,0,0,0,1335.31,805.51Z" transform="translate(-1165.6 -779.83)" style="fill:#003370"/><path d="M1351.71,805.51a4.64,4.64,0,1,0-4.64-4.64A4.64,4.64,0,0,0,1351.71,805.51Z" transform="translate(-1165.6 -779.83)" style="fill:#003370"/><path d="M1368.11,805.51a4.64,4.64,0,1,0-4.64-4.64A4.64,4.64,0,0,0,1368.11,805.51Z" transform="translate(-1165.6 -779.83)" style="fill:#003370"/><path d="M1384.52,804.87a4,4,0,1,0-4-4A4,4,0,0,0,1384.52,804.87Z" transform="translate(-1165.6 -779.83)" style="fill:#003370"/><path d="M1253.29,820.78a3.5,3.5,0,1,0-3.5-3.5A3.5,3.5,0,0,0,1253.29,820.78Z" transform="translate(-1165.6 -779.83)" style="fill:#003370"/><path d="M1269.69,821.91a4.64,4.64,0,1,0-4.64-4.64A4.64,4.64,0,0,0,1269.69,821.91Z" transform="translate(-1165.6 -779.83)" style="fill:#003370"/><path d="M1286.09,821.91a4.64,4.64,0,1,0-4.64-4.64A4.64,4.64,0,0,0,1286.09,821.91Z" transform="translate(-1165.6 -779.83)" style="fill:#003370"/><path d="M1302.5,821.91a4.64,4.64,0,1,0-4.64-4.64A4.64,4.64,0,0,0,1302.5,821.91Z" transform="translate(-1165.6 -779.83)" style="fill:#003370"/><path d="M1318.9,821.91a4.64,4.64,0,1,0-4.64-4.64A4.64,4.64,0,0,0,1318.9,821.91Z" transform="translate(-1165.6 -779.83)" style="fill:#003370"/><path d="M1335.31,821.91a4.64,4.64,0,1,0-4.64-4.64A4.64,4.64,0,0,0,1335.31,821.91Z" transform="translate(-1165.6 -779.83)" style="fill:#003370"/><path d="M1351.71,821.91a4.64,4.64,0,1,0-4.64-4.64A4.64,4.64,0,0,0,1351.71,821.91Z" transform="translate(-1165.6 -779.83)" style="fill:#003370"/><path d="M1368.11,821.91a4.64,4.64,0,1,0-4.64-4.64A4.64,4.64,0,0,0,1368.11,821.91Z" transform="translate(-1165.6 -779.83)" style="fill:#003370"/><path d="M1384.52,821.91a4.64,4.64,0,1,0-4.64-4.64A4.64,4.64,0,0,0,1384.52,821.91Z" transform="translate(-1165.6 -779.83)" style="fill:#003370"/><path d="M1400.92,821.87a4.59,4.59,0,1,0-4.59-4.59A4.59,4.59,0,0,0,1400.92,821.87Z" transform="translate(-1165.6 -779.83)" style="fill:#003370"/><path d="M1417.32,820.82a3.55,3.55,0,1,0-3.55-3.55A3.55,3.55,0,0,0,1417.32,820.82Z" transform="translate(-1165.6 -779.83)" style="fill:#003370"/><path d="M1433.73,817.64a.36.36,0,1,0-.36-.36A.36.36,0,0,0,1433.73,817.64Z" transform="translate(-1165.6 -779.83)" style="fill:#003370"/><path d="M1450.13,817.91a.64.64,0,1,0-.64-.64A.64.64,0,0,0,1450.13,817.91Z" transform="translate(-1165.6 -779.83)" style="fill:#003370"/><path d="M1466.54,821.46a4.18,4.18,0,1,0-4.19-4.18A4.19,4.19,0,0,0,1466.54,821.46Z" transform="translate(-1165.6 -779.83)" style="fill:#003370"/><path d="M1482.94,820.14a2.87,2.87,0,1,0-2.87-2.87A2.87,2.87,0,0,0,1482.94,820.14Z" transform="translate(-1165.6 -779.83)" style="fill:#003370"/><path d="M1499.34,818.23a1,1,0,1,0-1-1A1,1,0,0,0,1499.34,818.23Z" transform="translate(-1165.6 -779.83)" style="fill:#003370"/><path d="M1236.88,833.86a.18.18,0,1,0-.18-.18A.18.18,0,0,0,1236.88,833.86Z" transform="translate(-1165.6 -779.83)" style="fill:#003370"/><path d="M1253.29,837.91a4.23,4.23,0,1,0-4.23-4.23A4.23,4.23,0,0,0,1253.29,837.91Z" transform="translate(-1165.6 -779.83)" style="fill:#003370"/><path d="M1269.69,838.32a4.64,4.64,0,1,0-4.64-4.64A4.64,4.64,0,0,0,1269.69,838.32Z" transform="translate(-1165.6 -779.83)" style="fill:#003370"/><path d="M1286.09,838.32a4.64,4.64,0,1,0-4.64-4.64A4.64,4.64,0,0,0,1286.09,838.32Z" transform="translate(-1165.6 -779.83)" style="fill:#003370"/><path d="M1302.5,838.32a4.64,4.64,0,1,0-4.64-4.64A4.64,4.64,0,0,0,1302.5,838.32Z" transform="translate(-1165.6 -779.83)" style="fill:#003370"/><path d="M1318.9,838.32a4.64,4.64,0,1,0-4.64-4.64A4.64,4.64,0,0,0,1318.9,838.32Z" transform="translate(-1165.6 -779.83)" style="fill:#003370"/><path d="M1335.31,838.32a4.64,4.64,0,1,0-4.64-4.64A4.64,4.64,0,0,0,1335.31,838.32Z" transform="translate(-1165.6 -779.83)" style="fill:#003370"/><path d="M1351.71,838.32a4.64,4.64,0,1,0-4.64-4.64A4.64,4.64,0,0,0,1351.71,838.32Z" transform="translate(-1165.6 -779.83)" style="fill:#003370"/><path d="M1368.11,838.32a4.64,4.64,0,1,0-4.64-4.64A4.64,4.64,0,0,0,1368.11,838.32Z" transform="translate(-1165.6 -779.83)" style="fill:#003370"/><path d="M1384.52,838.32a4.64,4.64,0,1,0-4.64-4.64A4.64,4.64,0,0,0,1384.52,838.32Z" transform="translate(-1165.6 -779.83)" style="fill:#003370"/><path d="M1400.92,838.32a4.64,4.64,0,1,0-4.64-4.64A4.64,4.64,0,0,0,1400.92,838.32Z" transform="translate(-1165.6 -779.83)" style="fill:#003370"/><path d="M1417.32,838.32a4.64,4.64,0,1,0-4.64-4.64A4.64,4.64,0,0,0,1417.32,838.32Z" transform="translate(-1165.6 -779.83)" style="fill:#003370"/><path d="M1433.73,838.27a4.59,4.59,0,1,0-4.59-4.59A4.59,4.59,0,0,0,1433.73,838.27Z" transform="translate(-1165.6 -779.83)" style="fill:#003370"/><path d="M1450.13,837.22a3.55,3.55,0,1,0-3.55-3.55A3.55,3.55,0,0,0,1450.13,837.22Z" transform="translate(-1165.6 -779.83)" style="fill:#003370"/><path d="M1466.54,838.32a4.64,4.64,0,1,0-4.64-4.64A4.64,4.64,0,0,0,1466.54,838.32Z" transform="translate(-1165.6 -779.83)" style="fill:#003370"/><path d="M1482.94,838.32a4.64,4.64,0,1,0-4.64-4.64A4.64,4.64,0,0,0,1482.94,838.32Z" transform="translate(-1165.6 -779.83)" style="fill:#003370"/><path d="M1499.34,838.32a4.64,4.64,0,1,0-4.64-4.64A4.64,4.64,0,0,0,1499.34,838.32Z" transform="translate(-1165.6 -779.83)" style="fill:#003370"/><circle cx="350.15" cy="53.85" r="4.46" style="fill:#003370"/><path d="M1532.15,838.32a4.64,4.64,0,1,0-4.64-4.64A4.64,4.64,0,0,0,1532.15,838.32Z" transform="translate(-1165.6 -779.83)" style="fill:#003370"/><path d="M1548.56,838a4.37,4.37,0,1,0-4.37-4.37A4.37,4.37,0,0,0,1548.56,838Z" transform="translate(-1165.6 -779.83)" style="fill:#003370"/><circle cx="54.88" cy="70.26" r="0.77" style="fill:#003370"/><path d="M1236.88,854.17a4.09,4.09,0,1,0-4.09-4.09A4.09,4.09,0,0,0,1236.88,854.17Z" transform="translate(-1165.6 -779.83)" style="fill:#003370"/><path d="M1253.29,854.72a4.64,4.64,0,1,0-4.64-4.64A4.64,4.64,0,0,0,1253.29,854.72Z" transform="translate(-1165.6 -779.83)" style="fill:#003370"/><path d="M1269.69,854.72a4.64,4.64,0,1,0-4.64-4.64A4.64,4.64,0,0,0,1269.69,854.72Z" transform="translate(-1165.6 -779.83)" style="fill:#003370"/><path d="M1286.09,854.72a4.64,4.64,0,1,0-4.64-4.64A4.64,4.64,0,0,0,1286.09,854.72Z" transform="translate(-1165.6 -779.83)" style="fill:#003370"/><path d="M1302.5,854.72a4.64,4.64,0,1,0-4.64-4.64A4.64,4.64,0,0,0,1302.5,854.72Z" transform="translate(-1165.6 -779.83)" style="fill:#003370"/><path d="M1318.9,854.72a4.64,4.64,0,1,0-4.64-4.64A4.64,4.64,0,0,0,1318.9,854.72Z" transform="translate(-1165.6 -779.83)" style="fill:#003370"/><path d="M1335.31,854.72a4.64,4.64,0,1,0-4.64-4.64A4.64,4.64,0,0,0,1335.31,854.72Z" transform="translate(-1165.6 -779.83)" style="fill:#003370"/><path d="M1351.71,854.72a4.64,4.64,0,1,0-4.64-4.64A4.64,4.64,0,0,0,1351.71,854.72Z" transform="translate(-1165.6 -779.83)" style="fill:#003370"/><path d="M1368.11,854.72a4.64,4.64,0,1,0-4.64-4.64A4.64,4.64,0,0,0,1368.11,854.72Z" transform="translate(-1165.6 -779.83)" style="fill:#003370"/><path d="M1384.52,854.72a4.64,4.64,0,1,0-4.64-4.64A4.64,4.64,0,0,0,1384.52,854.72Z" transform="translate(-1165.6 -779.83)" style="fill:#003370"/><path d="M1400.92,854.72a4.64,4.64,0,1,0-4.64-4.64A4.64,4.64,0,0,0,1400.92,854.72Z" transform="translate(-1165.6 -779.83)" style="fill:#003370"/><path d="M1417.32,854.72a4.64,4.64,0,1,0-4.64-4.64A4.64,4.64,0,0,0,1417.32,854.72Z" transform="translate(-1165.6 -779.83)" style="fill:#003370"/><path d="M1433.73,854.72a4.64,4.64,0,1,0-4.64-4.64A4.64,4.64,0,0,0,1433.73,854.72Z" transform="translate(-1165.6 -779.83)" style="fill:#003370"/><path d="M1450.13,854.72a4.64,4.64,0,1,0-4.64-4.64A4.64,4.64,0,0,0,1450.13,854.72Z" transform="translate(-1165.6 -779.83)" style="fill:#003370"/><path d="M1466.54,854.72a4.64,4.64,0,1,0-4.64-4.64A4.64,4.64,0,0,0,1466.54,854.72Z" transform="translate(-1165.6 -779.83)" style="fill:#003370"/><path d="M1482.94,854.72a4.64,4.64,0,1,0-4.64-4.64A4.64,4.64,0,0,0,1482.94,854.72Z" transform="translate(-1165.6 -779.83)" style="fill:#003370"/><path d="M1499.34,854.72a4.64,4.64,0,1,0-4.64-4.64A4.64,4.64,0,0,0,1499.34,854.72Z" transform="translate(-1165.6 -779.83)" style="fill:#003370"/><path d="M1515.75,854.72a4.64,4.64,0,1,0-4.64-4.64A4.64,4.64,0,0,0,1515.75,854.72Z" transform="translate(-1165.6 -779.83)" style="fill:#003370"/><path d="M1532.15,854.72a4.64,4.64,0,1,0-4.64-4.64A4.64,4.64,0,0,0,1532.15,854.72Z" transform="translate(-1165.6 -779.83)" style="fill:#003370"/><path d="M1548.56,853.08a3,3,0,1,0-3-3A3,3,0,0,0,1548.56,853.08Z" transform="translate(-1165.6 -779.83)" style="fill:#003370"/><path d="M1204.07,866.53a0,0,0,0,0,0,0,0,0,0,0,0-.09,0A0,0,0,0,0,1204.07,866.53Z" transform="translate(-1165.6 -779.83)" style="fill:#003370"/><path d="M1220.48,870a3.5,3.5,0,1,0-3.5-3.5A3.5,3.5,0,0,0,1220.48,870Z" transform="translate(-1165.6 -779.83)" style="fill:#003370"/><circle cx="71.29" cy="86.66" r="4.64" style="fill:#003370"/><path d="M1253.29,871.13a4.64,4.64,0,1,0-4.64-4.64A4.64,4.64,0,0,0,1253.29,871.13Z" transform="translate(-1165.6 -779.83)" style="fill:#003370"/><circle cx="104.09" cy="86.66" r="4.64" style="fill:#003370"/><circle cx="120.5" cy="86.66" r="4.64" style="fill:#003370"/><path d="M1302.5,871.13a4.64,4.64,0,1,0-4.64-4.64A4.64,4.64,0,0,0,1302.5,871.13Z" transform="translate(-1165.6 -779.83)" style="fill:#003370"/><path d="M1318.9,871.13a4.64,4.64,0,1,0-4.64-4.64A4.64,4.64,0,0,0,1318.9,871.13Z" transform="translate(-1165.6 -779.83)" style="fill:#003370"/><circle cx="169.71" cy="86.66" r="4.64" style="fill:#003370"/><path d="M1351.71,871.13a4.64,4.64,0,1,0-4.64-4.64A4.64,4.64,0,0,0,1351.71,871.13Z" transform="translate(-1165.6 -779.83)" style="fill:#003370"/><path d="M1368.11,871.13a4.64,4.64,0,1,0-4.64-4.64A4.64,4.64,0,0,0,1368.11,871.13Z" transform="translate(-1165.6 -779.83)" style="fill:#003370"/><path d="M1384.52,871.13a4.64,4.64,0,1,0-4.64-4.64A4.64,4.64,0,0,0,1384.52,871.13Z" transform="translate(-1165.6 -779.83)" style="fill:#003370"/><path d="M1400.92,871.13a4.64,4.64,0,1,0-4.64-4.64A4.64,4.64,0,0,0,1400.92,871.13Z" transform="translate(-1165.6 -779.83)" style="fill:#003370"/><path d="M1417.32,871.13a4.64,4.64,0,1,0-4.64-4.64A4.64,4.64,0,0,0,1417.32,871.13Z" transform="translate(-1165.6 -779.83)" style="fill:#003370"/><path d="M1433.73,871.13a4.64,4.64,0,1,0-4.64-4.64A4.64,4.64,0,0,0,1433.73,871.13Z" transform="translate(-1165.6 -779.83)" style="fill:#003370"/><path d="M1450.13,871.13a4.64,4.64,0,1,0-4.64-4.64A4.64,4.64,0,0,0,1450.13,871.13Z" transform="translate(-1165.6 -779.83)" style="fill:#003370"/><path d="M1466.54,871.13a4.64,4.64,0,1,0-4.64-4.64A4.64,4.64,0,0,0,1466.54,871.13Z" transform="translate(-1165.6 -779.83)" style="fill:#003370"/><path d="M1482.94,871.13a4.64,4.64,0,1,0-4.64-4.64A4.64,4.64,0,0,0,1482.94,871.13Z" transform="translate(-1165.6 -779.83)" style="fill:#003370"/><path d="M1499.34,871.13a4.64,4.64,0,1,0-4.64-4.64A4.64,4.64,0,0,0,1499.34,871.13Z" transform="translate(-1165.6 -779.83)" style="fill:#003370"/><circle cx="350.15" cy="86.66" r="4.64" style="fill:#003370"/><path d="M1532.15,871.13a4.64,4.64,0,1,0-4.64-4.64A4.64,4.64,0,0,0,1532.15,871.13Z" transform="translate(-1165.6 -779.83)" style="fill:#003370"/><path d="M1548.56,870.76a4.28,4.28,0,1,0-4.28-4.28A4.28,4.28,0,0,0,1548.56,870.76Z" transform="translate(-1165.6 -779.83)" style="fill:#003370"/><path d="M1204.07,884.43a1.55,1.55,0,1,0-1.55-1.55A1.55,1.55,0,0,0,1204.07,884.43Z" transform="translate(-1165.6 -779.83)" style="fill:#003370"/><path d="M1220.48,887.53a4.64,4.64,0,1,0-4.64-4.64A4.64,4.64,0,0,0,1220.48,887.53Z" transform="translate(-1165.6 -779.83)" style="fill:#003370"/><path d="M1236.88,887.53a4.64,4.64,0,1,0-4.64-4.64A4.64,4.64,0,0,0,1236.88,887.53Z" transform="translate(-1165.6 -779.83)" style="fill:#003370"/><path d="M1253.29,887.53a4.64,4.64,0,1,0-4.64-4.64A4.64,4.64,0,0,0,1253.29,887.53Z" transform="translate(-1165.6 -779.83)" style="fill:#003370"/><path d="M1269.69,887.53a4.64,4.64,0,1,0-4.64-4.64A4.64,4.64,0,0,0,1269.69,887.53Z" transform="translate(-1165.6 -779.83)" style="fill:#003370"/><path d="M1286.09,887.53a4.64,4.64,0,1,0-4.64-4.64A4.64,4.64,0,0,0,1286.09,887.53Z" transform="translate(-1165.6 -779.83)" style="fill:#003370"/><path d="M1302.5,887.53a4.64,4.64,0,1,0-4.64-4.64A4.64,4.64,0,0,0,1302.5,887.53Z" transform="translate(-1165.6 -779.83)" style="fill:#003370"/><path d="M1318.9,887.53a4.64,4.64,0,1,0-4.64-4.64A4.64,4.64,0,0,0,1318.9,887.53Z" transform="translate(-1165.6 -779.83)" style="fill:#003370"/><path d="M1335.31,887.53a4.64,4.64,0,1,0-4.64-4.64A4.64,4.64,0,0,0,1335.31,887.53Z" transform="translate(-1165.6 -779.83)" style="fill:#003370"/><path d="M1351.71,887.53a4.64,4.64,0,1,0-4.64-4.64A4.64,4.64,0,0,0,1351.71,887.53Z" transform="translate(-1165.6 -779.83)" style="fill:#003370"/><path d="M1368.11,887.53a4.64,4.64,0,1,0-4.64-4.64A4.64,4.64,0,0,0,1368.11,887.53Z" transform="translate(-1165.6 -779.83)" style="fill:#003370"/><path d="M1384.52,887.53a4.64,4.64,0,1,0-4.64-4.64A4.64,4.64,0,0,0,1384.52,887.53Z" transform="translate(-1165.6 -779.83)" style="fill:#003370"/><path d="M1400.92,887.53a4.64,4.64,0,1,0-4.64-4.64A4.64,4.64,0,0,0,1400.92,887.53Z" transform="translate(-1165.6 -779.83)" style="fill:#003370"/><path d="M1417.32,887.53a4.64,4.64,0,1,0-4.64-4.64A4.64,4.64,0,0,0,1417.32,887.53Z" transform="translate(-1165.6 -779.83)" style="fill:#003370"/><path d="M1433.73,887.53a4.64,4.64,0,1,0-4.64-4.64A4.64,4.64,0,0,0,1433.73,887.53Z" transform="translate(-1165.6 -779.83)" style="fill:#003370"/><path d="M1450.13,887.53a4.64,4.64,0,1,0-4.64-4.64A4.64,4.64,0,0,0,1450.13,887.53Z" transform="translate(-1165.6 -779.83)" style="fill:#003370"/><path d="M1466.54,887.53a4.64,4.64,0,1,0-4.64-4.64A4.64,4.64,0,0,0,1466.54,887.53Z" transform="translate(-1165.6 -779.83)" style="fill:#003370"/><path d="M1482.94,887.53a4.64,4.64,0,1,0-4.64-4.64A4.64,4.64,0,0,0,1482.94,887.53Z" transform="translate(-1165.6 -779.83)" style="fill:#003370"/><path d="M1499.34,887.53a4.64,4.64,0,1,0-4.64-4.64A4.64,4.64,0,0,0,1499.34,887.53Z" transform="translate(-1165.6 -779.83)" style="fill:#003370"/><path d="M1515.75,887.53a4.64,4.64,0,1,0-4.64-4.64A4.64,4.64,0,0,0,1515.75,887.53Z" transform="translate(-1165.6 -779.83)" style="fill:#003370"/><path d="M1532.15,887.53a4.64,4.64,0,1,0-4.64-4.64A4.64,4.64,0,0,0,1532.15,887.53Z" transform="translate(-1165.6 -779.83)" style="fill:#003370"/><path d="M1548.56,887.53a4.64,4.64,0,1,0-4.64-4.64A4.64,4.64,0,0,0,1548.56,887.53Z" transform="translate(-1165.6 -779.83)" style="fill:#003370"/><path d="M1204.07,903.39a4.09,4.09,0,1,0-4.09-4.09A4.09,4.09,0,0,0,1204.07,903.39Z" transform="translate(-1165.6 -779.83)" style="fill:#003370"/><path d="M1220.48,903.93a4.64,4.64,0,1,0-4.64-4.64A4.64,4.64,0,0,0,1220.48,903.93Z" transform="translate(-1165.6 -779.83)" style="fill:#003370"/><path d="M1236.88,903.93a4.64,4.64,0,1,0-4.64-4.64A4.64,4.64,0,0,0,1236.88,903.93Z" transform="translate(-1165.6 -779.83)" style="fill:#003370"/><path d="M1253.29,903.93a4.64,4.64,0,1,0-4.64-4.64A4.64,4.64,0,0,0,1253.29,903.93Z" transform="translate(-1165.6 -779.83)" style="fill:#003370"/><path d="M1269.69,903.93a4.64,4.64,0,1,0-4.64-4.64A4.64,4.64,0,0,0,1269.69,903.93Z" transform="translate(-1165.6 -779.83)" style="fill:#003370"/><path d="M1286.09,903.93a4.64,4.64,0,1,0-4.64-4.64A4.64,4.64,0,0,0,1286.09,903.93Z" transform="translate(-1165.6 -779.83)" style="fill:#003370"/><path d="M1302.5,903.93a4.64,4.64,0,1,0-4.64-4.64A4.64,4.64,0,0,0,1302.5,903.93Z" transform="translate(-1165.6 -779.83)" style="fill:#003370"/><path d="M1318.9,903.93a4.64,4.64,0,1,0-4.64-4.64A4.64,4.64,0,0,0,1318.9,903.93Z" transform="translate(-1165.6 -779.83)" style="fill:#003370"/><path d="M1335.31,903.93a4.64,4.64,0,1,0-4.64-4.64A4.64,4.64,0,0,0,1335.31,903.93Z" transform="translate(-1165.6 -779.83)" style="fill:#003370"/><path d="M1351.71,903.93a4.64,4.64,0,1,0-4.64-4.64A4.64,4.64,0,0,0,1351.71,903.93Z" transform="translate(-1165.6 -779.83)" style="fill:#003370"/><path d="M1368.11,903.93a4.64,4.64,0,1,0-4.64-4.64A4.64,4.64,0,0,0,1368.11,903.93Z" transform="translate(-1165.6 -779.83)" style="fill:#003370"/><path d="M1384.52,903.93a4.64,4.64,0,1,0-4.64-4.64A4.64,4.64,0,0,0,1384.52,903.93Z" transform="translate(-1165.6 -779.83)" style="fill:#003370"/><path d="M1400.92,903.93a4.64,4.64,0,1,0-4.64-4.64A4.64,4.64,0,0,0,1400.92,903.93Z" transform="translate(-1165.6 -779.83)" style="fill:#003370"/><path d="M1417.32,903.93a4.64,4.64,0,1,0-4.64-4.64A4.64,4.64,0,0,0,1417.32,903.93Z" transform="translate(-1165.6 -779.83)" style="fill:#003370"/><path d="M1433.73,903.93a4.64,4.64,0,1,0-4.64-4.64A4.64,4.64,0,0,0,1433.73,903.93Z" transform="translate(-1165.6 -779.83)" style="fill:#003370"/><path d="M1450.13,903.93a4.64,4.64,0,1,0-4.64-4.64A4.64,4.64,0,0,0,1450.13,903.93Z" transform="translate(-1165.6 -779.83)" style="fill:#003370"/><path d="M1466.54,903.93a4.64,4.64,0,1,0-4.64-4.64A4.64,4.64,0,0,0,1466.54,903.93Z" transform="translate(-1165.6 -779.83)" style="fill:#003370"/><path d="M1482.94,903.93a4.64,4.64,0,1,0-4.64-4.64A4.64,4.64,0,0,0,1482.94,903.93Z" transform="translate(-1165.6 -779.83)" style="fill:#003370"/><path d="M1499.34,903.93a4.64,4.64,0,1,0-4.64-4.64A4.64,4.64,0,0,0,1499.34,903.93Z" transform="translate(-1165.6 -779.83)" style="fill:#003370"/><path d="M1515.75,903.93a4.64,4.64,0,1,0-4.64-4.64A4.64,4.64,0,0,0,1515.75,903.93Z" transform="translate(-1165.6 -779.83)" style="fill:#003370"/><path d="M1532.15,903.93a4.64,4.64,0,1,0-4.64-4.64A4.64,4.64,0,0,0,1532.15,903.93Z" transform="translate(-1165.6 -779.83)" style="fill:#003370"/><path d="M1548.56,903.93a4.64,4.64,0,1,0-4.64-4.64A4.64,4.64,0,0,0,1548.56,903.93Z" transform="translate(-1165.6 -779.83)" style="fill:#003370"/><path d="M1565,903.48a4.18,4.18,0,1,0-4.19-4.18A4.19,4.19,0,0,0,1565,903.48Z" transform="translate(-1165.6 -779.83)" style="fill:#003370"/><path d="M1204.07,919.34a3.64,3.64,0,1,0-3.64-3.64A3.64,3.64,0,0,0,1204.07,919.34Z" transform="translate(-1165.6 -779.83)" style="fill:#003370"/><circle cx="54.88" cy="135.87" r="4.64" style="fill:#003370"/><circle cx="71.29" cy="135.87" r="4.64" style="fill:#003370"/><path d="M1253.29,920.34a4.64,4.64,0,1,0-4.64-4.64A4.64,4.64,0,0,0,1253.29,920.34Z" transform="translate(-1165.6 -779.83)" style="fill:#003370"/><circle cx="104.09" cy="135.87" r="4.64" style="fill:#003370"/><circle cx="120.5" cy="135.87" r="4.64" style="fill:#003370"/><path d="M1302.5,920.34a4.64,4.64,0,1,0-4.64-4.64A4.64,4.64,0,0,0,1302.5,920.34Z" transform="translate(-1165.6 -779.83)" style="fill:#003370"/><path d="M1318.9,920.34a4.64,4.64,0,1,0-4.64-4.64A4.64,4.64,0,0,0,1318.9,920.34Z" transform="translate(-1165.6 -779.83)" style="fill:#003370"/><circle cx="169.71" cy="135.87" r="4.64" style="fill:#003370"/><path d="M1351.71,920.34a4.64,4.64,0,1,0-4.64-4.64A4.64,4.64,0,0,0,1351.71,920.34Z" transform="translate(-1165.6 -779.83)" style="fill:#003370"/><path d="M1368.11,920.34a4.64,4.64,0,1,0-4.64-4.64A4.64,4.64,0,0,0,1368.11,920.34Z" transform="translate(-1165.6 -779.83)" style="fill:#003370"/><path d="M1384.52,920.34a4.64,4.64,0,1,0-4.64-4.64A4.64,4.64,0,0,0,1384.52,920.34Z" transform="translate(-1165.6 -779.83)" style="fill:#003370"/><path d="M1400.92,920.34a4.64,4.64,0,1,0-4.64-4.64A4.64,4.64,0,0,0,1400.92,920.34Z" transform="translate(-1165.6 -779.83)" style="fill:#003370"/><path d="M1417.32,920.34a4.64,4.64,0,1,0-4.64-4.64A4.64,4.64,0,0,0,1417.32,920.34Z" transform="translate(-1165.6 -779.83)" style="fill:#003370"/><path d="M1433.73,920.34a4.64,4.64,0,1,0-4.64-4.64A4.64,4.64,0,0,0,1433.73,920.34Z" transform="translate(-1165.6 -779.83)" style="fill:#003370"/><path d="M1450.13,920.34a4.64,4.64,0,1,0-4.64-4.64A4.64,4.64,0,0,0,1450.13,920.34Z" transform="translate(-1165.6 -779.83)" style="fill:#003370"/><path d="M1466.54,920.34a4.64,4.64,0,1,0-4.64-4.64A4.64,4.64,0,0,0,1466.54,920.34Z" transform="translate(-1165.6 -779.83)" style="fill:#003370"/><path d="M1482.94,920.34a4.64,4.64,0,1,0-4.64-4.64A4.64,4.64,0,0,0,1482.94,920.34Z" transform="translate(-1165.6 -779.83)" style="fill:#003370"/><path d="M1499.34,920.34a4.64,4.64,0,1,0-4.64-4.64A4.64,4.64,0,0,0,1499.34,920.34Z" transform="translate(-1165.6 -779.83)" style="fill:#003370"/><circle cx="350.15" cy="135.87" r="4.64" style="fill:#003370"/><path d="M1532.15,920.34a4.64,4.64,0,1,0-4.64-4.64A4.64,4.64,0,0,0,1532.15,920.34Z" transform="translate(-1165.6 -779.83)" style="fill:#003370"/><path d="M1548.56,920.34a4.64,4.64,0,1,0-4.64-4.64A4.64,4.64,0,0,0,1548.56,920.34Z" transform="translate(-1165.6 -779.83)" style="fill:#003370"/><circle cx="399.36" cy="135.87" r="4.64" style="fill:#003370"/><circle cx="38.48" cy="152.27" r="2.73" style="fill:#003370"/><circle cx="54.88" cy="152.27" r="4.64" style="fill:#003370"/><circle cx="71.29" cy="152.27" r="4.64" style="fill:#003370"/><path d="M1253.29,936.74a4.64,4.64,0,1,0-4.64-4.64A4.64,4.64,0,0,0,1253.29,936.74Z" transform="translate(-1165.6 -779.83)" style="fill:#003370"/><circle cx="104.09" cy="152.27" r="4.64" style="fill:#003370"/><circle cx="120.5" cy="152.27" r="4.64" style="fill:#003370"/><path d="M1302.5,936.74a4.64,4.64,0,1,0-4.64-4.64A4.64,4.64,0,0,0,1302.5,936.74Z" transform="translate(-1165.6 -779.83)" style="fill:#003370"/><path d="M1318.9,936.74a4.64,4.64,0,1,0-4.64-4.64A4.64,4.64,0,0,0,1318.9,936.74Z" transform="translate(-1165.6 -779.83)" style="fill:#003370"/><circle cx="169.71" cy="152.27" r="4.64" style="fill:#003370"/><path d="M1351.71,936.74a4.64,4.64,0,1,0-4.64-4.64A4.64,4.64,0,0,0,1351.71,936.74Z" transform="translate(-1165.6 -779.83)" style="fill:#003370"/><path d="M1368.11,936.74a4.64,4.64,0,1,0-4.64-4.64A4.64,4.64,0,0,0,1368.11,936.74Z" transform="translate(-1165.6 -779.83)" style="fill:#003370"/><path d="M1384.52,936.74a4.64,4.64,0,1,0-4.64-4.64A4.64,4.64,0,0,0,1384.52,936.74Z" transform="translate(-1165.6 -779.83)" style="fill:#003370"/><path d="M1400.92,936.74a4.64,4.64,0,1,0-4.64-4.64A4.64,4.64,0,0,0,1400.92,936.74Z" transform="translate(-1165.6 -779.83)" style="fill:#003370"/><path d="M1417.32,936.74a4.64,4.64,0,1,0-4.64-4.64A4.64,4.64,0,0,0,1417.32,936.74Z" transform="translate(-1165.6 -779.83)" style="fill:#003370"/><path d="M1433.73,936.74a4.64,4.64,0,1,0-4.64-4.64A4.64,4.64,0,0,0,1433.73,936.74Z" transform="translate(-1165.6 -779.83)" style="fill:#003370"/><path d="M1450.13,936.74a4.64,4.64,0,1,0-4.64-4.64A4.64,4.64,0,0,0,1450.13,936.74Z" transform="translate(-1165.6 -779.83)" style="fill:#003370"/><path d="M1466.54,936.74a4.64,4.64,0,1,0-4.64-4.64A4.64,4.64,0,0,0,1466.54,936.74Z" transform="translate(-1165.6 -779.83)" style="fill:#003370"/><path d="M1482.94,936.74a4.64,4.64,0,1,0-4.64-4.64A4.64,4.64,0,0,0,1482.94,936.74Z" transform="translate(-1165.6 -779.83)" style="fill:#003370"/><path d="M1499.34,936.74a4.64,4.64,0,1,0-4.64-4.64A4.64,4.64,0,0,0,1499.34,936.74Z" transform="translate(-1165.6 -779.83)" style="fill:#003370"/><circle cx="350.15" cy="152.27" r="4.64" style="fill:#003370"/><path d="M1532.15,936.74a4.64,4.64,0,1,0-4.64-4.64A4.64,4.64,0,0,0,1532.15,936.74Z" transform="translate(-1165.6 -779.83)" style="fill:#003370"/><path d="M1548.56,936.74a4.64,4.64,0,1,0-4.64-4.64A4.64,4.64,0,0,0,1548.56,936.74Z" transform="translate(-1165.6 -779.83)" style="fill:#003370"/><circle cx="399.36" cy="152.27" r="4.64" style="fill:#003370"/><path d="M1581.36,935.78a3.68,3.68,0,1,0-3.68-3.68A3.68,3.68,0,0,0,1581.36,935.78Z" transform="translate(-1165.6 -779.83)" style="fill:#003370"/><path d="M1187.67,948.64a.14.14,0,1,0-.14-.14A.14.14,0,0,0,1187.67,948.64Z" transform="translate(-1165.6 -779.83)" style="fill:#003370"/><path d="M1204.07,952.64a4.14,4.14,0,1,0-4.14-4.14A4.14,4.14,0,0,0,1204.07,952.64Z" transform="translate(-1165.6 -779.83)" style="fill:#003370"/><path d="M1220.48,953.14a4.64,4.64,0,1,0-4.64-4.64A4.64,4.64,0,0,0,1220.48,953.14Z" transform="translate(-1165.6 -779.83)" style="fill:#003370"/><path d="M1236.88,953.14a4.64,4.64,0,1,0-4.64-4.64A4.64,4.64,0,0,0,1236.88,953.14Z" transform="translate(-1165.6 -779.83)" style="fill:#003370"/><path d="M1253.29,953.14a4.64,4.64,0,1,0-4.64-4.64A4.64,4.64,0,0,0,1253.29,953.14Z" transform="translate(-1165.6 -779.83)" style="fill:#003370"/><path d="M1269.69,953.14a4.64,4.64,0,1,0-4.64-4.64A4.64,4.64,0,0,0,1269.69,953.14Z" transform="translate(-1165.6 -779.83)" style="fill:#003370"/><path d="M1286.09,953.14a4.64,4.64,0,1,0-4.64-4.64A4.64,4.64,0,0,0,1286.09,953.14Z" transform="translate(-1165.6 -779.83)" style="fill:#003370"/><path d="M1302.5,953.14a4.64,4.64,0,1,0-4.64-4.64A4.64,4.64,0,0,0,1302.5,953.14Z" transform="translate(-1165.6 -779.83)" style="fill:#003370"/><path d="M1318.9,953.14a4.64,4.64,0,1,0-4.64-4.64A4.64,4.64,0,0,0,1318.9,953.14Z" transform="translate(-1165.6 -779.83)" style="fill:#003370"/><path d="M1335.31,953.14a4.64,4.64,0,1,0-4.64-4.64A4.64,4.64,0,0,0,1335.31,953.14Z" transform="translate(-1165.6 -779.83)" style="fill:#003370"/><path d="M1351.71,953.14a4.64,4.64,0,1,0-4.64-4.64A4.64,4.64,0,0,0,1351.71,953.14Z" transform="translate(-1165.6 -779.83)" style="fill:#003370"/><path d="M1368.11,953.14a4.64,4.64,0,1,0-4.64-4.64A4.64,4.64,0,0,0,1368.11,953.14Z" transform="translate(-1165.6 -779.83)" style="fill:#003370"/><path d="M1384.52,953.14a4.64,4.64,0,1,0-4.64-4.64A4.64,4.64,0,0,0,1384.52,953.14Z" transform="translate(-1165.6 -779.83)" style="fill:#003370"/><path d="M1400.92,953.14a4.64,4.64,0,1,0-4.64-4.64A4.64,4.64,0,0,0,1400.92,953.14Z" transform="translate(-1165.6 -779.83)" style="fill:#003370"/><path d="M1417.32,953.14a4.64,4.64,0,1,0-4.64-4.64A4.64,4.64,0,0,0,1417.32,953.14Z" transform="translate(-1165.6 -779.83)" style="fill:#003370"/><path d="M1433.73,953.14a4.64,4.64,0,1,0-4.64-4.64A4.64,4.64,0,0,0,1433.73,953.14Z" transform="translate(-1165.6 -779.83)" style="fill:#003370"/><path d="M1450.13,953.14a4.64,4.64,0,1,0-4.64-4.64A4.64,4.64,0,0,0,1450.13,953.14Z" transform="translate(-1165.6 -779.83)" style="fill:#003370"/><path d="M1466.54,953.14a4.64,4.64,0,1,0-4.64-4.64A4.64,4.64,0,0,0,1466.54,953.14Z" transform="translate(-1165.6 -779.83)" style="fill:#003370"/><path d="M1482.94,953.14a4.64,4.64,0,1,0-4.64-4.64A4.64,4.64,0,0,0,1482.94,953.14Z" transform="translate(-1165.6 -779.83)" style="fill:#003370"/><path d="M1499.34,953.14a4.64,4.64,0,1,0-4.64-4.64A4.64,4.64,0,0,0,1499.34,953.14Z" transform="translate(-1165.6 -779.83)" style="fill:#003370"/><path d="M1515.75,953.14a4.64,4.64,0,1,0-4.64-4.64A4.64,4.64,0,0,0,1515.75,953.14Z" transform="translate(-1165.6 -779.83)" style="fill:#003370"/><path d="M1532.15,953.14a4.64,4.64,0,1,0-4.64-4.64A4.64,4.64,0,0,0,1532.15,953.14Z" transform="translate(-1165.6 -779.83)" style="fill:#003370"/><path d="M1548.56,953.14a4.64,4.64,0,1,0-4.64-4.64A4.64,4.64,0,0,0,1548.56,953.14Z" transform="translate(-1165.6 -779.83)" style="fill:#003370"/><path d="M1565,953.14a4.64,4.64,0,1,0-4.64-4.64A4.64,4.64,0,0,0,1565,953.14Z" transform="translate(-1165.6 -779.83)" style="fill:#003370"/><path d="M1581.36,953.14a4.64,4.64,0,1,0-4.64-4.64A4.64,4.64,0,0,0,1581.36,953.14Z" transform="translate(-1165.6 -779.83)" style="fill:#003370"/><path d="M1597.77,950.55a2,2,0,1,0-2-2A2,2,0,0,0,1597.77,950.55Z" transform="translate(-1165.6 -779.83)" style="fill:#003370"/><path d="M1204.07,968a3,3,0,1,0-3-3A3,3,0,0,0,1204.07,968Z" transform="translate(-1165.6 -779.83)" style="fill:#003370"/><circle cx="54.88" cy="185.08" r="4.64" style="fill:#003370"/><circle cx="71.29" cy="185.08" r="4.64" style="fill:#003370"/><path d="M1253.29,969.55a4.64,4.64,0,1,0-4.64-4.64A4.64,4.64,0,0,0,1253.29,969.55Z" transform="translate(-1165.6 -779.83)" style="fill:#003370"/><circle cx="104.09" cy="185.08" r="4.64" style="fill:#003370"/><circle cx="120.5" cy="185.08" r="4.64" style="fill:#003370"/><path d="M1302.5,969.55a4.64,4.64,0,1,0-4.64-4.64A4.64,4.64,0,0,0,1302.5,969.55Z" transform="translate(-1165.6 -779.83)" style="fill:#003370"/><path d="M1318.9,969.55a4.64,4.64,0,1,0-4.64-4.64A4.64,4.64,0,0,0,1318.9,969.55Z" transform="translate(-1165.6 -779.83)" style="fill:#003370"/><circle cx="169.71" cy="185.08" r="4.64" style="fill:#003370"/><path d="M1351.71,969.55a4.64,4.64,0,1,0-4.64-4.64A4.64,4.64,0,0,0,1351.71,969.55Z" transform="translate(-1165.6 -779.83)" style="fill:#003370"/><path d="M1368.11,969.55a4.64,4.64,0,1,0-4.64-4.64A4.64,4.64,0,0,0,1368.11,969.55Z" transform="translate(-1165.6 -779.83)" style="fill:#003370"/><path d="M1384.52,969.55a4.64,4.64,0,1,0-4.64-4.64A4.64,4.64,0,0,0,1384.52,969.55Z" transform="translate(-1165.6 -779.83)" style="fill:#003370"/><path d="M1400.92,969.55a4.64,4.64,0,1,0-4.64-4.64A4.64,4.64,0,0,0,1400.92,969.55Z" transform="translate(-1165.6 -779.83)" style="fill:#003370"/><path d="M1417.32,969.55a4.64,4.64,0,1,0-4.64-4.64A4.64,4.64,0,0,0,1417.32,969.55Z" transform="translate(-1165.6 -779.83)" style="fill:#003370"/><path d="M1433.73,969.55a4.64,4.64,0,1,0-4.64-4.64A4.64,4.64,0,0,0,1433.73,969.55Z" transform="translate(-1165.6 -779.83)" style="fill:#003370"/><path d="M1450.13,969.55a4.64,4.64,0,1,0-4.64-4.64A4.64,4.64,0,0,0,1450.13,969.55Z" transform="translate(-1165.6 -779.83)" style="fill:#003370"/><path d="M1466.54,969.55a4.64,4.64,0,1,0-4.64-4.64A4.64,4.64,0,0,0,1466.54,969.55Z" transform="translate(-1165.6 -779.83)" style="fill:#003370"/><path d="M1482.94,969.55a4.64,4.64,0,1,0-4.64-4.64A4.64,4.64,0,0,0,1482.94,969.55Z" transform="translate(-1165.6 -779.83)" style="fill:#003370"/><path d="M1499.34,969.55a4.64,4.64,0,1,0-4.64-4.64A4.64,4.64,0,0,0,1499.34,969.55Z" transform="translate(-1165.6 -779.83)" style="fill:#003370"/><circle cx="350.15" cy="185.08" r="4.64" style="fill:#003370"/><path d="M1532.15,969.55a4.64,4.64,0,1,0-4.64-4.64A4.64,4.64,0,0,0,1532.15,969.55Z" transform="translate(-1165.6 -779.83)" style="fill:#003370"/><path d="M1548.56,969.55a4.64,4.64,0,1,0-4.64-4.64A4.64,4.64,0,0,0,1548.56,969.55Z" transform="translate(-1165.6 -779.83)" style="fill:#003370"/><circle cx="399.36" cy="185.08" r="4.64" style="fill:#003370"/><circle cx="415.77" cy="185.08" r="4.64" style="fill:#003370"/><path d="M1597.77,969.55a4.64,4.64,0,1,0-4.64-4.64A4.64,4.64,0,0,0,1597.77,969.55Z" transform="translate(-1165.6 -779.83)" style="fill:#003370"/><path d="M1614.17,967.77a2.87,2.87,0,1,0-2.87-2.86A2.87,2.87,0,0,0,1614.17,967.77Z" transform="translate(-1165.6 -779.83)" style="fill:#003370"/><path d="M1204.07,981.72a.41.41,0,1,0-.41-.41A.41.41,0,0,0,1204.07,981.72Z" transform="translate(-1165.6 -779.83)" style="fill:#003370"/><circle cx="54.88" cy="201.49" r="4.23" style="fill:#003370"/><circle cx="71.29" cy="201.49" r="4.64" style="fill:#003370"/><path d="M1253.29,986a4.64,4.64,0,1,0-4.64-4.64A4.64,4.64,0,0,0,1253.29,986Z" transform="translate(-1165.6 -779.83)" style="fill:#003370"/><circle cx="104.09" cy="201.49" r="4.64" style="fill:#003370"/><circle cx="120.5" cy="201.49" r="4.64" style="fill:#003370"/><path d="M1302.5,986a4.64,4.64,0,1,0-4.64-4.64A4.64,4.64,0,0,0,1302.5,986Z" transform="translate(-1165.6 -779.83)" style="fill:#003370"/><path d="M1318.9,986a4.64,4.64,0,1,0-4.64-4.64A4.64,4.64,0,0,0,1318.9,986Z" transform="translate(-1165.6 -779.83)" style="fill:#003370"/><circle cx="169.71" cy="201.49" r="4.64" style="fill:#003370"/><path d="M1351.71,986a4.64,4.64,0,1,0-4.64-4.64A4.64,4.64,0,0,0,1351.71,986Z" transform="translate(-1165.6 -779.83)" style="fill:#003370"/><path d="M1368.11,986a4.64,4.64,0,1,0-4.64-4.64A4.64,4.64,0,0,0,1368.11,986Z" transform="translate(-1165.6 -779.83)" style="fill:#003370"/><path d="M1384.52,986a4.64,4.64,0,1,0-4.64-4.64A4.64,4.64,0,0,0,1384.52,986Z" transform="translate(-1165.6 -779.83)" style="fill:#003370"/><path d="M1400.92,986a4.64,4.64,0,1,0-4.64-4.64A4.64,4.64,0,0,0,1400.92,986Z" transform="translate(-1165.6 -779.83)" style="fill:#003370"/><path d="M1417.32,986a4.64,4.64,0,1,0-4.64-4.64A4.64,4.64,0,0,0,1417.32,986Z" transform="translate(-1165.6 -779.83)" style="fill:#003370"/><path d="M1433.73,986a4.64,4.64,0,1,0-4.64-4.64A4.64,4.64,0,0,0,1433.73,986Z" transform="translate(-1165.6 -779.83)" style="fill:#003370"/><path d="M1450.13,986a4.64,4.64,0,1,0-4.64-4.64A4.64,4.64,0,0,0,1450.13,986Z" transform="translate(-1165.6 -779.83)" style="fill:#003370"/><path d="M1466.54,986a4.64,4.64,0,1,0-4.64-4.64A4.64,4.64,0,0,0,1466.54,986Z" transform="translate(-1165.6 -779.83)" style="fill:#003370"/><path d="M1482.94,986a4.64,4.64,0,1,0-4.64-4.64A4.64,4.64,0,0,0,1482.94,986Z" transform="translate(-1165.6 -779.83)" style="fill:#003370"/><path d="M1499.34,986a4.64,4.64,0,1,0-4.64-4.64A4.64,4.64,0,0,0,1499.34,986Z" transform="translate(-1165.6 -779.83)" style="fill:#003370"/><circle cx="350.15" cy="201.49" r="4.64" style="fill:#003370"/><path d="M1532.15,986a4.64,4.64,0,1,0-4.64-4.64A4.64,4.64,0,0,0,1532.15,986Z" transform="translate(-1165.6 -779.83)" style="fill:#003370"/><path d="M1548.56,986a4.64,4.64,0,1,0-4.64-4.64A4.64,4.64,0,0,0,1548.56,986Z" transform="translate(-1165.6 -779.83)" style="fill:#003370"/><circle cx="399.36" cy="201.49" r="4.64" style="fill:#003370"/><circle cx="415.77" cy="201.49" r="4.64" style="fill:#003370"/><path d="M1597.77,986a4.64,4.64,0,1,0-4.64-4.64A4.64,4.64,0,0,0,1597.77,986Z" transform="translate(-1165.6 -779.83)" style="fill:#003370"/><circle cx="448.57" cy="201.49" r="4" style="fill:#003370"/><path d="M1630.57,983a1.73,1.73,0,1,0-1.73-1.73A1.73,1.73,0,0,0,1630.57,983Z" transform="translate(-1165.6 -779.83)" style="fill:#003370"/><path d="M1647,983.9a2.59,2.59,0,1,0-2.59-2.59A2.59,2.59,0,0,0,1647,983.9Z" transform="translate(-1165.6 -779.83)" style="fill:#003370"/><path d="M1663.38,985a3.68,3.68,0,1,0-3.68-3.68A3.69,3.69,0,0,0,1663.38,985Z" transform="translate(-1165.6 -779.83)" style="fill:#003370"/><path d="M1679.79,982.36a1,1,0,1,0-1-1A1,1,0,0,0,1679.79,982.36Z" transform="translate(-1165.6 -779.83)" style="fill:#003370"/><path d="M1220.48,999.58a1.86,1.86,0,1,0-1.86-1.86A1.86,1.86,0,0,0,1220.48,999.58Z" transform="translate(-1165.6 -779.83)" style="fill:#003370"/><path d="M1236.88,1002.36a4.64,4.64,0,1,0-4.64-4.64A4.64,4.64,0,0,0,1236.88,1002.36Z" transform="translate(-1165.6 -779.83)" style="fill:#003370"/><path d="M1253.29,1002.36a4.64,4.64,0,1,0-4.64-4.64A4.64,4.64,0,0,0,1253.29,1002.36Z" transform="translate(-1165.6 -779.83)" style="fill:#003370"/><path d="M1269.69,1002.36a4.64,4.64,0,1,0-4.64-4.64A4.64,4.64,0,0,0,1269.69,1002.36Z" transform="translate(-1165.6 -779.83)" style="fill:#003370"/><path d="M1286.09,1002.36a4.64,4.64,0,1,0-4.64-4.64A4.64,4.64,0,0,0,1286.09,1002.36Z" transform="translate(-1165.6 -779.83)" style="fill:#003370"/><path d="M1302.5,1002.36a4.64,4.64,0,1,0-4.64-4.64A4.64,4.64,0,0,0,1302.5,1002.36Z" transform="translate(-1165.6 -779.83)" style="fill:#003370"/><path d="M1318.9,1002.36a4.64,4.64,0,1,0-4.64-4.64A4.64,4.64,0,0,0,1318.9,1002.36Z" transform="translate(-1165.6 -779.83)" style="fill:#003370"/><path d="M1335.31,1002.36a4.64,4.64,0,1,0-4.64-4.64A4.64,4.64,0,0,0,1335.31,1002.36Z" transform="translate(-1165.6 -779.83)" style="fill:#003370"/><path d="M1351.71,1002.36a4.64,4.64,0,1,0-4.64-4.64A4.64,4.64,0,0,0,1351.71,1002.36Z" transform="translate(-1165.6 -779.83)" style="fill:#003370"/><path d="M1368.11,1002.36a4.64,4.64,0,1,0-4.64-4.64A4.64,4.64,0,0,0,1368.11,1002.36Z" transform="translate(-1165.6 -779.83)" style="fill:#003370"/><path d="M1384.52,1002.36a4.64,4.64,0,1,0-4.64-4.64A4.64,4.64,0,0,0,1384.52,1002.36Z" transform="translate(-1165.6 -779.83)" style="fill:#003370"/><path d="M1400.92,1002.36a4.64,4.64,0,1,0-4.64-4.64A4.64,4.64,0,0,0,1400.92,1002.36Z" transform="translate(-1165.6 -779.83)" style="fill:#003370"/><path d="M1417.32,1002.36a4.64,4.64,0,1,0-4.64-4.64A4.64,4.64,0,0,0,1417.32,1002.36Z" transform="translate(-1165.6 -779.83)" style="fill:#003370"/><path d="M1433.73,1002.36a4.64,4.64,0,1,0-4.64-4.64A4.64,4.64,0,0,0,1433.73,1002.36Z" transform="translate(-1165.6 -779.83)" style="fill:#003370"/><path d="M1450.13,1002.36a4.64,4.64,0,1,0-4.64-4.64A4.64,4.64,0,0,0,1450.13,1002.36Z" transform="translate(-1165.6 -779.83)" style="fill:#003370"/><path d="M1466.54,1002.36a4.64,4.64,0,1,0-4.64-4.64A4.64,4.64,0,0,0,1466.54,1002.36Z" transform="translate(-1165.6 -779.83)" style="fill:#003370"/><path d="M1482.94,1002.36a4.64,4.64,0,1,0-4.64-4.64A4.64,4.64,0,0,0,1482.94,1002.36Z" transform="translate(-1165.6 -779.83)" style="fill:#003370"/><path d="M1499.34,1002.36a4.64,4.64,0,1,0-4.64-4.64A4.64,4.64,0,0,0,1499.34,1002.36Z" transform="translate(-1165.6 -779.83)" style="fill:#003370"/><path d="M1515.75,1002.36a4.64,4.64,0,1,0-4.64-4.64A4.64,4.64,0,0,0,1515.75,1002.36Z" transform="translate(-1165.6 -779.83)" style="fill:#003370"/><path d="M1532.15,1002.36a4.64,4.64,0,1,0-4.64-4.64A4.64,4.64,0,0,0,1532.15,1002.36Z" transform="translate(-1165.6 -779.83)" style="fill:#003370"/><path d="M1548.56,1002.36a4.64,4.64,0,1,0-4.64-4.64A4.64,4.64,0,0,0,1548.56,1002.36Z" transform="translate(-1165.6 -779.83)" style="fill:#003370"/><path d="M1565,1002.36a4.64,4.64,0,1,0-4.64-4.64A4.64,4.64,0,0,0,1565,1002.36Z" transform="translate(-1165.6 -779.83)" style="fill:#003370"/><path d="M1581.36,1002.36a4.64,4.64,0,1,0-4.64-4.64A4.64,4.64,0,0,0,1581.36,1002.36Z" transform="translate(-1165.6 -779.83)" style="fill:#003370"/><path d="M1597.77,1002.36a4.64,4.64,0,1,0-4.64-4.64A4.64,4.64,0,0,0,1597.77,1002.36Z" transform="translate(-1165.6 -779.83)" style="fill:#003370"/><path d="M1614.17,1002.36a4.64,4.64,0,1,0-4.64-4.64A4.64,4.64,0,0,0,1614.17,1002.36Z" transform="translate(-1165.6 -779.83)" style="fill:#003370"/><path d="M1630.57,1002.36a4.64,4.64,0,1,0-4.64-4.64A4.64,4.64,0,0,0,1630.57,1002.36Z" transform="translate(-1165.6 -779.83)" style="fill:#003370"/><path d="M1647,1002.36a4.64,4.64,0,1,0-4.64-4.64A4.64,4.64,0,0,0,1647,1002.36Z" transform="translate(-1165.6 -779.83)" style="fill:#003370"/><path d="M1663.38,1001.63a3.91,3.91,0,1,0-3.91-3.91A3.91,3.91,0,0,0,1663.38,1001.63Z" transform="translate(-1165.6 -779.83)" style="fill:#003370"/><path d="M1679.79,997.76a0,0,0,0,0,0-.09,0,0,0,0,0,0,.09Z" transform="translate(-1165.6 -779.83)" style="fill:#003370"/><path d="M1220.48,1014.16a0,0,0,0,0,0,0,0,0,0,0,0-.09,0A0,0,0,0,0,1220.48,1014.16Z" transform="translate(-1165.6 -779.83)" style="fill:#003370"/><path d="M1236.88,1016.39a2.27,2.27,0,1,0-2.27-2.27A2.27,2.27,0,0,0,1236.88,1016.39Z" transform="translate(-1165.6 -779.83)" style="fill:#003370"/><path d="M1253.29,1018.67a4.55,4.55,0,1,0-4.55-4.55A4.55,4.55,0,0,0,1253.29,1018.67Z" transform="translate(-1165.6 -779.83)" style="fill:#003370"/><path d="M1269.69,1018.76a4.64,4.64,0,1,0-4.64-4.64A4.64,4.64,0,0,0,1269.69,1018.76Z" transform="translate(-1165.6 -779.83)" style="fill:#003370"/><path d="M1286.09,1018.76a4.64,4.64,0,1,0-4.64-4.64A4.64,4.64,0,0,0,1286.09,1018.76Z" transform="translate(-1165.6 -779.83)" style="fill:#003370"/><path d="M1302.5,1018.76a4.64,4.64,0,1,0-4.64-4.64A4.64,4.64,0,0,0,1302.5,1018.76Z" transform="translate(-1165.6 -779.83)" style="fill:#003370"/><path d="M1318.9,1017.85a3.73,3.73,0,1,0-3.73-3.73A3.73,3.73,0,0,0,1318.9,1017.85Z" transform="translate(-1165.6 -779.83)" style="fill:#003370"/><path d="M1335.31,1016.85a2.73,2.73,0,1,0-2.73-2.73A2.73,2.73,0,0,0,1335.31,1016.85Z" transform="translate(-1165.6 -779.83)" style="fill:#003370"/><path d="M1351.71,1018.08a4,4,0,1,0-4-4A4,4,0,0,0,1351.71,1018.08Z" transform="translate(-1165.6 -779.83)" style="fill:#003370"/><path d="M1368.11,1018.76a4.64,4.64,0,1,0-4.64-4.64A4.64,4.64,0,0,0,1368.11,1018.76Z" transform="translate(-1165.6 -779.83)" style="fill:#003370"/><path d="M1384.52,1018.76a4.64,4.64,0,1,0-4.64-4.64A4.64,4.64,0,0,0,1384.52,1018.76Z" transform="translate(-1165.6 -779.83)" style="fill:#003370"/><path d="M1400.92,1018.76a4.64,4.64,0,1,0-4.64-4.64A4.64,4.64,0,0,0,1400.92,1018.76Z" transform="translate(-1165.6 -779.83)" style="fill:#003370"/><path d="M1417.32,1018.76a4.64,4.64,0,1,0-4.64-4.64A4.64,4.64,0,0,0,1417.32,1018.76Z" transform="translate(-1165.6 -779.83)" style="fill:#003370"/><path d="M1433.73,1018.76a4.64,4.64,0,1,0-4.64-4.64A4.64,4.64,0,0,0,1433.73,1018.76Z" transform="translate(-1165.6 -779.83)" style="fill:#003370"/><path d="M1450.13,1018.76a4.64,4.64,0,1,0-4.64-4.64A4.64,4.64,0,0,0,1450.13,1018.76Z" transform="translate(-1165.6 -779.83)" style="fill:#003370"/><path d="M1466.54,1018.76a4.64,4.64,0,1,0-4.64-4.64A4.64,4.64,0,0,0,1466.54,1018.76Z" transform="translate(-1165.6 -779.83)" style="fill:#003370"/><path d="M1482.94,1018.76a4.64,4.64,0,1,0-4.64-4.64A4.64,4.64,0,0,0,1482.94,1018.76Z" transform="translate(-1165.6 -779.83)" style="fill:#003370"/><path d="M1499.34,1018.76a4.64,4.64,0,1,0-4.64-4.64A4.64,4.64,0,0,0,1499.34,1018.76Z" transform="translate(-1165.6 -779.83)" style="fill:#003370"/><path d="M1515.75,1018.76a4.64,4.64,0,1,0-4.64-4.64A4.64,4.64,0,0,0,1515.75,1018.76Z" transform="translate(-1165.6 -779.83)" style="fill:#003370"/><path d="M1532.15,1018.76a4.64,4.64,0,1,0-4.64-4.64A4.64,4.64,0,0,0,1532.15,1018.76Z" transform="translate(-1165.6 -779.83)" style="fill:#003370"/><path d="M1548.56,1018.76a4.64,4.64,0,1,0-4.64-4.64A4.64,4.64,0,0,0,1548.56,1018.76Z" transform="translate(-1165.6 -779.83)" style="fill:#003370"/><path d="M1565,1018.76a4.64,4.64,0,1,0-4.64-4.64A4.64,4.64,0,0,0,1565,1018.76Z" transform="translate(-1165.6 -779.83)" style="fill:#003370"/><path d="M1581.36,1018.76a4.64,4.64,0,1,0-4.64-4.64A4.64,4.64,0,0,0,1581.36,1018.76Z" transform="translate(-1165.6 -779.83)" style="fill:#003370"/><path d="M1597.77,1018.76a4.64,4.64,0,1,0-4.64-4.64A4.64,4.64,0,0,0,1597.77,1018.76Z" transform="translate(-1165.6 -779.83)" style="fill:#003370"/><path d="M1614.17,1018.76a4.64,4.64,0,1,0-4.64-4.64A4.64,4.64,0,0,0,1614.17,1018.76Z" transform="translate(-1165.6 -779.83)" style="fill:#003370"/><path d="M1630.57,1018.76a4.64,4.64,0,1,0-4.64-4.64A4.64,4.64,0,0,0,1630.57,1018.76Z" transform="translate(-1165.6 -779.83)" style="fill:#003370"/><path d="M1647,1018.76a4.64,4.64,0,1,0-4.64-4.64A4.64,4.64,0,0,0,1647,1018.76Z" transform="translate(-1165.6 -779.83)" style="fill:#003370"/><path d="M1663.38,1015.53a1.41,1.41,0,1,0-1.41-1.41A1.41,1.41,0,0,0,1663.38,1015.53Z" transform="translate(-1165.6 -779.83)" style="fill:#003370"/><path d="M1253.29,1031.3a.77.77,0,1,0-.77-.77A.77.77,0,0,0,1253.29,1031.3Z" transform="translate(-1165.6 -779.83)" style="fill:#003370"/><path d="M1269.69,1032.21a1.68,1.68,0,1,0-1.68-1.68A1.68,1.68,0,0,0,1269.69,1032.21Z" transform="translate(-1165.6 -779.83)" style="fill:#003370"/><path d="M1286.09,1031.11a.59.59,0,1,0-.59-.59A.59.59,0,0,0,1286.09,1031.11Z" transform="translate(-1165.6 -779.83)" style="fill:#003370"/><path d="M1302.5,1031.39a.86.86,0,1,0-.86-.86A.86.86,0,0,0,1302.5,1031.39Z" transform="translate(-1165.6 -779.83)" style="fill:#003370"/><path d="M1351.71,1031.11a.59.59,0,1,0-.59-.59A.59.59,0,0,0,1351.71,1031.11Z" transform="translate(-1165.6 -779.83)" style="fill:#003370"/><path d="M1368.11,1032.43a1.91,1.91,0,1,0-1.91-1.91A1.91,1.91,0,0,0,1368.11,1032.43Z" transform="translate(-1165.6 -779.83)" style="fill:#003370"/><path d="M1384.52,1034.53a4,4,0,1,0-4-4A4,4,0,0,0,1384.52,1034.53Z" transform="translate(-1165.6 -779.83)" style="fill:#003370"/><path d="M1400.92,1035.16a4.64,4.64,0,1,0-4.64-4.64A4.64,4.64,0,0,0,1400.92,1035.16Z" transform="translate(-1165.6 -779.83)" style="fill:#003370"/><path d="M1417.32,1035.16a4.64,4.64,0,1,0-4.64-4.64A4.64,4.64,0,0,0,1417.32,1035.16Z" transform="translate(-1165.6 -779.83)" style="fill:#003370"/><path d="M1433.73,1035.16a4.64,4.64,0,1,0-4.64-4.64A4.64,4.64,0,0,0,1433.73,1035.16Z" transform="translate(-1165.6 -779.83)" style="fill:#003370"/><path d="M1450.13,1035.16a4.64,4.64,0,1,0-4.64-4.64A4.64,4.64,0,0,0,1450.13,1035.16Z" transform="translate(-1165.6 -779.83)" style="fill:#003370"/><path d="M1466.54,1035.16a4.64,4.64,0,1,0-4.64-4.64A4.64,4.64,0,0,0,1466.54,1035.16Z" transform="translate(-1165.6 -779.83)" style="fill:#003370"/><path d="M1482.94,1035.16a4.64,4.64,0,1,0-4.64-4.64A4.64,4.64,0,0,0,1482.94,1035.16Z" transform="translate(-1165.6 -779.83)" style="fill:#003370"/><path d="M1499.34,1035.16a4.64,4.64,0,1,0-4.64-4.64A4.64,4.64,0,0,0,1499.34,1035.16Z" transform="translate(-1165.6 -779.83)" style="fill:#003370"/><path d="M1515.75,1035.16a4.64,4.64,0,1,0-4.64-4.64A4.64,4.64,0,0,0,1515.75,1035.16Z" transform="translate(-1165.6 -779.83)" style="fill:#003370"/><path d="M1532.15,1035.16a4.64,4.64,0,1,0-4.64-4.64A4.64,4.64,0,0,0,1532.15,1035.16Z" transform="translate(-1165.6 -779.83)" style="fill:#003370"/><path d="M1548.56,1035.16a4.64,4.64,0,1,0-4.64-4.64A4.64,4.64,0,0,0,1548.56,1035.16Z" transform="translate(-1165.6 -779.83)" style="fill:#003370"/><path d="M1565,1035.16a4.64,4.64,0,1,0-4.64-4.64A4.64,4.64,0,0,0,1565,1035.16Z" transform="translate(-1165.6 -779.83)" style="fill:#003370"/><path d="M1581.36,1035.16a4.64,4.64,0,1,0-4.64-4.64A4.64,4.64,0,0,0,1581.36,1035.16Z" transform="translate(-1165.6 -779.83)" style="fill:#003370"/><path d="M1597.77,1035.16a4.64,4.64,0,1,0-4.64-4.64A4.64,4.64,0,0,0,1597.77,1035.16Z" transform="translate(-1165.6 -779.83)" style="fill:#003370"/><path d="M1614.17,1035.16a4.64,4.64,0,1,0-4.64-4.64A4.64,4.64,0,0,0,1614.17,1035.16Z" transform="translate(-1165.6 -779.83)" style="fill:#003370"/><path d="M1630.57,1035.16a4.64,4.64,0,1,0-4.64-4.64A4.64,4.64,0,0,0,1630.57,1035.16Z" transform="translate(-1165.6 -779.83)" style="fill:#003370"/><path d="M1647,1033.71a3.18,3.18,0,1,0-3.18-3.18A3.18,3.18,0,0,0,1647,1033.71Z" transform="translate(-1165.6 -779.83)" style="fill:#003370"/><path d="M1384.52,1049.88a3,3,0,1,0-3-3A3,3,0,0,0,1384.52,1049.88Z" transform="translate(-1165.6 -779.83)" style="fill:#003370"/><path d="M1400.92,1051.57a4.64,4.64,0,1,0-4.64-4.64A4.64,4.64,0,0,0,1400.92,1051.57Z" transform="translate(-1165.6 -779.83)" style="fill:#003370"/><path d="M1417.32,1051.57a4.64,4.64,0,1,0-4.64-4.64A4.64,4.64,0,0,0,1417.32,1051.57Z" transform="translate(-1165.6 -779.83)" style="fill:#003370"/><path d="M1433.73,1051.57a4.64,4.64,0,1,0-4.64-4.64A4.64,4.64,0,0,0,1433.73,1051.57Z" transform="translate(-1165.6 -779.83)" style="fill:#003370"/><path d="M1450.13,1051.57a4.64,4.64,0,1,0-4.64-4.64A4.64,4.64,0,0,0,1450.13,1051.57Z" transform="translate(-1165.6 -779.83)" style="fill:#003370"/><path d="M1466.54,1051.57a4.64,4.64,0,1,0-4.64-4.64A4.64,4.64,0,0,0,1466.54,1051.57Z" transform="translate(-1165.6 -779.83)" style="fill:#003370"/><path d="M1482.94,1051.57a4.64,4.64,0,1,0-4.64-4.64A4.64,4.64,0,0,0,1482.94,1051.57Z" transform="translate(-1165.6 -779.83)" style="fill:#003370"/><path d="M1499.34,1051.57a4.64,4.64,0,1,0-4.64-4.64A4.64,4.64,0,0,0,1499.34,1051.57Z" transform="translate(-1165.6 -779.83)" style="fill:#003370"/><path d="M1515.75,1051.57a4.64,4.64,0,1,0-4.64-4.64A4.64,4.64,0,0,0,1515.75,1051.57Z" transform="translate(-1165.6 -779.83)" style="fill:#003370"/><path d="M1532.15,1051.57a4.64,4.64,0,1,0-4.64-4.64A4.64,4.64,0,0,0,1532.15,1051.57Z" transform="translate(-1165.6 -779.83)" style="fill:#003370"/><path d="M1548.56,1051.57a4.64,4.64,0,1,0-4.64-4.64A4.64,4.64,0,0,0,1548.56,1051.57Z" transform="translate(-1165.6 -779.83)" style="fill:#003370"/><path d="M1565,1051.57a4.64,4.64,0,1,0-4.64-4.64A4.64,4.64,0,0,0,1565,1051.57Z" transform="translate(-1165.6 -779.83)" style="fill:#003370"/><path d="M1581.36,1051.57a4.64,4.64,0,1,0-4.64-4.64A4.64,4.64,0,0,0,1581.36,1051.57Z" transform="translate(-1165.6 -779.83)" style="fill:#003370"/><path d="M1597.77,1051.57a4.64,4.64,0,1,0-4.64-4.64A4.64,4.64,0,0,0,1597.77,1051.57Z" transform="translate(-1165.6 -779.83)" style="fill:#003370"/><path d="M1614.17,1051.57a4.64,4.64,0,1,0-4.64-4.64A4.64,4.64,0,0,0,1614.17,1051.57Z" transform="translate(-1165.6 -779.83)" style="fill:#003370"/><path d="M1630.57,1050.25a3.32,3.32,0,1,0-3.32-3.32A3.32,3.32,0,0,0,1630.57,1050.25Z" transform="translate(-1165.6 -779.83)" style="fill:#003370"/><circle cx="481.38" cy="267.1" r="0.32" style="fill:#003370"/><path d="M1384.52,1066.88a3.55,3.55,0,1,0-3.55-3.55A3.55,3.55,0,0,0,1384.52,1066.88Z" transform="translate(-1165.6 -779.83)" style="fill:#003370"/><path d="M1400.92,1068a4.64,4.64,0,1,0-4.64-4.64A4.64,4.64,0,0,0,1400.92,1068Z" transform="translate(-1165.6 -779.83)" style="fill:#003370"/><path d="M1417.32,1068a4.64,4.64,0,1,0-4.64-4.64A4.64,4.64,0,0,0,1417.32,1068Z" transform="translate(-1165.6 -779.83)" style="fill:#003370"/><path d="M1433.73,1068a4.64,4.64,0,1,0-4.64-4.64A4.64,4.64,0,0,0,1433.73,1068Z" transform="translate(-1165.6 -779.83)" style="fill:#003370"/><path d="M1450.13,1068a4.64,4.64,0,1,0-4.64-4.64A4.64,4.64,0,0,0,1450.13,1068Z" transform="translate(-1165.6 -779.83)" style="fill:#003370"/><path d="M1466.54,1068a4.64,4.64,0,1,0-4.64-4.64A4.64,4.64,0,0,0,1466.54,1068Z" transform="translate(-1165.6 -779.83)" style="fill:#003370"/><path d="M1482.94,1068a4.64,4.64,0,1,0-4.64-4.64A4.64,4.64,0,0,0,1482.94,1068Z" transform="translate(-1165.6 -779.83)" style="fill:#003370"/><path d="M1499.34,1068a4.64,4.64,0,1,0-4.64-4.64A4.64,4.64,0,0,0,1499.34,1068Z" transform="translate(-1165.6 -779.83)" style="fill:#003370"/><path d="M1515.75,1068a4.64,4.64,0,1,0-4.64-4.64A4.64,4.64,0,0,0,1515.75,1068Z" transform="translate(-1165.6 -779.83)" style="fill:#003370"/><path d="M1532.15,1068a4.64,4.64,0,1,0-4.64-4.64A4.64,4.64,0,0,0,1532.15,1068Z" transform="translate(-1165.6 -779.83)" style="fill:#003370"/><path d="M1548.56,1068a4.64,4.64,0,1,0-4.64-4.64A4.64,4.64,0,0,0,1548.56,1068Z" transform="translate(-1165.6 -779.83)" style="fill:#003370"/><path d="M1565,1068a4.64,4.64,0,1,0-4.64-4.64A4.64,4.64,0,0,0,1565,1068Z" transform="translate(-1165.6 -779.83)" style="fill:#003370"/><path d="M1581.36,1068a4.64,4.64,0,1,0-4.64-4.64A4.64,4.64,0,0,0,1581.36,1068Z" transform="translate(-1165.6 -779.83)" style="fill:#003370"/><path d="M1597.77,1068a4.64,4.64,0,1,0-4.64-4.64A4.64,4.64,0,0,0,1597.77,1068Z" transform="translate(-1165.6 -779.83)" style="fill:#003370"/><path d="M1614.17,1066.83a3.5,3.5,0,1,0-3.5-3.5A3.5,3.5,0,0,0,1614.17,1066.83Z" transform="translate(-1165.6 -779.83)" style="fill:#003370"/><path d="M1630.57,1063.42a.09.09,0,1,0-.09-.09A.09.09,0,0,0,1630.57,1063.42Z" transform="translate(-1165.6 -779.83)" style="fill:#003370"/><path d="M1384.52,1082a2.23,2.23,0,1,0-2.23-2.23A2.23,2.23,0,0,0,1384.52,1082Z" transform="translate(-1165.6 -779.83)" style="fill:#003370"/><path d="M1400.92,1084.38a4.64,4.64,0,1,0-4.64-4.64A4.64,4.64,0,0,0,1400.92,1084.38Z" transform="translate(-1165.6 -779.83)" style="fill:#003370"/><path d="M1417.32,1084.38a4.64,4.64,0,1,0-4.64-4.64A4.64,4.64,0,0,0,1417.32,1084.38Z" transform="translate(-1165.6 -779.83)" style="fill:#003370"/><path d="M1433.73,1084.38a4.64,4.64,0,1,0-4.64-4.64A4.64,4.64,0,0,0,1433.73,1084.38Z" transform="translate(-1165.6 -779.83)" style="fill:#003370"/><path d="M1450.13,1084.38a4.64,4.64,0,1,0-4.64-4.64A4.64,4.64,0,0,0,1450.13,1084.38Z" transform="translate(-1165.6 -779.83)" style="fill:#003370"/><path d="M1466.54,1084.38a4.64,4.64,0,1,0-4.64-4.64A4.64,4.64,0,0,0,1466.54,1084.38Z" transform="translate(-1165.6 -779.83)" style="fill:#003370"/><path d="M1482.94,1084.38a4.64,4.64,0,1,0-4.64-4.64A4.64,4.64,0,0,0,1482.94,1084.38Z" transform="translate(-1165.6 -779.83)" style="fill:#003370"/><path d="M1499.34,1084.38a4.64,4.64,0,1,0-4.64-4.64A4.64,4.64,0,0,0,1499.34,1084.38Z" transform="translate(-1165.6 -779.83)" style="fill:#003370"/><path d="M1515.75,1084.38a4.64,4.64,0,1,0-4.64-4.64A4.64,4.64,0,0,0,1515.75,1084.38Z" transform="translate(-1165.6 -779.83)" style="fill:#003370"/><path d="M1532.15,1084.38a4.64,4.64,0,1,0-4.64-4.64A4.64,4.64,0,0,0,1532.15,1084.38Z" transform="translate(-1165.6 -779.83)" style="fill:#003370"/><path d="M1548.56,1084.38a4.64,4.64,0,1,0-4.64-4.64A4.64,4.64,0,0,0,1548.56,1084.38Z" transform="translate(-1165.6 -779.83)" style="fill:#003370"/><path d="M1565,1084.38a4.64,4.64,0,1,0-4.64-4.64A4.64,4.64,0,0,0,1565,1084.38Z" transform="translate(-1165.6 -779.83)" style="fill:#003370"/><path d="M1581.36,1084.38a4.64,4.64,0,1,0-4.64-4.64A4.64,4.64,0,0,0,1581.36,1084.38Z" transform="translate(-1165.6 -779.83)" style="fill:#003370"/><path d="M1597.77,1083.92a4.19,4.19,0,1,0-4.19-4.19A4.18,4.18,0,0,0,1597.77,1083.92Z" transform="translate(-1165.6 -779.83)" style="fill:#003370"/><path d="M1614.17,1080.15a.41.41,0,1,0-.41-.41A.41.41,0,0,0,1614.17,1080.15Z" transform="translate(-1165.6 -779.83)" style="fill:#003370"/><path d="M1384.52,1096.18a0,0,0,1,0,0-.09,0,0,0,0,0,0,.09A0,0,0,0,0,1384.52,1096.18Z" transform="translate(-1165.6 -779.83)" style="fill:#003370"/><path d="M1400.92,1099.32a3.18,3.18,0,1,0-3.18-3.18A3.18,3.18,0,0,0,1400.92,1099.32Z" transform="translate(-1165.6 -779.83)" style="fill:#003370"/><path d="M1417.32,1100.78a4.64,4.64,0,1,0-4.64-4.64A4.64,4.64,0,0,0,1417.32,1100.78Z" transform="translate(-1165.6 -779.83)" style="fill:#003370"/><path d="M1433.73,1100.78a4.64,4.64,0,1,0-4.64-4.64A4.64,4.64,0,0,0,1433.73,1100.78Z" transform="translate(-1165.6 -779.83)" style="fill:#003370"/><path d="M1450.13,1100.78a4.64,4.64,0,1,0-4.64-4.64A4.64,4.64,0,0,0,1450.13,1100.78Z" transform="translate(-1165.6 -779.83)" style="fill:#003370"/><path d="M1466.54,1100.78a4.64,4.64,0,1,0-4.64-4.64A4.64,4.64,0,0,0,1466.54,1100.78Z" transform="translate(-1165.6 -779.83)" style="fill:#003370"/><path d="M1482.94,1100.78a4.64,4.64,0,1,0-4.64-4.64A4.64,4.64,0,0,0,1482.94,1100.78Z" transform="translate(-1165.6 -779.83)" style="fill:#003370"/><path d="M1499.34,1100.78a4.64,4.64,0,1,0-4.64-4.64A4.64,4.64,0,0,0,1499.34,1100.78Z" transform="translate(-1165.6 -779.83)" style="fill:#003370"/><path d="M1515.75,1100.78a4.64,4.64,0,1,0-4.64-4.64A4.64,4.64,0,0,0,1515.75,1100.78Z" transform="translate(-1165.6 -779.83)" style="fill:#003370"/><path d="M1532.15,1100.78a4.64,4.64,0,1,0-4.64-4.64A4.64,4.64,0,0,0,1532.15,1100.78Z" transform="translate(-1165.6 -779.83)" style="fill:#003370"/><path d="M1548.56,1100.78a4.64,4.64,0,1,0-4.64-4.64A4.64,4.64,0,0,0,1548.56,1100.78Z" transform="translate(-1165.6 -779.83)" style="fill:#003370"/><path d="M1565,1100.78a4.64,4.64,0,1,0-4.64-4.64A4.64,4.64,0,0,0,1565,1100.78Z" transform="translate(-1165.6 -779.83)" style="fill:#003370"/><path d="M1581.36,1100.78a4.64,4.64,0,1,0-4.64-4.64A4.64,4.64,0,0,0,1581.36,1100.78Z" transform="translate(-1165.6 -779.83)" style="fill:#003370"/><path d="M1597.77,1097.59a1.46,1.46,0,1,0-1.46-1.45A1.46,1.46,0,0,0,1597.77,1097.59Z" transform="translate(-1165.6 -779.83)" style="fill:#003370"/><path d="M1400.92,1114.41a1.86,1.86,0,1,0-1.86-1.86A1.86,1.86,0,0,0,1400.92,1114.41Z" transform="translate(-1165.6 -779.83)" style="fill:#003370"/><path d="M1417.32,1117.18a4.64,4.64,0,1,0-4.64-4.64A4.64,4.64,0,0,0,1417.32,1117.18Z" transform="translate(-1165.6 -779.83)" style="fill:#003370"/><path d="M1433.73,1117.18a4.64,4.64,0,1,0-4.64-4.64A4.64,4.64,0,0,0,1433.73,1117.18Z" transform="translate(-1165.6 -779.83)" style="fill:#003370"/><path d="M1450.13,1117.18a4.64,4.64,0,1,0-4.64-4.64A4.64,4.64,0,0,0,1450.13,1117.18Z" transform="translate(-1165.6 -779.83)" style="fill:#003370"/><path d="M1466.54,1117.18a4.64,4.64,0,1,0-4.64-4.64A4.64,4.64,0,0,0,1466.54,1117.18Z" transform="translate(-1165.6 -779.83)" style="fill:#003370"/><path d="M1482.94,1117.18a4.64,4.64,0,1,0-4.64-4.64A4.64,4.64,0,0,0,1482.94,1117.18Z" transform="translate(-1165.6 -779.83)" style="fill:#003370"/><path d="M1499.34,1117.18a4.64,4.64,0,1,0-4.64-4.64A4.64,4.64,0,0,0,1499.34,1117.18Z" transform="translate(-1165.6 -779.83)" style="fill:#003370"/><path d="M1515.75,1117.18a4.64,4.64,0,1,0-4.64-4.64A4.64,4.64,0,0,0,1515.75,1117.18Z" transform="translate(-1165.6 -779.83)" style="fill:#003370"/><path d="M1532.15,1117.18a4.64,4.64,0,1,0-4.64-4.64A4.64,4.64,0,0,0,1532.15,1117.18Z" transform="translate(-1165.6 -779.83)" style="fill:#003370"/><path d="M1548.56,1117.18a4.64,4.64,0,1,0-4.64-4.64A4.64,4.64,0,0,0,1548.56,1117.18Z" transform="translate(-1165.6 -779.83)" style="fill:#003370"/><path d="M1565,1117.18a4.64,4.64,0,1,0-4.64-4.64A4.64,4.64,0,0,0,1565,1117.18Z" transform="translate(-1165.6 -779.83)" style="fill:#003370"/><path d="M1581.36,1117.14a4.59,4.59,0,1,0-4.59-4.59A4.59,4.59,0,0,0,1581.36,1117.14Z" transform="translate(-1165.6 -779.83)" style="fill:#003370"/><path d="M1597.77,1113.27a.73.73,0,1,0-.73-.73A.73.73,0,0,0,1597.77,1113.27Z" transform="translate(-1165.6 -779.83)" style="fill:#003370"/><path d="M1400.92,1129.72a.77.77,0,1,0-.77-.77A.77.77,0,0,0,1400.92,1129.72Z" transform="translate(-1165.6 -779.83)" style="fill:#003370"/><path d="M1417.32,1133.54a4.59,4.59,0,1,0-4.59-4.59A4.59,4.59,0,0,0,1417.32,1133.54Z" transform="translate(-1165.6 -779.83)" style="fill:#003370"/><path d="M1433.73,1133.59a4.64,4.64,0,1,0-4.64-4.64A4.64,4.64,0,0,0,1433.73,1133.59Z" transform="translate(-1165.6 -779.83)" style="fill:#003370"/><path d="M1450.13,1133.59a4.64,4.64,0,1,0-4.64-4.64A4.64,4.64,0,0,0,1450.13,1133.59Z" transform="translate(-1165.6 -779.83)" style="fill:#003370"/><path d="M1466.54,1133.59a4.64,4.64,0,1,0-4.64-4.64A4.64,4.64,0,0,0,1466.54,1133.59Z" transform="translate(-1165.6 -779.83)" style="fill:#003370"/><path d="M1482.94,1133.59a4.64,4.64,0,1,0-4.64-4.64A4.64,4.64,0,0,0,1482.94,1133.59Z" transform="translate(-1165.6 -779.83)" style="fill:#003370"/><path d="M1499.34,1133.59a4.64,4.64,0,1,0-4.64-4.64A4.64,4.64,0,0,0,1499.34,1133.59Z" transform="translate(-1165.6 -779.83)" style="fill:#003370"/><path d="M1515.75,1133.59a4.64,4.64,0,1,0-4.64-4.64A4.64,4.64,0,0,0,1515.75,1133.59Z" transform="translate(-1165.6 -779.83)" style="fill:#003370"/><path d="M1532.15,1133.59a4.64,4.64,0,1,0-4.64-4.64A4.64,4.64,0,0,0,1532.15,1133.59Z" transform="translate(-1165.6 -779.83)" style="fill:#003370"/><path d="M1548.56,1133.59a4.64,4.64,0,1,0-4.64-4.64A4.64,4.64,0,0,0,1548.56,1133.59Z" transform="translate(-1165.6 -779.83)" style="fill:#003370"/><path d="M1565,1133.59a4.64,4.64,0,1,0-4.64-4.64A4.64,4.64,0,0,0,1565,1133.59Z" transform="translate(-1165.6 -779.83)" style="fill:#003370"/><path d="M1581.36,1133.59a4.64,4.64,0,1,0-4.64-4.64A4.64,4.64,0,0,0,1581.36,1133.59Z" transform="translate(-1165.6 -779.83)" style="fill:#003370"/><path d="M1597.77,1130.45a1.5,1.5,0,1,0-1.5-1.5A1.5,1.5,0,0,0,1597.77,1130.45Z" transform="translate(-1165.6 -779.83)" style="fill:#003370"/><path d="M1400.92,1145.4a0,0,0,0,0,0,0,0,0,0,0,0,0,0,0,0,0,0,0,0,0A0,0,0,0,0,1400.92,1145.4Z" transform="translate(-1165.6 -779.83)" style="fill:#003370"/><path d="M1417.32,1149.9a4.55,4.55,0,1,0-4.55-4.55A4.55,4.55,0,0,0,1417.32,1149.9Z" transform="translate(-1165.6 -779.83)" style="fill:#003370"/><path d="M1433.73,1150a4.64,4.64,0,1,0-4.64-4.64A4.64,4.64,0,0,0,1433.73,1150Z" transform="translate(-1165.6 -779.83)" style="fill:#003370"/><path d="M1450.13,1150a4.64,4.64,0,1,0-4.64-4.64A4.64,4.64,0,0,0,1450.13,1150Z" transform="translate(-1165.6 -779.83)" style="fill:#003370"/><path d="M1466.54,1150a4.64,4.64,0,1,0-4.64-4.64A4.64,4.64,0,0,0,1466.54,1150Z" transform="translate(-1165.6 -779.83)" style="fill:#003370"/><path d="M1482.94,1150a4.64,4.64,0,1,0-4.64-4.64A4.64,4.64,0,0,0,1482.94,1150Z" transform="translate(-1165.6 -779.83)" style="fill:#003370"/><path d="M1499.34,1150a4.64,4.64,0,1,0-4.64-4.64A4.64,4.64,0,0,0,1499.34,1150Z" transform="translate(-1165.6 -779.83)" style="fill:#003370"/><path d="M1515.75,1150a4.64,4.64,0,1,0-4.64-4.64A4.64,4.64,0,0,0,1515.75,1150Z" transform="translate(-1165.6 -779.83)" style="fill:#003370"/><path d="M1532.15,1150a4.64,4.64,0,1,0-4.64-4.64A4.64,4.64,0,0,0,1532.15,1150Z" transform="translate(-1165.6 -779.83)" style="fill:#003370"/><path d="M1548.56,1150a4.64,4.64,0,1,0-4.64-4.64A4.64,4.64,0,0,0,1548.56,1150Z" transform="translate(-1165.6 -779.83)" style="fill:#003370"/><path d="M1565,1150a4.64,4.64,0,1,0-4.64-4.64A4.64,4.64,0,0,0,1565,1150Z" transform="translate(-1165.6 -779.83)" style="fill:#003370"/><path d="M1581.36,1150a4.64,4.64,0,1,0-4.64-4.64A4.64,4.64,0,0,0,1581.36,1150Z" transform="translate(-1165.6 -779.83)" style="fill:#003370"/><path d="M1597.77,1148.49a3.14,3.14,0,1,0-3.14-3.14A3.14,3.14,0,0,0,1597.77,1148.49Z" transform="translate(-1165.6 -779.83)" style="fill:#003370"/><path d="M1647,1145.4a0,0,0,0,0,0,0,0,0,0,0,0,0,0,0,0,0,0,0,0,0A0,0,0,0,0,1647,1145.4Z" transform="translate(-1165.6 -779.83)" style="fill:#003370"/><path d="M1663.38,1145.94a.59.59,0,1,0-.59-.59A.59.59,0,0,0,1663.38,1145.94Z" transform="translate(-1165.6 -779.83)" style="fill:#003370"/><path d="M1400.92,1163.12a1.36,1.36,0,1,0-1.36-1.36A1.37,1.37,0,0,0,1400.92,1163.12Z" transform="translate(-1165.6 -779.83)" style="fill:#003370"/><path d="M1417.32,1166.39a4.64,4.64,0,1,0-4.64-4.64A4.64,4.64,0,0,0,1417.32,1166.39Z" transform="translate(-1165.6 -779.83)" style="fill:#003370"/><path d="M1433.73,1166.39a4.64,4.64,0,1,0-4.64-4.64A4.64,4.64,0,0,0,1433.73,1166.39Z" transform="translate(-1165.6 -779.83)" style="fill:#003370"/><path d="M1450.13,1166.39a4.64,4.64,0,1,0-4.64-4.64A4.64,4.64,0,0,0,1450.13,1166.39Z" transform="translate(-1165.6 -779.83)" style="fill:#003370"/><path d="M1466.54,1166.39a4.64,4.64,0,1,0-4.64-4.64A4.64,4.64,0,0,0,1466.54,1166.39Z" transform="translate(-1165.6 -779.83)" style="fill:#003370"/><path d="M1482.94,1166.39a4.64,4.64,0,1,0-4.64-4.64A4.64,4.64,0,0,0,1482.94,1166.39Z" transform="translate(-1165.6 -779.83)" style="fill:#003370"/><path d="M1499.34,1166.39a4.64,4.64,0,1,0-4.64-4.64A4.64,4.64,0,0,0,1499.34,1166.39Z" transform="translate(-1165.6 -779.83)" style="fill:#003370"/><path d="M1515.75,1166.39a4.64,4.64,0,1,0-4.64-4.64A4.64,4.64,0,0,0,1515.75,1166.39Z" transform="translate(-1165.6 -779.83)" style="fill:#003370"/><path d="M1532.15,1166.39a4.64,4.64,0,1,0-4.64-4.64A4.64,4.64,0,0,0,1532.15,1166.39Z" transform="translate(-1165.6 -779.83)" style="fill:#003370"/><path d="M1548.56,1166.39a4.64,4.64,0,1,0-4.64-4.64A4.64,4.64,0,0,0,1548.56,1166.39Z" transform="translate(-1165.6 -779.83)" style="fill:#003370"/><path d="M1565,1166.39a4.64,4.64,0,1,0-4.64-4.64A4.64,4.64,0,0,0,1565,1166.39Z" transform="translate(-1165.6 -779.83)" style="fill:#003370"/><path d="M1581.36,1166.39a4.64,4.64,0,1,0-4.64-4.64A4.64,4.64,0,0,0,1581.36,1166.39Z" transform="translate(-1165.6 -779.83)" style="fill:#003370"/><path d="M1597.77,1165a3.23,3.23,0,1,0-3.23-3.23A3.23,3.23,0,0,0,1597.77,1165Z" transform="translate(-1165.6 -779.83)" style="fill:#003370"/><path d="M1647,1162.53a.77.77,0,1,0-.77-.77A.77.77,0,0,0,1647,1162.53Z" transform="translate(-1165.6 -779.83)" style="fill:#003370"/><path d="M1663.38,1164.89a3.14,3.14,0,1,0-3.14-3.14A3.14,3.14,0,0,0,1663.38,1164.89Z" transform="translate(-1165.6 -779.83)" style="fill:#003370"/><path d="M1400.92,1180.57a2.41,2.41,0,1,0-2.41-2.41A2.41,2.41,0,0,0,1400.92,1180.57Z" transform="translate(-1165.6 -779.83)" style="fill:#003370"/><path d="M1417.32,1182.8a4.64,4.64,0,1,0-4.64-4.64A4.64,4.64,0,0,0,1417.32,1182.8Z" transform="translate(-1165.6 -779.83)" style="fill:#003370"/><path d="M1433.73,1182.8a4.64,4.64,0,1,0-4.64-4.64A4.64,4.64,0,0,0,1433.73,1182.8Z" transform="translate(-1165.6 -779.83)" style="fill:#003370"/><path d="M1450.13,1182.8a4.64,4.64,0,1,0-4.64-4.64A4.64,4.64,0,0,0,1450.13,1182.8Z" transform="translate(-1165.6 -779.83)" style="fill:#003370"/><path d="M1466.54,1182.8a4.64,4.64,0,1,0-4.64-4.64A4.64,4.64,0,0,0,1466.54,1182.8Z" transform="translate(-1165.6 -779.83)" style="fill:#003370"/><path d="M1482.94,1182.8a4.64,4.64,0,1,0-4.64-4.64A4.64,4.64,0,0,0,1482.94,1182.8Z" transform="translate(-1165.6 -779.83)" style="fill:#003370"/><path d="M1499.34,1182.8a4.64,4.64,0,1,0-4.64-4.64A4.64,4.64,0,0,0,1499.34,1182.8Z" transform="translate(-1165.6 -779.83)" style="fill:#003370"/><path d="M1515.75,1182.8a4.64,4.64,0,1,0-4.64-4.64A4.64,4.64,0,0,0,1515.75,1182.8Z" transform="translate(-1165.6 -779.83)" style="fill:#003370"/><path d="M1532.15,1182.8a4.64,4.64,0,1,0-4.64-4.64A4.64,4.64,0,0,0,1532.15,1182.8Z" transform="translate(-1165.6 -779.83)" style="fill:#003370"/><path d="M1548.56,1182.8a4.64,4.64,0,1,0-4.64-4.64A4.64,4.64,0,0,0,1548.56,1182.8Z" transform="translate(-1165.6 -779.83)" style="fill:#003370"/><path d="M1565,1182.8a4.64,4.64,0,1,0-4.64-4.64A4.64,4.64,0,0,0,1565,1182.8Z" transform="translate(-1165.6 -779.83)" style="fill:#003370"/><path d="M1581.36,1182.8a4.64,4.64,0,1,0-4.64-4.64A4.64,4.64,0,0,0,1581.36,1182.8Z" transform="translate(-1165.6 -779.83)" style="fill:#003370"/><path d="M1597.77,1180.11a2,2,0,1,0-2-2A2,2,0,0,0,1597.77,1180.11Z" transform="translate(-1165.6 -779.83)" style="fill:#003370"/><path d="M1614.17,1178.2a0,0,0,0,0,0,0,0,0,0,0,0,0,0,0,0,0,0,0,0,0A0,0,0,0,0,1614.17,1178.2Z" transform="translate(-1165.6 -779.83)" style="fill:#003370"/><path d="M1630.57,1180.16a2,2,0,1,0-2-2A2,2,0,0,0,1630.57,1180.16Z" transform="translate(-1165.6 -779.83)" style="fill:#003370"/><path d="M1647,1182.11a4,4,0,1,0-4-4A4,4,0,0,0,1647,1182.11Z" transform="translate(-1165.6 -779.83)" style="fill:#003370"/><path d="M1663.38,1180.8a2.64,2.64,0,1,0-2.64-2.64A2.64,2.64,0,0,0,1663.38,1180.8Z" transform="translate(-1165.6 -779.83)" style="fill:#003370"/><path d="M1400.92,1197.34a2.77,2.77,0,1,0-2.78-2.78A2.78,2.78,0,0,0,1400.92,1197.34Z" transform="translate(-1165.6 -779.83)" style="fill:#003370"/><path d="M1417.32,1199.2a4.64,4.64,0,1,0-4.64-4.64A4.64,4.64,0,0,0,1417.32,1199.2Z" transform="translate(-1165.6 -779.83)" style="fill:#003370"/><path d="M1433.73,1199.2a4.64,4.64,0,1,0-4.64-4.64A4.64,4.64,0,0,0,1433.73,1199.2Z" transform="translate(-1165.6 -779.83)" style="fill:#003370"/><path d="M1450.13,1199.2a4.64,4.64,0,1,0-4.64-4.64A4.64,4.64,0,0,0,1450.13,1199.2Z" transform="translate(-1165.6 -779.83)" style="fill:#003370"/><path d="M1466.54,1199.2a4.64,4.64,0,1,0-4.64-4.64A4.64,4.64,0,0,0,1466.54,1199.2Z" transform="translate(-1165.6 -779.83)" style="fill:#003370"/><path d="M1482.94,1199.2a4.64,4.64,0,1,0-4.64-4.64A4.64,4.64,0,0,0,1482.94,1199.2Z" transform="translate(-1165.6 -779.83)" style="fill:#003370"/><path d="M1499.34,1199.2a4.64,4.64,0,1,0-4.64-4.64A4.64,4.64,0,0,0,1499.34,1199.2Z" transform="translate(-1165.6 -779.83)" style="fill:#003370"/><path d="M1515.75,1199.2a4.64,4.64,0,1,0-4.64-4.64A4.64,4.64,0,0,0,1515.75,1199.2Z" transform="translate(-1165.6 -779.83)" style="fill:#003370"/><path d="M1532.15,1199.2a4.64,4.64,0,1,0-4.64-4.64A4.64,4.64,0,0,0,1532.15,1199.2Z" transform="translate(-1165.6 -779.83)" style="fill:#003370"/><path d="M1548.56,1199.2a4.64,4.64,0,1,0-4.64-4.64A4.64,4.64,0,0,0,1548.56,1199.2Z" transform="translate(-1165.6 -779.83)" style="fill:#003370"/><circle cx="399.36" cy="414.74" r="4" style="fill:#003370"/><path d="M1581.36,1195.38a.82.82,0,1,0-.82-.82A.82.82,0,0,0,1581.36,1195.38Z" transform="translate(-1165.6 -779.83)" style="fill:#003370"/><path d="M1614.17,1194.83a.27.27,0,1,0-.27-.27A.27.27,0,0,0,1614.17,1194.83Z" transform="translate(-1165.6 -779.83)" style="fill:#003370"/><circle cx="464.98" cy="414.74" r="4.28" style="fill:#003370"/><path d="M1647,1199.2a4.64,4.64,0,1,0-4.64-4.64A4.64,4.64,0,0,0,1647,1199.2Z" transform="translate(-1165.6 -779.83)" style="fill:#003370"/><path d="M1663.38,1196.2a1.64,1.64,0,1,0-1.64-1.64A1.64,1.64,0,0,0,1663.38,1196.2Z" transform="translate(-1165.6 -779.83)" style="fill:#003370"/><path d="M1400.92,1212a1,1,0,1,0-1-1A1,1,0,0,0,1400.92,1212Z" transform="translate(-1165.6 -779.83)" style="fill:#003370"/><path d="M1417.32,1215.56a4.59,4.59,0,1,0-4.59-4.59A4.59,4.59,0,0,0,1417.32,1215.56Z" transform="translate(-1165.6 -779.83)" style="fill:#003370"/><path d="M1433.73,1215.61a4.64,4.64,0,1,0-4.64-4.64A4.64,4.64,0,0,0,1433.73,1215.61Z" transform="translate(-1165.6 -779.83)" style="fill:#003370"/><path d="M1450.13,1215.61a4.64,4.64,0,1,0-4.64-4.64A4.64,4.64,0,0,0,1450.13,1215.61Z" transform="translate(-1165.6 -779.83)" style="fill:#003370"/><path d="M1466.54,1215.61a4.64,4.64,0,1,0-4.64-4.64A4.64,4.64,0,0,0,1466.54,1215.61Z" transform="translate(-1165.6 -779.83)" style="fill:#003370"/><path d="M1482.94,1215.61a4.64,4.64,0,1,0-4.64-4.64A4.64,4.64,0,0,0,1482.94,1215.61Z" transform="translate(-1165.6 -779.83)" style="fill:#003370"/><path d="M1499.34,1215.61a4.64,4.64,0,1,0-4.64-4.64A4.64,4.64,0,0,0,1499.34,1215.61Z" transform="translate(-1165.6 -779.83)" style="fill:#003370"/><circle cx="350.15" cy="431.14" r="4.64" style="fill:#003370"/><path d="M1532.15,1215.61a4.64,4.64,0,1,0-4.64-4.64A4.64,4.64,0,0,0,1532.15,1215.61Z" transform="translate(-1165.6 -779.83)" style="fill:#003370"/><path d="M1548.56,1215.61a4.64,4.64,0,1,0-4.64-4.64A4.64,4.64,0,0,0,1548.56,1215.61Z" transform="translate(-1165.6 -779.83)" style="fill:#003370"/><path d="M1565,1212.51a1.55,1.55,0,1,0-1.55-1.55A1.55,1.55,0,0,0,1565,1212.51Z" transform="translate(-1165.6 -779.83)" style="fill:#003370"/><circle cx="448.57" cy="431.14" r="0.27" style="fill:#003370"/><path d="M1630.57,1215a4,4,0,1,0-4-4A4,4,0,0,0,1630.57,1215Z" transform="translate(-1165.6 -779.83)" style="fill:#003370"/><path d="M1647,1215.61a4.64,4.64,0,1,0-4.64-4.64A4.64,4.64,0,0,0,1647,1215.61Z" transform="translate(-1165.6 -779.83)" style="fill:#003370"/><path d="M1663.38,1211.56a.59.59,0,1,0-.59-.59A.59.59,0,0,0,1663.38,1211.56Z" transform="translate(-1165.6 -779.83)" style="fill:#003370"/><path d="M1417.32,1230.69a3.32,3.32,0,1,0-3.32-3.32A3.32,3.32,0,0,0,1417.32,1230.69Z" transform="translate(-1165.6 -779.83)" style="fill:#003370"/><path d="M1433.73,1232a4.64,4.64,0,1,0-4.64-4.64A4.64,4.64,0,0,0,1433.73,1232Z" transform="translate(-1165.6 -779.83)" style="fill:#003370"/><path d="M1450.13,1232a4.64,4.64,0,1,0-4.64-4.64A4.64,4.64,0,0,0,1450.13,1232Z" transform="translate(-1165.6 -779.83)" style="fill:#003370"/><path d="M1466.54,1232a4.64,4.64,0,1,0-4.64-4.64A4.64,4.64,0,0,0,1466.54,1232Z" transform="translate(-1165.6 -779.83)" style="fill:#003370"/><path d="M1482.94,1232a4.64,4.64,0,1,0-4.64-4.64A4.64,4.64,0,0,0,1482.94,1232Z" transform="translate(-1165.6 -779.83)" style="fill:#003370"/><path d="M1499.34,1232a4.64,4.64,0,1,0-4.64-4.64A4.64,4.64,0,0,0,1499.34,1232Z" transform="translate(-1165.6 -779.83)" style="fill:#003370"/><path d="M1515.75,1232a4.64,4.64,0,1,0-4.64-4.64A4.64,4.64,0,0,0,1515.75,1232Z" transform="translate(-1165.6 -779.83)" style="fill:#003370"/><path d="M1532.15,1232a4.64,4.64,0,1,0-4.64-4.64A4.64,4.64,0,0,0,1532.15,1232Z" transform="translate(-1165.6 -779.83)" style="fill:#003370"/><path d="M1548.56,1232a4.64,4.64,0,1,0-4.64-4.64A4.64,4.64,0,0,0,1548.56,1232Z" transform="translate(-1165.6 -779.83)" style="fill:#003370"/><circle cx="399.36" cy="447.54" r="2.55" style="fill:#003370"/><circle cx="448.57" cy="447.54" r="1.5" style="fill:#003370"/><path d="M1630.57,1232a4.64,4.64,0,1,0-4.64-4.64A4.64,4.64,0,0,0,1630.57,1232Z" transform="translate(-1165.6 -779.83)" style="fill:#003370"/><path d="M1647,1231.33a4,4,0,1,0-4-4A4,4,0,0,0,1647,1231.33Z" transform="translate(-1165.6 -779.83)" style="fill:#003370"/><path d="M1663.38,1227.42a0,0,0,1,0,0-.09,0,0,0,0,0,0,.09A0,0,0,0,0,1663.38,1227.42Z" transform="translate(-1165.6 -779.83)" style="fill:#003370"/><path d="M1417.32,1245.82a2,2,0,1,0-2-2A2,2,0,0,0,1417.32,1245.82Z" transform="translate(-1165.6 -779.83)" style="fill:#003370"/><path d="M1433.73,1248.41a4.64,4.64,0,1,0-4.64-4.64A4.64,4.64,0,0,0,1433.73,1248.41Z" transform="translate(-1165.6 -779.83)" style="fill:#003370"/><path d="M1450.13,1248.41a4.64,4.64,0,1,0-4.64-4.64A4.64,4.64,0,0,0,1450.13,1248.41Z" transform="translate(-1165.6 -779.83)" style="fill:#003370"/><path d="M1466.54,1248.41a4.64,4.64,0,1,0-4.64-4.64A4.64,4.64,0,0,0,1466.54,1248.41Z" transform="translate(-1165.6 -779.83)" style="fill:#003370"/><path d="M1482.94,1248.41a4.64,4.64,0,1,0-4.64-4.64A4.64,4.64,0,0,0,1482.94,1248.41Z" transform="translate(-1165.6 -779.83)" style="fill:#003370"/><path d="M1499.34,1248.41a4.64,4.64,0,1,0-4.64-4.64A4.64,4.64,0,0,0,1499.34,1248.41Z" transform="translate(-1165.6 -779.83)" style="fill:#003370"/><circle cx="350.15" cy="463.95" r="4.64" style="fill:#003370"/><path d="M1532.15,1248.41a4.64,4.64,0,1,0-4.64-4.64A4.64,4.64,0,0,0,1532.15,1248.41Z" transform="translate(-1165.6 -779.83)" style="fill:#003370"/><path d="M1548.56,1248a4.19,4.19,0,1,0-4.19-4.19A4.19,4.19,0,0,0,1548.56,1248Z" transform="translate(-1165.6 -779.83)" style="fill:#003370"/><circle cx="399.36" cy="463.95" r="1.36" style="fill:#003370"/><path d="M1614.17,1244a.23.23,0,1,0-.23-.23A.23.23,0,0,0,1614.17,1244Z" transform="translate(-1165.6 -779.83)" style="fill:#003370"/><path d="M1630.57,1248a4.28,4.28,0,1,0-4.28-4.28A4.28,4.28,0,0,0,1630.57,1248Z" transform="translate(-1165.6 -779.83)" style="fill:#003370"/><path d="M1647,1246.55a2.77,2.77,0,1,0-2.77-2.77A2.77,2.77,0,0,0,1647,1246.55Z" transform="translate(-1165.6 -779.83)" style="fill:#003370"/><path d="M1417.32,1261.63a1.45,1.45,0,1,0-1.45-1.45A1.46,1.46,0,0,0,1417.32,1261.63Z" transform="translate(-1165.6 -779.83)" style="fill:#003370"/><path d="M1433.73,1264.82a4.64,4.64,0,1,0-4.64-4.64A4.64,4.64,0,0,0,1433.73,1264.82Z" transform="translate(-1165.6 -779.83)" style="fill:#003370"/><path d="M1450.13,1264.82a4.64,4.64,0,1,0-4.64-4.64A4.64,4.64,0,0,0,1450.13,1264.82Z" transform="translate(-1165.6 -779.83)" style="fill:#003370"/><path d="M1466.54,1264.82a4.64,4.64,0,1,0-4.64-4.64A4.64,4.64,0,0,0,1466.54,1264.82Z" transform="translate(-1165.6 -779.83)" style="fill:#003370"/><path d="M1482.94,1264.82a4.64,4.64,0,1,0-4.64-4.64A4.64,4.64,0,0,0,1482.94,1264.82Z" transform="translate(-1165.6 -779.83)" style="fill:#003370"/><path d="M1499.34,1264.82a4.64,4.64,0,1,0-4.64-4.64A4.64,4.64,0,0,0,1499.34,1264.82Z" transform="translate(-1165.6 -779.83)" style="fill:#003370"/><circle cx="350.15" cy="480.35" r="4.64" style="fill:#003370"/><path d="M1532.15,1264.82a4.64,4.64,0,1,0-4.64-4.64A4.64,4.64,0,0,0,1532.15,1264.82Z" transform="translate(-1165.6 -779.83)" style="fill:#003370"/><path d="M1548.56,1261.45a1.27,1.27,0,1,0-1.27-1.27A1.27,1.27,0,0,0,1548.56,1261.45Z" transform="translate(-1165.6 -779.83)" style="fill:#003370"/><path d="M1630.57,1260.59a.41.41,0,1,0-.41-.41A.41.41,0,0,0,1630.57,1260.59Z" transform="translate(-1165.6 -779.83)" style="fill:#003370"/><path d="M1417.32,1276.72a.14.14,0,1,0,0-.27.14.14,0,0,0,0,.27Z" transform="translate(-1165.6 -779.83)" style="fill:#003370"/><path d="M1433.73,1280a3.41,3.41,0,1,0-3.41-3.41A3.41,3.41,0,0,0,1433.73,1280Z" transform="translate(-1165.6 -779.83)" style="fill:#003370"/><path d="M1450.13,1281.22a4.64,4.64,0,1,0-4.64-4.64A4.64,4.64,0,0,0,1450.13,1281.22Z" transform="translate(-1165.6 -779.83)" style="fill:#003370"/><path d="M1466.54,1281.22a4.64,4.64,0,1,0-4.64-4.64A4.64,4.64,0,0,0,1466.54,1281.22Z" transform="translate(-1165.6 -779.83)" style="fill:#003370"/><path d="M1482.94,1281.22a4.64,4.64,0,1,0-4.64-4.64A4.64,4.64,0,0,0,1482.94,1281.22Z" transform="translate(-1165.6 -779.83)" style="fill:#003370"/><path d="M1499.34,1281.22a4.64,4.64,0,1,0-4.64-4.64A4.64,4.64,0,0,0,1499.34,1281.22Z" transform="translate(-1165.6 -779.83)" style="fill:#003370"/><path d="M1515.75,1281.22a4.64,4.64,0,1,0-4.64-4.64A4.64,4.64,0,0,0,1515.75,1281.22Z" transform="translate(-1165.6 -779.83)" style="fill:#003370"/><path d="M1532.15,1280.77a4.19,4.19,0,1,0-4.19-4.19A4.19,4.19,0,0,0,1532.15,1280.77Z" transform="translate(-1165.6 -779.83)" style="fill:#003370"/><path d="M1548.56,1277.08a.5.5,0,1,0-.5-.5A.5.5,0,0,0,1548.56,1277.08Z" transform="translate(-1165.6 -779.83)" style="fill:#003370"/><path d="M1433.73,1294.12a1.14,1.14,0,1,0-1.14-1.14A1.14,1.14,0,0,0,1433.73,1294.12Z" transform="translate(-1165.6 -779.83)" style="fill:#003370"/><path d="M1450.13,1297.58a4.59,4.59,0,1,0-4.59-4.59A4.6,4.6,0,0,0,1450.13,1297.58Z" transform="translate(-1165.6 -779.83)" style="fill:#003370"/><path d="M1466.54,1297.63a4.64,4.64,0,1,0-4.64-4.64A4.64,4.64,0,0,0,1466.54,1297.63Z" transform="translate(-1165.6 -779.83)" style="fill:#003370"/><path d="M1482.94,1297.63a4.64,4.64,0,1,0-4.64-4.64A4.64,4.64,0,0,0,1482.94,1297.63Z" transform="translate(-1165.6 -779.83)" style="fill:#003370"/><path d="M1499.34,1297.63a4.64,4.64,0,1,0-4.64-4.64A4.64,4.64,0,0,0,1499.34,1297.63Z" transform="translate(-1165.6 -779.83)" style="fill:#003370"/><path d="M1515.75,1297.63a4.64,4.64,0,1,0-4.64-4.64A4.64,4.64,0,0,0,1515.75,1297.63Z" transform="translate(-1165.6 -779.83)" style="fill:#003370"/><path d="M1532.15,1294.53a1.55,1.55,0,1,0-1.55-1.55A1.55,1.55,0,0,0,1532.15,1294.53Z" transform="translate(-1165.6 -779.83)" style="fill:#003370"/><path d="M1450.13,1313.8a4.41,4.41,0,1,0-4.41-4.41A4.41,4.41,0,0,0,1450.13,1313.8Z" transform="translate(-1165.6 -779.83)" style="fill:#003370"/><path d="M1466.54,1314a4.64,4.64,0,1,0-4.64-4.64A4.64,4.64,0,0,0,1466.54,1314Z" transform="translate(-1165.6 -779.83)" style="fill:#003370"/><path d="M1482.94,1314a4.64,4.64,0,1,0-4.64-4.64A4.64,4.64,0,0,0,1482.94,1314Z" transform="translate(-1165.6 -779.83)" style="fill:#003370"/><path d="M1499.34,1314a4.59,4.59,0,1,0-4.59-4.59A4.59,4.59,0,0,0,1499.34,1314Z" transform="translate(-1165.6 -779.83)" style="fill:#003370"/><path d="M1515.75,1311.12a1.73,1.73,0,1,0-1.73-1.73A1.73,1.73,0,0,0,1515.75,1311.12Z" transform="translate(-1165.6 -779.83)" style="fill:#003370"/><path d="M1450.13,1327.2a1.41,1.41,0,1,0-1.41-1.41A1.41,1.41,0,0,0,1450.13,1327.2Z" transform="translate(-1165.6 -779.83)" style="fill:#003370"/><path d="M1466.54,1327.7a1.91,1.91,0,1,0-1.91-1.91A1.91,1.91,0,0,0,1466.54,1327.7Z" transform="translate(-1165.6 -779.83)" style="fill:#003370"/><path d="M1482.94,1327a1.23,1.23,0,1,0-1.23-1.23A1.23,1.23,0,0,0,1482.94,1327Z" transform="translate(-1165.6 -779.83)" style="fill:#003370"/><circle cx="333.75" cy="545.97" r="0.14" style="fill:#003370"/></g><circle id="pivot_ground_africa" cx="221.79" cy="547.26" r="13.37" style="fill:none"/><circle id="pivot_top_africa" cx="13.37" cy="13.37" r="13.37" style="fill:none"/></g></svg>