<svg id="Layer_1" data-name="Layer 1" xmlns="http://www.w3.org/2000/svg" viewBox="0 0 490.77 490.77"><title>face</title><g id="face"><circle cx="253" cy="252" r="245.38" transform="translate(-111.7 246.09) rotate(-45)" style="fill:#124574"/><circle cx="256.68" cy="248.32" r="219.65" transform="translate(-108.03 247.61) rotate(-45)" style="fill:#16203e"/><circle cx="253" cy="252" r="204.95" transform="translate(-111.7 246.09) rotate(-45)" style="fill:#fff"/><path d="M250.25,90.25h0a4.61,4.61,0,0,1-4.6-4.6V58.08a4.6,4.6,0,1,1,9.19,0V85.65A4.61,4.61,0,0,1,250.25,90.25Z" transform="translate(-7.62 -6.62)" style="fill:#124574"/><path d="M410.16,250.16h0a4.61,4.61,0,0,1,4.6-4.6h27.57a4.6,4.6,0,1,1,0,9.19H414.76A4.61,4.61,0,0,1,410.16,250.16Z" transform="translate(-7.62 -6.62)" style="fill:#124574"/><path d="M363.32,137.08h0a4.61,4.61,0,0,1,0-6.5l19.5-19.5a4.61,4.61,0,0,1,6.5,0h0a4.61,4.61,0,0,1,0,6.5l-19.5,19.5A4.61,4.61,0,0,1,363.32,137.08Z" transform="translate(-7.62 -6.62)" style="fill:#124574"/><path d="M277.82,430.76a207.08,207.08,0,0,1-23-1.29v12.78a4.6,4.6,0,1,1-9.19,0v-14a204.36,204.36,0,0,1-111.09-55.89l-16.88,16.88a4.6,4.6,0,1,1-6.5-6.5l17-17a204.25,204.25,0,0,1-53.22-111H58.17a4.6,4.6,0,1,1,0-9.19H73.82c-.62-6.5-1-13.09-1-19.76A204,204,0,0,1,117.25,98.52,204.4,204.4,0,0,0,48.06,252c0,113.19,91.76,204.95,204.95,204.95a204.52,204.52,0,0,0,160.57-77.66A204.13,204.13,0,0,1,277.82,430.76Z" transform="translate(-7.62 -6.62)" style="fill:#dbdada"/><path d="M363.32,363.24h0a4.61,4.61,0,0,1,6.5,0l19.5,19.5a4.6,4.6,0,0,1-6.5,6.5l-19.5-19.5A4.61,4.61,0,0,1,363.32,363.24Z" transform="translate(-7.62 -6.62)" style="fill:#124574"/><path d="M111.18,111.09h0a4.61,4.61,0,0,1,6.5,0l19.5,19.5a4.6,4.6,0,1,1-6.5,6.5l-19.5-19.5A4.61,4.61,0,0,1,111.18,111.09Z" transform="translate(-7.62 -6.62)" style="fill:#124574"/><path d="M250.25,446.84h0a4.61,4.61,0,0,1-4.6-4.6V414.67a4.6,4.6,0,0,1,9.19,0v27.57A4.61,4.61,0,0,1,250.25,446.84Z" transform="translate(-7.62 -6.62)" style="fill:#124574"/><path d="M53.57,250.16h0a4.61,4.61,0,0,1,4.6-4.6H85.74a4.6,4.6,0,1,1,0,9.19H58.17A4.61,4.61,0,0,1,53.57,250.16Z" transform="translate(-7.62 -6.62)" style="fill:#124574"/><path d="M111.18,389.23h0a4.61,4.61,0,0,1,0-6.5l19.5-19.5a4.6,4.6,0,1,1,6.5,6.5l-19.5,19.5A4.61,4.61,0,0,1,111.18,389.23Z" transform="translate(-7.62 -6.62)" style="fill:#124574"/></g></svg>