<svg xmlns="http://www.w3.org/2000/svg" viewBox="0 0 127.79 127.79"><defs><style>.cls-1{fill:#231f20;}.cls-2{fill:none;}</style></defs><title>wheel_front</title><g id="Layer_2" data-name="Layer 2"><g id="Layer_1-2" data-name="Layer 1"><g id="wheel_front"><g id="wheel_front-2" data-name="wheel_front"><path class="cls-1" d="M63.89,127.79a63.89,63.89,0,1,1,63.89-63.89A64,64,0,0,1,63.89,127.79ZM63.89,4a59.89,59.89,0,1,0,59.89,59.89A60,60,0,0,0,63.89,4Z"/><path class="cls-1" d="M63.89,102.19a38.3,38.3,0,1,1,38.3-38.3A38.34,38.34,0,0,1,63.89,102.19Zm0-73.6a35.3,35.3,0,1,0,35.3,35.3A35.34,35.34,0,0,0,63.89,28.6Z"/><path class="cls-1" d="M72.39,77.72,50.07,72.39,55.4,50.07,77.72,55.4Zm-18.7-7.55L70.17,74.1,74.1,57.62,57.62,53.69Z"/><path class="cls-1" d="M63.89,93.65A29.76,29.76,0,1,1,93.65,63.89,29.79,29.79,0,0,1,63.89,93.65Zm0-56.51A26.76,26.76,0,1,0,90.65,63.89,26.79,26.79,0,0,0,63.89,37.14Z"/></g><circle id="pivot_front" class="cls-2" cx="63.89" cy="63.89" r="6.28"/></g></g></g></svg>