<svg xmlns="http://www.w3.org/2000/svg" viewBox="0 0 170.22 170.22"><defs><style>.cls-1{fill:#231f20;}.cls-2{fill:none;}</style></defs><title>wheel_back</title><g id="Layer_2" data-name="Layer 2"><g id="Layer_1-2" data-name="Layer 1"><g id="wheel_back"><g id="wheel_back-2" data-name="wheel_back"><path class="cls-1" d="M85.11,170.22a85.11,85.11,0,1,1,85.11-85.11A85.21,85.21,0,0,1,85.11,170.22Zm0-164.89a79.78,79.78,0,1,0,79.78,79.78A79.87,79.87,0,0,0,85.11,5.33Z"/><path class="cls-1" d="M85.11,136.12a51,51,0,1,1,51-51A51.07,51.07,0,0,1,85.11,136.12Zm0-98a47,47,0,1,0,47,47A47.07,47.07,0,0,0,85.11,38.09Z"/><path class="cls-1" d="M100.06,91.36l-21.21,8.7-8.7-21.21,21.21-8.7ZM80.49,96.15l15.66-6.42L89.73,74.07,74.07,80.49Z"/><path class="cls-1" d="M85.11,124.75a39.64,39.64,0,1,1,39.64-39.64A39.68,39.68,0,0,1,85.11,124.75Zm0-75.28a35.64,35.64,0,1,0,35.64,35.64A35.68,35.68,0,0,0,85.11,49.47Z"/></g><circle id="pivot_back" class="cls-2" cx="85.11" cy="85.11" r="6.28"/></g></g></g></svg>