<svg xmlns="http://www.w3.org/2000/svg" viewBox="0 0 399.54 266.03"><defs><style>.cls-1{fill:#fff;stroke:#231f20;stroke-miterlimit:10;stroke-width:5px;}.cls-2{fill:none;}</style></defs><title>walking_beam</title><g id="Layer_2" data-name="Layer 2"><g id="Layer_1-2" data-name="Layer 1"><g id="walking_beam"><path id="walking_beam-2" data-name="walking_beam" class="cls-1" d="M374.55,3,78,110.63A14.37,14.37,0,0,1,59.6,102L47.36,68.38a14.37,14.37,0,0,0-18.3-8.64l-11.7,4.13a15.68,15.68,0,0,0-9.9,10.4C-15.08,152.56,44.19,236.7,85,261a17.88,17.88,0,0,0,15,1.5c2.45-.85,5.13-1.81,7.54-2.68a8,8,0,0,0,4.76-10.19L83.4,170a8,8,0,0,1,4.75-10.19l101.48-36.91a6.4,6.4,0,0,1,8.2,3.82l1.28,3.52A9.59,9.59,0,0,0,211.4,136l19-6.9a9.59,9.59,0,0,0,5.74-12.29l-1.27-3.49a6.4,6.4,0,0,1,3.86-8.21l67-23.95A6.4,6.4,0,0,1,313.88,85L315.32,89a9.42,9.42,0,0,0,12.07,5.63L338,90.74a9.42,9.42,0,0,0,5.63-12.07l-1.43-3.93A6.4,6.4,0,0,1,346,66.55L391.05,50a9.13,9.13,0,0,0,5.48-11.53L386.29,8.66A9.13,9.13,0,0,0,374.55,3Z"/><circle id="pivot_samson_post" class="cls-2" cx="216.17" cy="121.66" r="6.14"/><circle id="pivot_walking_beam" class="cls-2" cx="328.87" cy="81.34" r="6.14"/></g></g></g></svg>